G04 #@! TF.FileFunction,Legend,Top*
%FSLAX46Y46*%
G04 Gerber Fmt 4.6, Leading zero omitted, Abs format (unit mm)*
G04 Created by KiCad (PCBNEW 4.0.5+dfsg1-4~bpo8+1) date Tue Aug 29 22:55:19 2017*
%MOMM*%
%LPD*%
G01*
G04 APERTURE LIST*
%ADD10C,0.100000*%
%ADD11C,0.076200*%
%ADD12C,0.120000*%
%ADD13C,0.152400*%
%ADD14C,0.050800*%
%ADD15C,0.150000*%
G04 APERTURE END LIST*
D10*
D11*
X133386286Y-105201357D02*
X133513286Y-105582357D01*
X133640286Y-105201357D01*
X133966857Y-105582357D02*
X133749142Y-105582357D01*
X133858000Y-105582357D02*
X133858000Y-105201357D01*
X133821714Y-105255786D01*
X133785428Y-105292071D01*
X133749142Y-105310214D01*
X134130142Y-105546071D02*
X134148285Y-105564214D01*
X134130142Y-105582357D01*
X134111999Y-105564214D01*
X134130142Y-105546071D01*
X134130142Y-105582357D01*
X134384143Y-105201357D02*
X134420428Y-105201357D01*
X134456714Y-105219500D01*
X134474857Y-105237643D01*
X134493000Y-105273929D01*
X134511143Y-105346500D01*
X134511143Y-105437214D01*
X134493000Y-105509786D01*
X134474857Y-105546071D01*
X134456714Y-105564214D01*
X134420428Y-105582357D01*
X134384143Y-105582357D01*
X134347857Y-105564214D01*
X134329714Y-105546071D01*
X134311571Y-105509786D01*
X134293428Y-105437214D01*
X134293428Y-105346500D01*
X134311571Y-105273929D01*
X134329714Y-105237643D01*
X134347857Y-105219500D01*
X134384143Y-105201357D01*
X134674428Y-105546071D02*
X134692571Y-105564214D01*
X134674428Y-105582357D01*
X134656285Y-105564214D01*
X134674428Y-105546071D01*
X134674428Y-105582357D01*
X135055429Y-105582357D02*
X134837714Y-105582357D01*
X134946572Y-105582357D02*
X134946572Y-105201357D01*
X134910286Y-105255786D01*
X134874000Y-105292071D01*
X134837714Y-105310214D01*
X165390286Y-88709500D02*
X165354000Y-88691357D01*
X165299571Y-88691357D01*
X165245143Y-88709500D01*
X165208857Y-88745786D01*
X165190714Y-88782071D01*
X165172571Y-88854643D01*
X165172571Y-88909071D01*
X165190714Y-88981643D01*
X165208857Y-89017929D01*
X165245143Y-89054214D01*
X165299571Y-89072357D01*
X165335857Y-89072357D01*
X165390286Y-89054214D01*
X165408429Y-89036071D01*
X165408429Y-88909071D01*
X165335857Y-88909071D01*
X165571714Y-89072357D02*
X165571714Y-88691357D01*
X165789429Y-89072357D01*
X165789429Y-88691357D01*
X165970857Y-89072357D02*
X165970857Y-88691357D01*
X166061572Y-88691357D01*
X166116000Y-88709500D01*
X166152286Y-88745786D01*
X166170429Y-88782071D01*
X166188572Y-88854643D01*
X166188572Y-88909071D01*
X166170429Y-88981643D01*
X166152286Y-89017929D01*
X166116000Y-89054214D01*
X166061572Y-89072357D01*
X165970857Y-89072357D01*
X165136286Y-86151357D02*
X165354000Y-86151357D01*
X165245143Y-86532357D02*
X165245143Y-86151357D01*
X165444715Y-86151357D02*
X165698715Y-86532357D01*
X165698715Y-86151357D02*
X165444715Y-86532357D01*
X165408429Y-83992357D02*
X165281429Y-83810929D01*
X165190714Y-83992357D02*
X165190714Y-83611357D01*
X165335857Y-83611357D01*
X165372143Y-83629500D01*
X165390286Y-83647643D01*
X165408429Y-83683929D01*
X165408429Y-83738357D01*
X165390286Y-83774643D01*
X165372143Y-83792786D01*
X165335857Y-83810929D01*
X165190714Y-83810929D01*
X165535429Y-83611357D02*
X165789429Y-83992357D01*
X165789429Y-83611357D02*
X165535429Y-83992357D01*
X165390286Y-81089500D02*
X165354000Y-81071357D01*
X165299571Y-81071357D01*
X165245143Y-81089500D01*
X165208857Y-81125786D01*
X165190714Y-81162071D01*
X165172571Y-81234643D01*
X165172571Y-81289071D01*
X165190714Y-81361643D01*
X165208857Y-81397929D01*
X165245143Y-81434214D01*
X165299571Y-81452357D01*
X165335857Y-81452357D01*
X165390286Y-81434214D01*
X165408429Y-81416071D01*
X165408429Y-81289071D01*
X165335857Y-81289071D01*
X165571714Y-81452357D02*
X165571714Y-81071357D01*
X165716857Y-81071357D01*
X165753143Y-81089500D01*
X165771286Y-81107643D01*
X165789429Y-81143929D01*
X165789429Y-81198357D01*
X165771286Y-81234643D01*
X165753143Y-81252786D01*
X165716857Y-81270929D01*
X165571714Y-81270929D01*
X165952714Y-81452357D02*
X165952714Y-81071357D01*
X166206715Y-81071357D02*
X166279286Y-81071357D01*
X166315572Y-81089500D01*
X166351858Y-81125786D01*
X166370000Y-81198357D01*
X166370000Y-81325357D01*
X166351858Y-81397929D01*
X166315572Y-81434214D01*
X166279286Y-81452357D01*
X166206715Y-81452357D01*
X166170429Y-81434214D01*
X166134143Y-81397929D01*
X166116000Y-81325357D01*
X166116000Y-81198357D01*
X166134143Y-81125786D01*
X166170429Y-81089500D01*
X166206715Y-81071357D01*
X166515143Y-81107643D02*
X166533286Y-81089500D01*
X166569572Y-81071357D01*
X166660286Y-81071357D01*
X166696572Y-81089500D01*
X166714715Y-81107643D01*
X166732858Y-81143929D01*
X166732858Y-81180214D01*
X166714715Y-81234643D01*
X166497001Y-81452357D01*
X166732858Y-81452357D01*
X165390286Y-78549500D02*
X165354000Y-78531357D01*
X165299571Y-78531357D01*
X165245143Y-78549500D01*
X165208857Y-78585786D01*
X165190714Y-78622071D01*
X165172571Y-78694643D01*
X165172571Y-78749071D01*
X165190714Y-78821643D01*
X165208857Y-78857929D01*
X165245143Y-78894214D01*
X165299571Y-78912357D01*
X165335857Y-78912357D01*
X165390286Y-78894214D01*
X165408429Y-78876071D01*
X165408429Y-78749071D01*
X165335857Y-78749071D01*
X165571714Y-78912357D02*
X165571714Y-78531357D01*
X165716857Y-78531357D01*
X165753143Y-78549500D01*
X165771286Y-78567643D01*
X165789429Y-78603929D01*
X165789429Y-78658357D01*
X165771286Y-78694643D01*
X165753143Y-78712786D01*
X165716857Y-78730929D01*
X165571714Y-78730929D01*
X165952714Y-78912357D02*
X165952714Y-78531357D01*
X166206715Y-78531357D02*
X166279286Y-78531357D01*
X166315572Y-78549500D01*
X166351858Y-78585786D01*
X166370000Y-78658357D01*
X166370000Y-78785357D01*
X166351858Y-78857929D01*
X166315572Y-78894214D01*
X166279286Y-78912357D01*
X166206715Y-78912357D01*
X166170429Y-78894214D01*
X166134143Y-78857929D01*
X166116000Y-78785357D01*
X166116000Y-78658357D01*
X166134143Y-78585786D01*
X166170429Y-78549500D01*
X166206715Y-78531357D01*
X166605858Y-78531357D02*
X166642143Y-78531357D01*
X166678429Y-78549500D01*
X166696572Y-78567643D01*
X166714715Y-78603929D01*
X166732858Y-78676500D01*
X166732858Y-78767214D01*
X166714715Y-78839786D01*
X166696572Y-78876071D01*
X166678429Y-78894214D01*
X166642143Y-78912357D01*
X166605858Y-78912357D01*
X166569572Y-78894214D01*
X166551429Y-78876071D01*
X166533286Y-78839786D01*
X166515143Y-78767214D01*
X166515143Y-78676500D01*
X166533286Y-78603929D01*
X166551429Y-78567643D01*
X166569572Y-78549500D01*
X166605858Y-78531357D01*
X165154429Y-75991357D02*
X165390286Y-75991357D01*
X165263286Y-76136500D01*
X165317714Y-76136500D01*
X165354000Y-76154643D01*
X165372143Y-76172786D01*
X165390286Y-76209071D01*
X165390286Y-76299786D01*
X165372143Y-76336071D01*
X165354000Y-76354214D01*
X165317714Y-76372357D01*
X165208857Y-76372357D01*
X165172571Y-76354214D01*
X165154429Y-76336071D01*
X165499143Y-75991357D02*
X165626143Y-76372357D01*
X165753143Y-75991357D01*
X165843857Y-75991357D02*
X166079714Y-75991357D01*
X165952714Y-76136500D01*
X166007142Y-76136500D01*
X166043428Y-76154643D01*
X166061571Y-76172786D01*
X166079714Y-76209071D01*
X166079714Y-76299786D01*
X166061571Y-76336071D01*
X166043428Y-76354214D01*
X166007142Y-76372357D01*
X165898285Y-76372357D01*
X165861999Y-76354214D01*
X165843857Y-76336071D01*
D10*
X151661905Y-102195000D02*
X151614286Y-102171190D01*
X151542858Y-102171190D01*
X151471429Y-102195000D01*
X151423810Y-102242619D01*
X151400001Y-102290238D01*
X151376191Y-102385476D01*
X151376191Y-102456905D01*
X151400001Y-102552143D01*
X151423810Y-102599762D01*
X151471429Y-102647381D01*
X151542858Y-102671190D01*
X151590477Y-102671190D01*
X151661905Y-102647381D01*
X151685715Y-102623571D01*
X151685715Y-102456905D01*
X151590477Y-102456905D01*
X151900001Y-102671190D02*
X151900001Y-102171190D01*
X152090477Y-102171190D01*
X152138096Y-102195000D01*
X152161905Y-102218810D01*
X152185715Y-102266429D01*
X152185715Y-102337857D01*
X152161905Y-102385476D01*
X152138096Y-102409286D01*
X152090477Y-102433095D01*
X151900001Y-102433095D01*
X152400001Y-102671190D02*
X152400001Y-102171190D01*
X152733334Y-102171190D02*
X152828572Y-102171190D01*
X152876191Y-102195000D01*
X152923810Y-102242619D01*
X152947619Y-102337857D01*
X152947619Y-102504524D01*
X152923810Y-102599762D01*
X152876191Y-102647381D01*
X152828572Y-102671190D01*
X152733334Y-102671190D01*
X152685715Y-102647381D01*
X152638096Y-102599762D01*
X152614286Y-102504524D01*
X152614286Y-102337857D01*
X152638096Y-102242619D01*
X152685715Y-102195000D01*
X152733334Y-102171190D01*
X153257144Y-102171190D02*
X153304763Y-102171190D01*
X153352382Y-102195000D01*
X153376191Y-102218810D01*
X153400001Y-102266429D01*
X153423810Y-102361667D01*
X153423810Y-102480714D01*
X153400001Y-102575952D01*
X153376191Y-102623571D01*
X153352382Y-102647381D01*
X153304763Y-102671190D01*
X153257144Y-102671190D01*
X153209525Y-102647381D01*
X153185715Y-102623571D01*
X153161906Y-102575952D01*
X153138096Y-102480714D01*
X153138096Y-102361667D01*
X153161906Y-102266429D01*
X153185715Y-102218810D01*
X153209525Y-102195000D01*
X153257144Y-102171190D01*
D12*
X151039723Y-84835722D02*
G75*
G03X151040000Y-80224420I-1179723J2305722D01*
G01*
X148680277Y-84835722D02*
G75*
G02X148680000Y-80224420I1179723J2305722D01*
G01*
X148680277Y-84835722D02*
G75*
G03X151040000Y-84835580I1179723J2305722D01*
G01*
X152410000Y-82530000D02*
X147310000Y-82530000D01*
X152410000Y-82570000D02*
X147310000Y-82570000D01*
X152409000Y-82610000D02*
X147311000Y-82610000D01*
X152408000Y-82650000D02*
X147312000Y-82650000D01*
X152406000Y-82690000D02*
X147314000Y-82690000D01*
X152403000Y-82730000D02*
X147317000Y-82730000D01*
X152399000Y-82770000D02*
X147321000Y-82770000D01*
X152395000Y-82810000D02*
X150840000Y-82810000D01*
X148880000Y-82810000D02*
X147325000Y-82810000D01*
X152391000Y-82850000D02*
X150840000Y-82850000D01*
X148880000Y-82850000D02*
X147329000Y-82850000D01*
X152385000Y-82890000D02*
X150840000Y-82890000D01*
X148880000Y-82890000D02*
X147335000Y-82890000D01*
X152379000Y-82930000D02*
X150840000Y-82930000D01*
X148880000Y-82930000D02*
X147341000Y-82930000D01*
X152373000Y-82970000D02*
X150840000Y-82970000D01*
X148880000Y-82970000D02*
X147347000Y-82970000D01*
X152366000Y-83010000D02*
X150840000Y-83010000D01*
X148880000Y-83010000D02*
X147354000Y-83010000D01*
X152358000Y-83050000D02*
X150840000Y-83050000D01*
X148880000Y-83050000D02*
X147362000Y-83050000D01*
X152349000Y-83090000D02*
X150840000Y-83090000D01*
X148880000Y-83090000D02*
X147371000Y-83090000D01*
X152340000Y-83130000D02*
X150840000Y-83130000D01*
X148880000Y-83130000D02*
X147380000Y-83130000D01*
X152330000Y-83170000D02*
X150840000Y-83170000D01*
X148880000Y-83170000D02*
X147390000Y-83170000D01*
X152320000Y-83210000D02*
X150840000Y-83210000D01*
X148880000Y-83210000D02*
X147400000Y-83210000D01*
X152308000Y-83251000D02*
X150840000Y-83251000D01*
X148880000Y-83251000D02*
X147412000Y-83251000D01*
X152296000Y-83291000D02*
X150840000Y-83291000D01*
X148880000Y-83291000D02*
X147424000Y-83291000D01*
X152284000Y-83331000D02*
X150840000Y-83331000D01*
X148880000Y-83331000D02*
X147436000Y-83331000D01*
X152270000Y-83371000D02*
X150840000Y-83371000D01*
X148880000Y-83371000D02*
X147450000Y-83371000D01*
X152256000Y-83411000D02*
X150840000Y-83411000D01*
X148880000Y-83411000D02*
X147464000Y-83411000D01*
X152242000Y-83451000D02*
X150840000Y-83451000D01*
X148880000Y-83451000D02*
X147478000Y-83451000D01*
X152226000Y-83491000D02*
X150840000Y-83491000D01*
X148880000Y-83491000D02*
X147494000Y-83491000D01*
X152210000Y-83531000D02*
X150840000Y-83531000D01*
X148880000Y-83531000D02*
X147510000Y-83531000D01*
X152193000Y-83571000D02*
X150840000Y-83571000D01*
X148880000Y-83571000D02*
X147527000Y-83571000D01*
X152175000Y-83611000D02*
X150840000Y-83611000D01*
X148880000Y-83611000D02*
X147545000Y-83611000D01*
X152156000Y-83651000D02*
X150840000Y-83651000D01*
X148880000Y-83651000D02*
X147564000Y-83651000D01*
X152136000Y-83691000D02*
X150840000Y-83691000D01*
X148880000Y-83691000D02*
X147584000Y-83691000D01*
X152116000Y-83731000D02*
X150840000Y-83731000D01*
X148880000Y-83731000D02*
X147604000Y-83731000D01*
X152094000Y-83771000D02*
X150840000Y-83771000D01*
X148880000Y-83771000D02*
X147626000Y-83771000D01*
X152072000Y-83811000D02*
X150840000Y-83811000D01*
X148880000Y-83811000D02*
X147648000Y-83811000D01*
X152049000Y-83851000D02*
X150840000Y-83851000D01*
X148880000Y-83851000D02*
X147671000Y-83851000D01*
X152025000Y-83891000D02*
X150840000Y-83891000D01*
X148880000Y-83891000D02*
X147695000Y-83891000D01*
X152000000Y-83931000D02*
X150840000Y-83931000D01*
X148880000Y-83931000D02*
X147720000Y-83931000D01*
X151973000Y-83971000D02*
X150840000Y-83971000D01*
X148880000Y-83971000D02*
X147747000Y-83971000D01*
X151946000Y-84011000D02*
X150840000Y-84011000D01*
X148880000Y-84011000D02*
X147774000Y-84011000D01*
X151918000Y-84051000D02*
X150840000Y-84051000D01*
X148880000Y-84051000D02*
X147802000Y-84051000D01*
X151888000Y-84091000D02*
X150840000Y-84091000D01*
X148880000Y-84091000D02*
X147832000Y-84091000D01*
X151857000Y-84131000D02*
X150840000Y-84131000D01*
X148880000Y-84131000D02*
X147863000Y-84131000D01*
X151825000Y-84171000D02*
X150840000Y-84171000D01*
X148880000Y-84171000D02*
X147895000Y-84171000D01*
X151792000Y-84211000D02*
X150840000Y-84211000D01*
X148880000Y-84211000D02*
X147928000Y-84211000D01*
X151757000Y-84251000D02*
X150840000Y-84251000D01*
X148880000Y-84251000D02*
X147963000Y-84251000D01*
X151721000Y-84291000D02*
X150840000Y-84291000D01*
X148880000Y-84291000D02*
X147999000Y-84291000D01*
X151683000Y-84331000D02*
X150840000Y-84331000D01*
X148880000Y-84331000D02*
X148037000Y-84331000D01*
X151643000Y-84371000D02*
X150840000Y-84371000D01*
X148880000Y-84371000D02*
X148077000Y-84371000D01*
X151602000Y-84411000D02*
X150840000Y-84411000D01*
X148880000Y-84411000D02*
X148118000Y-84411000D01*
X151559000Y-84451000D02*
X150840000Y-84451000D01*
X148880000Y-84451000D02*
X148161000Y-84451000D01*
X151514000Y-84491000D02*
X150840000Y-84491000D01*
X148880000Y-84491000D02*
X148206000Y-84491000D01*
X151466000Y-84531000D02*
X150840000Y-84531000D01*
X148880000Y-84531000D02*
X148254000Y-84531000D01*
X151416000Y-84571000D02*
X150840000Y-84571000D01*
X148880000Y-84571000D02*
X148304000Y-84571000D01*
X151364000Y-84611000D02*
X150840000Y-84611000D01*
X148880000Y-84611000D02*
X148356000Y-84611000D01*
X151308000Y-84651000D02*
X150840000Y-84651000D01*
X148880000Y-84651000D02*
X148412000Y-84651000D01*
X151250000Y-84691000D02*
X150840000Y-84691000D01*
X148880000Y-84691000D02*
X148470000Y-84691000D01*
X151187000Y-84731000D02*
X150840000Y-84731000D01*
X148880000Y-84731000D02*
X148533000Y-84731000D01*
X151121000Y-84771000D02*
X148599000Y-84771000D01*
X151049000Y-84811000D02*
X148671000Y-84811000D01*
X150972000Y-84851000D02*
X148748000Y-84851000D01*
X150888000Y-84891000D02*
X148832000Y-84891000D01*
X150794000Y-84931000D02*
X148926000Y-84931000D01*
X150689000Y-84971000D02*
X149031000Y-84971000D01*
X150567000Y-85011000D02*
X149153000Y-85011000D01*
X150419000Y-85051000D02*
X149301000Y-85051000D01*
X150214000Y-85091000D02*
X149506000Y-85091000D01*
X149860000Y-79080000D02*
X149860000Y-80280000D01*
X150510000Y-79680000D02*
X149210000Y-79680000D01*
X137240000Y-80800000D02*
X128440000Y-80800000D01*
X128440000Y-80800000D02*
X128440000Y-71600000D01*
X143140000Y-78100000D02*
X143140000Y-80800000D01*
X143140000Y-80800000D02*
X141240000Y-80800000D01*
X128440000Y-71600000D02*
X143140000Y-71600000D01*
X143140000Y-71600000D02*
X143140000Y-74200000D01*
X135830000Y-102930000D02*
X141030000Y-102930000D01*
X135830000Y-95250000D02*
X135830000Y-102930000D01*
X141030000Y-92650000D02*
X141030000Y-102930000D01*
X135830000Y-95250000D02*
X138430000Y-95250000D01*
X138430000Y-95250000D02*
X138430000Y-92650000D01*
X138430000Y-92650000D02*
X141030000Y-92650000D01*
X135830000Y-93980000D02*
X135830000Y-92650000D01*
X135830000Y-92650000D02*
X137160000Y-92650000D01*
X153070000Y-89880000D02*
X153070000Y-90210000D01*
X153070000Y-90210000D02*
X146650000Y-90210000D01*
X146650000Y-90210000D02*
X146650000Y-89880000D01*
X153070000Y-87920000D02*
X153070000Y-87590000D01*
X153070000Y-87590000D02*
X146650000Y-87590000D01*
X146650000Y-87590000D02*
X146650000Y-87920000D01*
X164500000Y-94960000D02*
X164500000Y-95290000D01*
X164500000Y-95290000D02*
X158080000Y-95290000D01*
X158080000Y-95290000D02*
X158080000Y-94960000D01*
X164500000Y-93000000D02*
X164500000Y-92670000D01*
X164500000Y-92670000D02*
X158080000Y-92670000D01*
X158080000Y-92670000D02*
X158080000Y-93000000D01*
X153070000Y-94960000D02*
X153070000Y-95290000D01*
X153070000Y-95290000D02*
X146650000Y-95290000D01*
X146650000Y-95290000D02*
X146650000Y-94960000D01*
X153070000Y-93000000D02*
X153070000Y-92670000D01*
X153070000Y-92670000D02*
X146650000Y-92670000D01*
X146650000Y-92670000D02*
X146650000Y-93000000D01*
D13*
X146558000Y-99568000D02*
X146812000Y-99568000D01*
X146558000Y-99568000D02*
X146558000Y-101092000D01*
X146812000Y-101092000D02*
X146558000Y-101092000D01*
X153162000Y-101092000D02*
X152908000Y-101092000D01*
X153162000Y-101092000D02*
X153162000Y-99568000D01*
X152908000Y-99568000D02*
X153162000Y-99568000D01*
D14*
X151130000Y-103378000D02*
X151130000Y-103124000D01*
X148590000Y-103124000D02*
X151130000Y-103124000D01*
X148590000Y-103124000D02*
X148590000Y-103378000D01*
X148717000Y-97536000D02*
X151130000Y-97536000D01*
X148717000Y-97536000D02*
X148717000Y-97282000D01*
X151130000Y-97536000D02*
X151130000Y-97282000D01*
D13*
X152019000Y-97282000D02*
X151130000Y-97282000D01*
X147701000Y-103378000D02*
X148590000Y-103378000D01*
X148590000Y-103378000D02*
X151130000Y-103378000D01*
X151130000Y-103378000D02*
X152019000Y-103378000D01*
X151130000Y-97282000D02*
X148717000Y-97282000D01*
X148717000Y-97282000D02*
X147701000Y-97282000D01*
X146812000Y-99568000D02*
X146812000Y-99314000D01*
X146812000Y-101092000D02*
X146812000Y-101346000D01*
X152908000Y-99568000D02*
X152908000Y-99314000D01*
X152908000Y-101092000D02*
X152908000Y-101346000D01*
X151610000Y-100330000D02*
G75*
G03X151610000Y-100330000I-1750000J0D01*
G01*
D10*
X153960000Y-103930000D02*
G75*
G03X153960000Y-103930000I-250000J0D01*
G01*
D13*
X157988000Y-99568000D02*
X158242000Y-99568000D01*
X157988000Y-99568000D02*
X157988000Y-101092000D01*
X158242000Y-101092000D02*
X157988000Y-101092000D01*
X164592000Y-101092000D02*
X164338000Y-101092000D01*
X164592000Y-101092000D02*
X164592000Y-99568000D01*
X164338000Y-99568000D02*
X164592000Y-99568000D01*
D14*
X162560000Y-103378000D02*
X162560000Y-103124000D01*
X160020000Y-103124000D02*
X162560000Y-103124000D01*
X160020000Y-103124000D02*
X160020000Y-103378000D01*
X160147000Y-97536000D02*
X162560000Y-97536000D01*
X160147000Y-97536000D02*
X160147000Y-97282000D01*
X162560000Y-97536000D02*
X162560000Y-97282000D01*
D13*
X163449000Y-97282000D02*
X162560000Y-97282000D01*
X159131000Y-103378000D02*
X160020000Y-103378000D01*
X160020000Y-103378000D02*
X162560000Y-103378000D01*
X162560000Y-103378000D02*
X163449000Y-103378000D01*
X162560000Y-97282000D02*
X160147000Y-97282000D01*
X160147000Y-97282000D02*
X159131000Y-97282000D01*
X158242000Y-99568000D02*
X158242000Y-99314000D01*
X158242000Y-101092000D02*
X158242000Y-101346000D01*
X164338000Y-99568000D02*
X164338000Y-99314000D01*
X164338000Y-101092000D02*
X164338000Y-101346000D01*
X163040000Y-100330000D02*
G75*
G03X163040000Y-100330000I-1750000J0D01*
G01*
D10*
X165390000Y-103930000D02*
G75*
G03X165390000Y-103930000I-250000J0D01*
G01*
D12*
X133310000Y-85010000D02*
X143550000Y-85010000D01*
X133310000Y-89651000D02*
X143550000Y-89651000D01*
X133310000Y-85010000D02*
X133310000Y-89651000D01*
X143550000Y-85010000D02*
X143550000Y-89651000D01*
X133310000Y-86520000D02*
X143550000Y-86520000D01*
X136580000Y-85010000D02*
X136580000Y-86520000D01*
X140281000Y-85010000D02*
X140281000Y-86520000D01*
X147610000Y-75190000D02*
X152030000Y-75190000D01*
X147610000Y-77210000D02*
X152030000Y-77210000D01*
X147610000Y-75190000D02*
X147610000Y-75204000D01*
X147610000Y-77196000D02*
X147610000Y-77210000D01*
X152030000Y-75190000D02*
X152030000Y-75204000D01*
X152030000Y-77196000D02*
X152030000Y-77210000D01*
X157420000Y-90230000D02*
X160080000Y-90230000D01*
X157420000Y-77470000D02*
X157420000Y-90230000D01*
X160080000Y-77470000D02*
X160080000Y-90230000D01*
X157420000Y-77470000D02*
X160080000Y-77470000D01*
X157420000Y-76200000D02*
X157420000Y-74870000D01*
X157420000Y-74870000D02*
X158750000Y-74870000D01*
X161230000Y-90230000D02*
X163890000Y-90230000D01*
X161230000Y-77470000D02*
X161230000Y-90230000D01*
X163890000Y-77470000D02*
X163890000Y-90230000D01*
X161230000Y-77470000D02*
X163890000Y-77470000D01*
X161230000Y-76200000D02*
X161230000Y-74870000D01*
X161230000Y-74870000D02*
X162560000Y-74870000D01*
D15*
X154027143Y-82696666D02*
X154074762Y-82744285D01*
X154122381Y-82887142D01*
X154122381Y-82982380D01*
X154074762Y-83125238D01*
X153979524Y-83220476D01*
X153884286Y-83268095D01*
X153693810Y-83315714D01*
X153550952Y-83315714D01*
X153360476Y-83268095D01*
X153265238Y-83220476D01*
X153170000Y-83125238D01*
X153122381Y-82982380D01*
X153122381Y-82887142D01*
X153170000Y-82744285D01*
X153217619Y-82696666D01*
X153217619Y-82315714D02*
X153170000Y-82268095D01*
X153122381Y-82172857D01*
X153122381Y-81934761D01*
X153170000Y-81839523D01*
X153217619Y-81791904D01*
X153312857Y-81744285D01*
X153408095Y-81744285D01*
X153550952Y-81791904D01*
X154122381Y-82363333D01*
X154122381Y-81744285D01*
X132575715Y-82307143D02*
X132528096Y-82354762D01*
X132385239Y-82402381D01*
X132290001Y-82402381D01*
X132147143Y-82354762D01*
X132051905Y-82259524D01*
X132004286Y-82164286D01*
X131956667Y-81973810D01*
X131956667Y-81830952D01*
X132004286Y-81640476D01*
X132051905Y-81545238D01*
X132147143Y-81450000D01*
X132290001Y-81402381D01*
X132385239Y-81402381D01*
X132528096Y-81450000D01*
X132575715Y-81497619D01*
X133194762Y-81402381D02*
X133385239Y-81402381D01*
X133480477Y-81450000D01*
X133575715Y-81545238D01*
X133623334Y-81735714D01*
X133623334Y-82069048D01*
X133575715Y-82259524D01*
X133480477Y-82354762D01*
X133385239Y-82402381D01*
X133194762Y-82402381D01*
X133099524Y-82354762D01*
X133004286Y-82259524D01*
X132956667Y-82069048D01*
X132956667Y-81735714D01*
X133004286Y-81545238D01*
X133099524Y-81450000D01*
X133194762Y-81402381D01*
X134051905Y-82402381D02*
X134051905Y-81402381D01*
X134623334Y-82402381D01*
X134623334Y-81402381D01*
X135623334Y-82402381D02*
X135051905Y-82402381D01*
X135337619Y-82402381D02*
X135337619Y-81402381D01*
X135242381Y-81545238D01*
X135147143Y-81640476D01*
X135051905Y-81688095D01*
X137691905Y-92102381D02*
X137691905Y-91102381D01*
X138072858Y-91102381D01*
X138168096Y-91150000D01*
X138215715Y-91197619D01*
X138263334Y-91292857D01*
X138263334Y-91435714D01*
X138215715Y-91530952D01*
X138168096Y-91578571D01*
X138072858Y-91626190D01*
X137691905Y-91626190D01*
X138596667Y-91102381D02*
X139215715Y-91102381D01*
X138882381Y-91483333D01*
X139025239Y-91483333D01*
X139120477Y-91530952D01*
X139168096Y-91578571D01*
X139215715Y-91673810D01*
X139215715Y-91911905D01*
X139168096Y-92007143D01*
X139120477Y-92054762D01*
X139025239Y-92102381D01*
X138739524Y-92102381D01*
X138644286Y-92054762D01*
X138596667Y-92007143D01*
X149693334Y-91662381D02*
X149360000Y-91186190D01*
X149121905Y-91662381D02*
X149121905Y-90662381D01*
X149502858Y-90662381D01*
X149598096Y-90710000D01*
X149645715Y-90757619D01*
X149693334Y-90852857D01*
X149693334Y-90995714D01*
X149645715Y-91090952D01*
X149598096Y-91138571D01*
X149502858Y-91186190D01*
X149121905Y-91186190D01*
X150645715Y-91662381D02*
X150074286Y-91662381D01*
X150360000Y-91662381D02*
X150360000Y-90662381D01*
X150264762Y-90805238D01*
X150169524Y-90900476D01*
X150074286Y-90948095D01*
X161123334Y-96742381D02*
X160790000Y-96266190D01*
X160551905Y-96742381D02*
X160551905Y-95742381D01*
X160932858Y-95742381D01*
X161028096Y-95790000D01*
X161075715Y-95837619D01*
X161123334Y-95932857D01*
X161123334Y-96075714D01*
X161075715Y-96170952D01*
X161028096Y-96218571D01*
X160932858Y-96266190D01*
X160551905Y-96266190D01*
X161504286Y-95837619D02*
X161551905Y-95790000D01*
X161647143Y-95742381D01*
X161885239Y-95742381D01*
X161980477Y-95790000D01*
X162028096Y-95837619D01*
X162075715Y-95932857D01*
X162075715Y-96028095D01*
X162028096Y-96170952D01*
X161456667Y-96742381D01*
X162075715Y-96742381D01*
X149693334Y-96742381D02*
X149360000Y-96266190D01*
X149121905Y-96742381D02*
X149121905Y-95742381D01*
X149502858Y-95742381D01*
X149598096Y-95790000D01*
X149645715Y-95837619D01*
X149693334Y-95932857D01*
X149693334Y-96075714D01*
X149645715Y-96170952D01*
X149598096Y-96218571D01*
X149502858Y-96266190D01*
X149121905Y-96266190D01*
X150026667Y-95742381D02*
X150645715Y-95742381D01*
X150312381Y-96123333D01*
X150455239Y-96123333D01*
X150550477Y-96170952D01*
X150598096Y-96218571D01*
X150645715Y-96313810D01*
X150645715Y-96551905D01*
X150598096Y-96647143D01*
X150550477Y-96694762D01*
X150455239Y-96742381D01*
X150169524Y-96742381D01*
X150074286Y-96694762D01*
X150026667Y-96647143D01*
X151256879Y-105555699D02*
X151399816Y-105603344D01*
X151638045Y-105603344D01*
X151733336Y-105555699D01*
X151780982Y-105508053D01*
X151828627Y-105412761D01*
X151828627Y-105317470D01*
X151780982Y-105222179D01*
X151733336Y-105174533D01*
X151638045Y-105126887D01*
X151447462Y-105079241D01*
X151352170Y-105031596D01*
X151304525Y-104983950D01*
X151256879Y-104888659D01*
X151256879Y-104793367D01*
X151304525Y-104698076D01*
X151352170Y-104650430D01*
X151447462Y-104602784D01*
X151685690Y-104602784D01*
X151828627Y-104650430D01*
X152781541Y-105603344D02*
X152209793Y-105603344D01*
X152495667Y-105603344D02*
X152495667Y-104602784D01*
X152400376Y-104745721D01*
X152305084Y-104841013D01*
X152209793Y-104888659D01*
X162686879Y-105555699D02*
X162829816Y-105603344D01*
X163068045Y-105603344D01*
X163163336Y-105555699D01*
X163210982Y-105508053D01*
X163258627Y-105412761D01*
X163258627Y-105317470D01*
X163210982Y-105222179D01*
X163163336Y-105174533D01*
X163068045Y-105126887D01*
X162877462Y-105079241D01*
X162782170Y-105031596D01*
X162734525Y-104983950D01*
X162686879Y-104888659D01*
X162686879Y-104793367D01*
X162734525Y-104698076D01*
X162782170Y-104650430D01*
X162877462Y-104602784D01*
X163115690Y-104602784D01*
X163258627Y-104650430D01*
X163639793Y-104698076D02*
X163687439Y-104650430D01*
X163782730Y-104602784D01*
X164020959Y-104602784D01*
X164116250Y-104650430D01*
X164163896Y-104698076D01*
X164211541Y-104793367D01*
X164211541Y-104888659D01*
X164163896Y-105031596D01*
X163592147Y-105603344D01*
X164211541Y-105603344D01*
X137668095Y-83462381D02*
X137668095Y-84271905D01*
X137715714Y-84367143D01*
X137763333Y-84414762D01*
X137858571Y-84462381D01*
X138049048Y-84462381D01*
X138144286Y-84414762D01*
X138191905Y-84367143D01*
X138239524Y-84271905D01*
X138239524Y-83462381D01*
X139239524Y-84462381D02*
X138668095Y-84462381D01*
X138953809Y-84462381D02*
X138953809Y-83462381D01*
X138858571Y-83605238D01*
X138763333Y-83700476D01*
X138668095Y-83748095D01*
X149653334Y-74297143D02*
X149605715Y-74344762D01*
X149462858Y-74392381D01*
X149367620Y-74392381D01*
X149224762Y-74344762D01*
X149129524Y-74249524D01*
X149081905Y-74154286D01*
X149034286Y-73963810D01*
X149034286Y-73820952D01*
X149081905Y-73630476D01*
X149129524Y-73535238D01*
X149224762Y-73440000D01*
X149367620Y-73392381D01*
X149462858Y-73392381D01*
X149605715Y-73440000D01*
X149653334Y-73487619D01*
X150605715Y-74392381D02*
X150034286Y-74392381D01*
X150320000Y-74392381D02*
X150320000Y-73392381D01*
X150224762Y-73535238D01*
X150129524Y-73630476D01*
X150034286Y-73678095D01*
X158011905Y-74322381D02*
X158011905Y-73322381D01*
X158392858Y-73322381D01*
X158488096Y-73370000D01*
X158535715Y-73417619D01*
X158583334Y-73512857D01*
X158583334Y-73655714D01*
X158535715Y-73750952D01*
X158488096Y-73798571D01*
X158392858Y-73846190D01*
X158011905Y-73846190D01*
X159535715Y-74322381D02*
X158964286Y-74322381D01*
X159250000Y-74322381D02*
X159250000Y-73322381D01*
X159154762Y-73465238D01*
X159059524Y-73560476D01*
X158964286Y-73608095D01*
X161821905Y-74322381D02*
X161821905Y-73322381D01*
X162202858Y-73322381D01*
X162298096Y-73370000D01*
X162345715Y-73417619D01*
X162393334Y-73512857D01*
X162393334Y-73655714D01*
X162345715Y-73750952D01*
X162298096Y-73798571D01*
X162202858Y-73846190D01*
X161821905Y-73846190D01*
X162774286Y-73417619D02*
X162821905Y-73370000D01*
X162917143Y-73322381D01*
X163155239Y-73322381D01*
X163250477Y-73370000D01*
X163298096Y-73417619D01*
X163345715Y-73512857D01*
X163345715Y-73608095D01*
X163298096Y-73750952D01*
X162726667Y-74322381D01*
X163345715Y-74322381D01*
M02*
