G04 #@! TF.FileFunction,Copper,L2,Bot,Signal*
%FSLAX46Y46*%
G04 Gerber Fmt 4.6, Leading zero omitted, Abs format (unit mm)*
G04 Created by KiCad (PCBNEW 4.0.5+dfsg1-4~bpo8+1) date Mon Aug 28 11:49:41 2017*
%MOMM*%
%LPD*%
G01*
G04 APERTURE LIST*
%ADD10C,0.100000*%
%ADD11R,1.600000X1.600000*%
%ADD12C,1.600000*%
%ADD13R,3.500000X3.500000*%
%ADD14R,1.700000X1.700000*%
%ADD15O,1.700000X1.700000*%
%ADD16O,1.600000X1.600000*%
%ADD17R,1.800000X1.800000*%
%ADD18O,1.800000X1.800000*%
%ADD19C,0.250000*%
%ADD20C,0.254000*%
G04 APERTURE END LIST*
D10*
D11*
X148590000Y-64770000D03*
D12*
X148590000Y-67270000D03*
D13*
X140970000Y-63500000D03*
X134970000Y-63500000D03*
X137970000Y-68200000D03*
D14*
X156210000Y-81280000D03*
D15*
X156210000Y-83820000D03*
X158750000Y-81280000D03*
X158750000Y-83820000D03*
X161290000Y-81280000D03*
X161290000Y-83820000D03*
X163830000Y-81280000D03*
X163830000Y-83820000D03*
D12*
X156210000Y-72390000D03*
D16*
X163830000Y-72390000D03*
D12*
X176530000Y-72390000D03*
D16*
X168910000Y-72390000D03*
D12*
X143510000Y-72390000D03*
D16*
X151130000Y-72390000D03*
D12*
X150570000Y-82260000D03*
X150570000Y-77760000D03*
X144070000Y-82260000D03*
X144070000Y-77760000D03*
X175970000Y-82260000D03*
X175970000Y-77760000D03*
X169470000Y-82260000D03*
X169470000Y-77760000D03*
D17*
X132080000Y-74930000D03*
D18*
X134620000Y-74930000D03*
X137160000Y-74930000D03*
D12*
X146050000Y-59690000D03*
X151050000Y-59690000D03*
D14*
X160020000Y-60960000D03*
D15*
X162560000Y-60960000D03*
X165100000Y-60960000D03*
X167640000Y-60960000D03*
X170180000Y-60960000D03*
X172720000Y-60960000D03*
D14*
X160020000Y-64770000D03*
D15*
X162560000Y-64770000D03*
X165100000Y-64770000D03*
X167640000Y-64770000D03*
X170180000Y-64770000D03*
X172720000Y-64770000D03*
D19*
X163830000Y-81280000D02*
X168490000Y-81280000D01*
X168490000Y-81280000D02*
X169470000Y-82260000D01*
X172720000Y-64770000D02*
X175260000Y-64770000D01*
X172720000Y-79010000D02*
X169470000Y-82260000D01*
X172720000Y-76200000D02*
X172720000Y-79010000D01*
X173990000Y-74930000D02*
X172720000Y-76200000D01*
X177800000Y-74930000D02*
X173990000Y-74930000D01*
X179070000Y-73660000D02*
X177800000Y-74930000D01*
X179070000Y-68580000D02*
X179070000Y-73660000D01*
X175260000Y-64770000D02*
X179070000Y-68580000D01*
X172720000Y-60960000D02*
X172720000Y-64770000D01*
X151050000Y-59690000D02*
X151130000Y-59690000D01*
X151130000Y-59690000D02*
X152400000Y-58420000D01*
X172720000Y-59690000D02*
X172720000Y-60960000D01*
X171450000Y-58420000D02*
X172720000Y-59690000D01*
X152400000Y-58420000D02*
X171450000Y-58420000D01*
X139700000Y-78740000D02*
X143510000Y-74930000D01*
X148590000Y-72390000D02*
X148590000Y-67270000D01*
X146050000Y-74930000D02*
X148590000Y-72390000D01*
X143510000Y-74930000D02*
X146050000Y-74930000D01*
X132080000Y-74930000D02*
X132080000Y-76200000D01*
X140550000Y-78740000D02*
X144070000Y-82260000D01*
X134620000Y-78740000D02*
X139700000Y-78740000D01*
X139700000Y-78740000D02*
X140550000Y-78740000D01*
X132080000Y-76200000D02*
X134620000Y-78740000D01*
X134970000Y-63500000D02*
X134970000Y-63150000D01*
X134970000Y-63150000D02*
X138430000Y-59690000D01*
X148510000Y-62230000D02*
X151050000Y-59690000D01*
X144780000Y-62230000D02*
X148510000Y-62230000D01*
X142240000Y-59690000D02*
X144780000Y-62230000D01*
X138430000Y-59690000D02*
X142240000Y-59690000D01*
X132080000Y-74930000D02*
X132080000Y-66390000D01*
X132080000Y-66390000D02*
X134970000Y-63500000D01*
X156210000Y-83820000D02*
X156210000Y-85090000D01*
X161290000Y-85090000D02*
X161290000Y-83820000D01*
X160020000Y-86360000D02*
X161290000Y-85090000D01*
X157480000Y-86360000D02*
X160020000Y-86360000D01*
X156210000Y-85090000D02*
X157480000Y-86360000D01*
X156210000Y-72390000D02*
X156210000Y-73660000D01*
X154940000Y-83820000D02*
X156210000Y-83820000D01*
X153670000Y-82550000D02*
X154940000Y-83820000D01*
X153670000Y-76200000D02*
X153670000Y-82550000D01*
X156210000Y-73660000D02*
X153670000Y-76200000D01*
X160020000Y-66040000D02*
X160020000Y-67310000D01*
X172720000Y-68580000D02*
X176530000Y-72390000D01*
X161290000Y-68580000D02*
X172720000Y-68580000D01*
X160020000Y-67310000D02*
X161290000Y-68580000D01*
X160020000Y-64770000D02*
X160020000Y-66040000D01*
X160020000Y-66040000D02*
X160020000Y-68580000D01*
X160020000Y-68580000D02*
X156210000Y-72390000D01*
X160020000Y-60960000D02*
X160020000Y-64770000D01*
X148590000Y-64770000D02*
X156210000Y-64770000D01*
X156210000Y-64770000D02*
X160020000Y-60960000D01*
X143510000Y-72390000D02*
X143510000Y-68580000D01*
X147320000Y-64770000D02*
X148590000Y-64770000D01*
X143510000Y-68580000D02*
X147320000Y-64770000D01*
X134620000Y-74930000D02*
X134620000Y-73660000D01*
X135890000Y-72390000D02*
X143510000Y-72390000D01*
X134620000Y-73660000D02*
X135890000Y-72390000D01*
D20*
G36*
X180900000Y-88190000D02*
X125170000Y-88190000D01*
X125170000Y-83267745D01*
X143241861Y-83267745D01*
X143315995Y-83513864D01*
X143853223Y-83706965D01*
X144423454Y-83679778D01*
X144824005Y-83513864D01*
X144898139Y-83267745D01*
X144070000Y-82439605D01*
X143241861Y-83267745D01*
X125170000Y-83267745D01*
X125170000Y-82043223D01*
X142623035Y-82043223D01*
X142650222Y-82613454D01*
X142816136Y-83014005D01*
X143062255Y-83088139D01*
X143890395Y-82260000D01*
X144249605Y-82260000D01*
X145077745Y-83088139D01*
X145323864Y-83014005D01*
X145492735Y-82544187D01*
X149134752Y-82544187D01*
X149352757Y-83071800D01*
X149756077Y-83475824D01*
X150283309Y-83694750D01*
X150854187Y-83695248D01*
X151381800Y-83477243D01*
X151785824Y-83073923D01*
X152004750Y-82546691D01*
X152005248Y-81975813D01*
X151787243Y-81448200D01*
X151383923Y-81044176D01*
X150856691Y-80825250D01*
X150285813Y-80824752D01*
X149758200Y-81042757D01*
X149354176Y-81446077D01*
X149135250Y-81973309D01*
X149134752Y-82544187D01*
X145492735Y-82544187D01*
X145516965Y-82476777D01*
X145489778Y-81906546D01*
X145323864Y-81505995D01*
X145077745Y-81431861D01*
X144249605Y-82260000D01*
X143890395Y-82260000D01*
X143062255Y-81431861D01*
X142816136Y-81505995D01*
X142623035Y-82043223D01*
X125170000Y-82043223D01*
X125170000Y-81252255D01*
X143241861Y-81252255D01*
X144070000Y-82080395D01*
X144898139Y-81252255D01*
X144824005Y-81006136D01*
X144286777Y-80813035D01*
X143716546Y-80840222D01*
X143315995Y-81006136D01*
X143241861Y-81252255D01*
X125170000Y-81252255D01*
X125170000Y-78044187D01*
X142634752Y-78044187D01*
X142852757Y-78571800D01*
X143256077Y-78975824D01*
X143783309Y-79194750D01*
X144354187Y-79195248D01*
X144881800Y-78977243D01*
X145285824Y-78573923D01*
X145504750Y-78046691D01*
X145504752Y-78044187D01*
X149134752Y-78044187D01*
X149352757Y-78571800D01*
X149756077Y-78975824D01*
X150283309Y-79194750D01*
X150854187Y-79195248D01*
X151381800Y-78977243D01*
X151785824Y-78573923D01*
X152004750Y-78046691D01*
X152005248Y-77475813D01*
X151787243Y-76948200D01*
X151383923Y-76544176D01*
X150856691Y-76325250D01*
X150285813Y-76324752D01*
X149758200Y-76542757D01*
X149354176Y-76946077D01*
X149135250Y-77473309D01*
X149134752Y-78044187D01*
X145504752Y-78044187D01*
X145505248Y-77475813D01*
X145287243Y-76948200D01*
X144883923Y-76544176D01*
X144356691Y-76325250D01*
X143785813Y-76324752D01*
X143258200Y-76542757D01*
X142854176Y-76946077D01*
X142635250Y-77473309D01*
X142634752Y-78044187D01*
X125170000Y-78044187D01*
X125170000Y-75215750D01*
X130545000Y-75215750D01*
X130545000Y-75956310D01*
X130641673Y-76189699D01*
X130820302Y-76368327D01*
X131053691Y-76465000D01*
X131794250Y-76465000D01*
X131953000Y-76306250D01*
X131953000Y-75057000D01*
X130703750Y-75057000D01*
X130545000Y-75215750D01*
X125170000Y-75215750D01*
X125170000Y-73903690D01*
X130545000Y-73903690D01*
X130545000Y-74644250D01*
X130703750Y-74803000D01*
X131953000Y-74803000D01*
X131953000Y-73553750D01*
X132207000Y-73553750D01*
X132207000Y-74803000D01*
X132227000Y-74803000D01*
X132227000Y-75057000D01*
X132207000Y-75057000D01*
X132207000Y-76306250D01*
X132365750Y-76465000D01*
X133106309Y-76465000D01*
X133339698Y-76368327D01*
X133518327Y-76189699D01*
X133571878Y-76060417D01*
X134002509Y-76348155D01*
X134589928Y-76465000D01*
X134650072Y-76465000D01*
X135237491Y-76348155D01*
X135735481Y-76015409D01*
X135890000Y-75784155D01*
X136044519Y-76015409D01*
X136542509Y-76348155D01*
X137129928Y-76465000D01*
X137190072Y-76465000D01*
X137777491Y-76348155D01*
X138275481Y-76015409D01*
X138608227Y-75517419D01*
X138725072Y-74930000D01*
X138608227Y-74342581D01*
X138275481Y-73844591D01*
X137777491Y-73511845D01*
X137190072Y-73395000D01*
X137129928Y-73395000D01*
X136542509Y-73511845D01*
X136044519Y-73844591D01*
X135890000Y-74075845D01*
X135735481Y-73844591D01*
X135600441Y-73754361D01*
X136204802Y-73150000D01*
X142271354Y-73150000D01*
X142292757Y-73201800D01*
X142696077Y-73605824D01*
X143223309Y-73824750D01*
X143794187Y-73825248D01*
X144321800Y-73607243D01*
X144725824Y-73203923D01*
X144944750Y-72676691D01*
X144945000Y-72390000D01*
X149666887Y-72390000D01*
X149776120Y-72939151D01*
X150087189Y-73404698D01*
X150552736Y-73715767D01*
X151101887Y-73825000D01*
X151158113Y-73825000D01*
X151707264Y-73715767D01*
X152172811Y-73404698D01*
X152483880Y-72939151D01*
X152593113Y-72390000D01*
X152483880Y-71840849D01*
X152172811Y-71375302D01*
X151707264Y-71064233D01*
X151158113Y-70955000D01*
X151101887Y-70955000D01*
X150552736Y-71064233D01*
X150087189Y-71375302D01*
X149776120Y-71840849D01*
X149666887Y-72390000D01*
X144945000Y-72390000D01*
X144945248Y-72105813D01*
X144727243Y-71578200D01*
X144323923Y-71174176D01*
X144270000Y-71151785D01*
X144270000Y-68894802D01*
X144887057Y-68277745D01*
X147761861Y-68277745D01*
X147835995Y-68523864D01*
X148373223Y-68716965D01*
X148943454Y-68689778D01*
X149344005Y-68523864D01*
X149418139Y-68277745D01*
X148590000Y-67449605D01*
X147761861Y-68277745D01*
X144887057Y-68277745D01*
X146111579Y-67053223D01*
X147143035Y-67053223D01*
X147170222Y-67623454D01*
X147336136Y-68024005D01*
X147582255Y-68098139D01*
X148410395Y-67270000D01*
X148769605Y-67270000D01*
X149597745Y-68098139D01*
X149843864Y-68024005D01*
X150036965Y-67486777D01*
X150009778Y-66916546D01*
X149843864Y-66515995D01*
X149597745Y-66441861D01*
X148769605Y-67270000D01*
X148410395Y-67270000D01*
X147582255Y-66441861D01*
X147336136Y-66515995D01*
X147143035Y-67053223D01*
X146111579Y-67053223D01*
X147254436Y-65910366D01*
X147325910Y-66021441D01*
X147538110Y-66166431D01*
X147776201Y-66214646D01*
X147761861Y-66262255D01*
X148590000Y-67090395D01*
X149418139Y-66262255D01*
X149403855Y-66214833D01*
X149625317Y-66173162D01*
X149841441Y-66034090D01*
X149986431Y-65821890D01*
X150037440Y-65570000D01*
X150037440Y-65530000D01*
X156210000Y-65530000D01*
X156500839Y-65472148D01*
X156747401Y-65307401D01*
X159260000Y-62794802D01*
X159260000Y-63272560D01*
X159170000Y-63272560D01*
X158934683Y-63316838D01*
X158718559Y-63455910D01*
X158573569Y-63668110D01*
X158522560Y-63920000D01*
X158522560Y-65620000D01*
X158566838Y-65855317D01*
X158705910Y-66071441D01*
X158918110Y-66216431D01*
X159170000Y-66267440D01*
X159260000Y-66267440D01*
X159260000Y-68265198D01*
X156548454Y-70976744D01*
X156496691Y-70955250D01*
X155925813Y-70954752D01*
X155398200Y-71172757D01*
X154994176Y-71576077D01*
X154775250Y-72103309D01*
X154774752Y-72674187D01*
X154992757Y-73201800D01*
X155292816Y-73502382D01*
X153132599Y-75662599D01*
X152967852Y-75909161D01*
X152910000Y-76200000D01*
X152910000Y-82550000D01*
X152967852Y-82840839D01*
X153132599Y-83087401D01*
X154402599Y-84357401D01*
X154649160Y-84522148D01*
X154940000Y-84580000D01*
X154946699Y-84580000D01*
X155159946Y-84899147D01*
X155450678Y-85093407D01*
X155507852Y-85380839D01*
X155672599Y-85627401D01*
X156942599Y-86897401D01*
X157189160Y-87062148D01*
X157480000Y-87120000D01*
X160020000Y-87120000D01*
X160310839Y-87062148D01*
X160557401Y-86897401D01*
X161827401Y-85627401D01*
X161992148Y-85380840D01*
X162049322Y-85093407D01*
X162340054Y-84899147D01*
X162560000Y-84569974D01*
X162779946Y-84899147D01*
X163261715Y-85221054D01*
X163830000Y-85334093D01*
X164398285Y-85221054D01*
X164880054Y-84899147D01*
X165201961Y-84417378D01*
X165315000Y-83849093D01*
X165315000Y-83790907D01*
X165210937Y-83267745D01*
X168641861Y-83267745D01*
X168715995Y-83513864D01*
X169253223Y-83706965D01*
X169823454Y-83679778D01*
X170224005Y-83513864D01*
X170298139Y-83267745D01*
X169470000Y-82439605D01*
X168641861Y-83267745D01*
X165210937Y-83267745D01*
X165201961Y-83222622D01*
X164880054Y-82740853D01*
X164596899Y-82551655D01*
X164596924Y-82551645D01*
X165025183Y-82161358D01*
X165080662Y-82043223D01*
X168023035Y-82043223D01*
X168050222Y-82613454D01*
X168216136Y-83014005D01*
X168462255Y-83088139D01*
X169290395Y-82260000D01*
X169649605Y-82260000D01*
X170477745Y-83088139D01*
X170723864Y-83014005D01*
X170892735Y-82544187D01*
X174534752Y-82544187D01*
X174752757Y-83071800D01*
X175156077Y-83475824D01*
X175683309Y-83694750D01*
X176254187Y-83695248D01*
X176781800Y-83477243D01*
X177185824Y-83073923D01*
X177404750Y-82546691D01*
X177405248Y-81975813D01*
X177187243Y-81448200D01*
X176783923Y-81044176D01*
X176256691Y-80825250D01*
X175685813Y-80824752D01*
X175158200Y-81042757D01*
X174754176Y-81446077D01*
X174535250Y-81973309D01*
X174534752Y-82544187D01*
X170892735Y-82544187D01*
X170916965Y-82476777D01*
X170889778Y-81906546D01*
X170723864Y-81505995D01*
X170477745Y-81431861D01*
X169649605Y-82260000D01*
X169290395Y-82260000D01*
X168462255Y-81431861D01*
X168216136Y-81505995D01*
X168023035Y-82043223D01*
X165080662Y-82043223D01*
X165271486Y-81636892D01*
X165150819Y-81407000D01*
X163957000Y-81407000D01*
X163957000Y-81427000D01*
X163703000Y-81427000D01*
X163703000Y-81407000D01*
X163683000Y-81407000D01*
X163683000Y-81252255D01*
X168641861Y-81252255D01*
X169470000Y-82080395D01*
X170298139Y-81252255D01*
X170224005Y-81006136D01*
X169686777Y-80813035D01*
X169116546Y-80840222D01*
X168715995Y-81006136D01*
X168641861Y-81252255D01*
X163683000Y-81252255D01*
X163683000Y-81153000D01*
X163703000Y-81153000D01*
X163703000Y-79959845D01*
X163957000Y-79959845D01*
X163957000Y-81153000D01*
X165150819Y-81153000D01*
X165271486Y-80923108D01*
X165025183Y-80398642D01*
X164596924Y-80008355D01*
X164186890Y-79838524D01*
X163957000Y-79959845D01*
X163703000Y-79959845D01*
X163473110Y-79838524D01*
X163063076Y-80008355D01*
X162634817Y-80398642D01*
X162567702Y-80541553D01*
X162340054Y-80200853D01*
X161858285Y-79878946D01*
X161290000Y-79765907D01*
X160721715Y-79878946D01*
X160239946Y-80200853D01*
X160020000Y-80530026D01*
X159800054Y-80200853D01*
X159318285Y-79878946D01*
X158750000Y-79765907D01*
X158181715Y-79878946D01*
X157699946Y-80200853D01*
X157672150Y-80242452D01*
X157663162Y-80194683D01*
X157524090Y-79978559D01*
X157311890Y-79833569D01*
X157060000Y-79782560D01*
X155360000Y-79782560D01*
X155124683Y-79826838D01*
X154908559Y-79965910D01*
X154763569Y-80178110D01*
X154712560Y-80430000D01*
X154712560Y-82130000D01*
X154756838Y-82365317D01*
X154895910Y-82581441D01*
X155108110Y-82726431D01*
X155164454Y-82737841D01*
X155159946Y-82740853D01*
X155070108Y-82875306D01*
X154430000Y-82235198D01*
X154430000Y-78044187D01*
X168034752Y-78044187D01*
X168252757Y-78571800D01*
X168656077Y-78975824D01*
X169183309Y-79194750D01*
X169754187Y-79195248D01*
X170281800Y-78977243D01*
X170685824Y-78573923D01*
X170904750Y-78046691D01*
X170904752Y-78044187D01*
X174534752Y-78044187D01*
X174752757Y-78571800D01*
X175156077Y-78975824D01*
X175683309Y-79194750D01*
X176254187Y-79195248D01*
X176781800Y-78977243D01*
X177185824Y-78573923D01*
X177404750Y-78046691D01*
X177405248Y-77475813D01*
X177187243Y-76948200D01*
X176783923Y-76544176D01*
X176256691Y-76325250D01*
X175685813Y-76324752D01*
X175158200Y-76542757D01*
X174754176Y-76946077D01*
X174535250Y-77473309D01*
X174534752Y-78044187D01*
X170904752Y-78044187D01*
X170905248Y-77475813D01*
X170687243Y-76948200D01*
X170283923Y-76544176D01*
X169756691Y-76325250D01*
X169185813Y-76324752D01*
X168658200Y-76542757D01*
X168254176Y-76946077D01*
X168035250Y-77473309D01*
X168034752Y-78044187D01*
X154430000Y-78044187D01*
X154430000Y-76514802D01*
X156747401Y-74197401D01*
X156912148Y-73950840D01*
X156937229Y-73824750D01*
X156970000Y-73660000D01*
X156970000Y-73628646D01*
X157021800Y-73607243D01*
X157425824Y-73203923D01*
X157644750Y-72676691D01*
X157645000Y-72390000D01*
X162366887Y-72390000D01*
X162476120Y-72939151D01*
X162787189Y-73404698D01*
X163252736Y-73715767D01*
X163801887Y-73825000D01*
X163858113Y-73825000D01*
X164407264Y-73715767D01*
X164872811Y-73404698D01*
X165183880Y-72939151D01*
X165293113Y-72390000D01*
X167446887Y-72390000D01*
X167556120Y-72939151D01*
X167867189Y-73404698D01*
X168332736Y-73715767D01*
X168881887Y-73825000D01*
X168938113Y-73825000D01*
X169487264Y-73715767D01*
X169952811Y-73404698D01*
X170263880Y-72939151D01*
X170373113Y-72390000D01*
X170263880Y-71840849D01*
X169952811Y-71375302D01*
X169487264Y-71064233D01*
X168938113Y-70955000D01*
X168881887Y-70955000D01*
X168332736Y-71064233D01*
X167867189Y-71375302D01*
X167556120Y-71840849D01*
X167446887Y-72390000D01*
X165293113Y-72390000D01*
X165183880Y-71840849D01*
X164872811Y-71375302D01*
X164407264Y-71064233D01*
X163858113Y-70955000D01*
X163801887Y-70955000D01*
X163252736Y-71064233D01*
X162787189Y-71375302D01*
X162476120Y-71840849D01*
X162366887Y-72390000D01*
X157645000Y-72390000D01*
X157645248Y-72105813D01*
X157622951Y-72051851D01*
X160557401Y-69117401D01*
X160635586Y-69000388D01*
X160752599Y-69117401D01*
X160999160Y-69282148D01*
X161290000Y-69340000D01*
X172405198Y-69340000D01*
X175116744Y-72051546D01*
X175095250Y-72103309D01*
X175094752Y-72674187D01*
X175312757Y-73201800D01*
X175716077Y-73605824D01*
X176243309Y-73824750D01*
X176814187Y-73825248D01*
X177341800Y-73607243D01*
X177745824Y-73203923D01*
X177964750Y-72676691D01*
X177965248Y-72105813D01*
X177747243Y-71578200D01*
X177343923Y-71174176D01*
X176816691Y-70955250D01*
X176245813Y-70954752D01*
X176191851Y-70977049D01*
X173257401Y-68042599D01*
X173010839Y-67877852D01*
X172720000Y-67820000D01*
X161604802Y-67820000D01*
X160780000Y-66995198D01*
X160780000Y-66267440D01*
X160870000Y-66267440D01*
X161105317Y-66223162D01*
X161321441Y-66084090D01*
X161466431Y-65871890D01*
X161480086Y-65804459D01*
X161509946Y-65849147D01*
X161991715Y-66171054D01*
X162560000Y-66284093D01*
X163128285Y-66171054D01*
X163610054Y-65849147D01*
X163830000Y-65519974D01*
X164049946Y-65849147D01*
X164531715Y-66171054D01*
X165100000Y-66284093D01*
X165668285Y-66171054D01*
X166150054Y-65849147D01*
X166370000Y-65519974D01*
X166589946Y-65849147D01*
X167071715Y-66171054D01*
X167640000Y-66284093D01*
X168208285Y-66171054D01*
X168690054Y-65849147D01*
X168910000Y-65519974D01*
X169129946Y-65849147D01*
X169611715Y-66171054D01*
X170180000Y-66284093D01*
X170748285Y-66171054D01*
X171230054Y-65849147D01*
X171457702Y-65508447D01*
X171524817Y-65651358D01*
X171953076Y-66041645D01*
X172363110Y-66211476D01*
X172593000Y-66090155D01*
X172593000Y-64897000D01*
X172847000Y-64897000D01*
X172847000Y-66090155D01*
X173076890Y-66211476D01*
X173486924Y-66041645D01*
X173915183Y-65651358D01*
X174161486Y-65126892D01*
X174040819Y-64897000D01*
X172847000Y-64897000D01*
X172593000Y-64897000D01*
X172573000Y-64897000D01*
X172573000Y-64643000D01*
X172593000Y-64643000D01*
X172593000Y-63449845D01*
X172847000Y-63449845D01*
X172847000Y-64643000D01*
X174040819Y-64643000D01*
X174161486Y-64413108D01*
X173915183Y-63888642D01*
X173486924Y-63498355D01*
X173076890Y-63328524D01*
X172847000Y-63449845D01*
X172593000Y-63449845D01*
X172363110Y-63328524D01*
X171953076Y-63498355D01*
X171524817Y-63888642D01*
X171457702Y-64031553D01*
X171230054Y-63690853D01*
X170748285Y-63368946D01*
X170180000Y-63255907D01*
X169611715Y-63368946D01*
X169129946Y-63690853D01*
X168910000Y-64020026D01*
X168690054Y-63690853D01*
X168208285Y-63368946D01*
X167640000Y-63255907D01*
X167071715Y-63368946D01*
X166589946Y-63690853D01*
X166370000Y-64020026D01*
X166150054Y-63690853D01*
X165668285Y-63368946D01*
X165100000Y-63255907D01*
X164531715Y-63368946D01*
X164049946Y-63690853D01*
X163830000Y-64020026D01*
X163610054Y-63690853D01*
X163128285Y-63368946D01*
X162560000Y-63255907D01*
X161991715Y-63368946D01*
X161509946Y-63690853D01*
X161482150Y-63732452D01*
X161473162Y-63684683D01*
X161334090Y-63468559D01*
X161121890Y-63323569D01*
X160870000Y-63272560D01*
X160780000Y-63272560D01*
X160780000Y-62457440D01*
X160870000Y-62457440D01*
X161105317Y-62413162D01*
X161321441Y-62274090D01*
X161466431Y-62061890D01*
X161480086Y-61994459D01*
X161509946Y-62039147D01*
X161991715Y-62361054D01*
X162560000Y-62474093D01*
X163128285Y-62361054D01*
X163610054Y-62039147D01*
X163830000Y-61709974D01*
X164049946Y-62039147D01*
X164531715Y-62361054D01*
X165100000Y-62474093D01*
X165668285Y-62361054D01*
X166150054Y-62039147D01*
X166370000Y-61709974D01*
X166589946Y-62039147D01*
X167071715Y-62361054D01*
X167640000Y-62474093D01*
X168208285Y-62361054D01*
X168690054Y-62039147D01*
X168910000Y-61709974D01*
X169129946Y-62039147D01*
X169611715Y-62361054D01*
X170180000Y-62474093D01*
X170748285Y-62361054D01*
X171230054Y-62039147D01*
X171457702Y-61698447D01*
X171524817Y-61841358D01*
X171953076Y-62231645D01*
X172363110Y-62401476D01*
X172593000Y-62280155D01*
X172593000Y-61087000D01*
X172847000Y-61087000D01*
X172847000Y-62280155D01*
X173076890Y-62401476D01*
X173486924Y-62231645D01*
X173915183Y-61841358D01*
X174161486Y-61316892D01*
X174040819Y-61087000D01*
X172847000Y-61087000D01*
X172593000Y-61087000D01*
X172573000Y-61087000D01*
X172573000Y-60833000D01*
X172593000Y-60833000D01*
X172593000Y-59639845D01*
X172847000Y-59639845D01*
X172847000Y-60833000D01*
X174040819Y-60833000D01*
X174161486Y-60603108D01*
X173915183Y-60078642D01*
X173486924Y-59688355D01*
X173076890Y-59518524D01*
X172847000Y-59639845D01*
X172593000Y-59639845D01*
X172363110Y-59518524D01*
X171953076Y-59688355D01*
X171524817Y-60078642D01*
X171457702Y-60221553D01*
X171230054Y-59880853D01*
X170748285Y-59558946D01*
X170180000Y-59445907D01*
X169611715Y-59558946D01*
X169129946Y-59880853D01*
X168910000Y-60210026D01*
X168690054Y-59880853D01*
X168208285Y-59558946D01*
X167640000Y-59445907D01*
X167071715Y-59558946D01*
X166589946Y-59880853D01*
X166370000Y-60210026D01*
X166150054Y-59880853D01*
X165668285Y-59558946D01*
X165100000Y-59445907D01*
X164531715Y-59558946D01*
X164049946Y-59880853D01*
X163830000Y-60210026D01*
X163610054Y-59880853D01*
X163128285Y-59558946D01*
X162560000Y-59445907D01*
X161991715Y-59558946D01*
X161509946Y-59880853D01*
X161482150Y-59922452D01*
X161473162Y-59874683D01*
X161334090Y-59658559D01*
X161121890Y-59513569D01*
X160870000Y-59462560D01*
X159170000Y-59462560D01*
X158934683Y-59506838D01*
X158718559Y-59645910D01*
X158573569Y-59858110D01*
X158522560Y-60110000D01*
X158522560Y-61382638D01*
X155895198Y-64010000D01*
X150037440Y-64010000D01*
X150037440Y-63970000D01*
X149993162Y-63734683D01*
X149854090Y-63518559D01*
X149641890Y-63373569D01*
X149390000Y-63322560D01*
X147790000Y-63322560D01*
X147554683Y-63366838D01*
X147338559Y-63505910D01*
X147193569Y-63718110D01*
X147142560Y-63970000D01*
X147142560Y-64045295D01*
X147029161Y-64067852D01*
X146782599Y-64232599D01*
X142972599Y-68042599D01*
X142807852Y-68289161D01*
X142750000Y-68580000D01*
X142750000Y-71151354D01*
X142698200Y-71172757D01*
X142294176Y-71576077D01*
X142271785Y-71630000D01*
X135890000Y-71630000D01*
X135599160Y-71687852D01*
X135352599Y-71852599D01*
X134082599Y-73122599D01*
X133917852Y-73369161D01*
X133872143Y-73598953D01*
X133571878Y-73799583D01*
X133518327Y-73670301D01*
X133339698Y-73491673D01*
X133106309Y-73395000D01*
X132365750Y-73395000D01*
X132207000Y-73553750D01*
X131953000Y-73553750D01*
X131794250Y-73395000D01*
X131053691Y-73395000D01*
X130820302Y-73491673D01*
X130641673Y-73670301D01*
X130545000Y-73903690D01*
X125170000Y-73903690D01*
X125170000Y-63785750D01*
X132585000Y-63785750D01*
X132585000Y-65376310D01*
X132681673Y-65609699D01*
X132860302Y-65788327D01*
X133093691Y-65885000D01*
X134684250Y-65885000D01*
X134843000Y-65726250D01*
X134843000Y-63627000D01*
X135097000Y-63627000D01*
X135097000Y-65726250D01*
X135255750Y-65885000D01*
X135925378Y-65885000D01*
X135768559Y-65985910D01*
X135623569Y-66198110D01*
X135572560Y-66450000D01*
X135572560Y-69950000D01*
X135616838Y-70185317D01*
X135755910Y-70401441D01*
X135968110Y-70546431D01*
X136220000Y-70597440D01*
X139720000Y-70597440D01*
X139955317Y-70553162D01*
X140171441Y-70414090D01*
X140316431Y-70201890D01*
X140367440Y-69950000D01*
X140367440Y-66450000D01*
X140323162Y-66214683D01*
X140184090Y-65998559D01*
X140036097Y-65897440D01*
X142720000Y-65897440D01*
X142955317Y-65853162D01*
X143171441Y-65714090D01*
X143316431Y-65501890D01*
X143367440Y-65250000D01*
X143367440Y-61750000D01*
X143323162Y-61514683D01*
X143184090Y-61298559D01*
X142971890Y-61153569D01*
X142720000Y-61102560D01*
X139220000Y-61102560D01*
X138984683Y-61146838D01*
X138768559Y-61285910D01*
X138623569Y-61498110D01*
X138572560Y-61750000D01*
X138572560Y-65250000D01*
X138616838Y-65485317D01*
X138755910Y-65701441D01*
X138903903Y-65802560D01*
X137045337Y-65802560D01*
X137079698Y-65788327D01*
X137258327Y-65609699D01*
X137355000Y-65376310D01*
X137355000Y-63785750D01*
X137196250Y-63627000D01*
X135097000Y-63627000D01*
X134843000Y-63627000D01*
X132743750Y-63627000D01*
X132585000Y-63785750D01*
X125170000Y-63785750D01*
X125170000Y-61623690D01*
X132585000Y-61623690D01*
X132585000Y-63214250D01*
X132743750Y-63373000D01*
X134843000Y-63373000D01*
X134843000Y-61273750D01*
X135097000Y-61273750D01*
X135097000Y-63373000D01*
X137196250Y-63373000D01*
X137355000Y-63214250D01*
X137355000Y-61623690D01*
X137258327Y-61390301D01*
X137079698Y-61211673D01*
X136846309Y-61115000D01*
X135255750Y-61115000D01*
X135097000Y-61273750D01*
X134843000Y-61273750D01*
X134684250Y-61115000D01*
X133093691Y-61115000D01*
X132860302Y-61211673D01*
X132681673Y-61390301D01*
X132585000Y-61623690D01*
X125170000Y-61623690D01*
X125170000Y-59974187D01*
X144614752Y-59974187D01*
X144832757Y-60501800D01*
X145236077Y-60905824D01*
X145763309Y-61124750D01*
X146334187Y-61125248D01*
X146861800Y-60907243D01*
X147071663Y-60697745D01*
X150221861Y-60697745D01*
X150295995Y-60943864D01*
X150833223Y-61136965D01*
X151403454Y-61109778D01*
X151804005Y-60943864D01*
X151878139Y-60697745D01*
X151050000Y-59869605D01*
X150221861Y-60697745D01*
X147071663Y-60697745D01*
X147265824Y-60503923D01*
X147484750Y-59976691D01*
X147485189Y-59473223D01*
X149603035Y-59473223D01*
X149630222Y-60043454D01*
X149796136Y-60444005D01*
X150042255Y-60518139D01*
X150870395Y-59690000D01*
X151229605Y-59690000D01*
X152057745Y-60518139D01*
X152303864Y-60444005D01*
X152496965Y-59906777D01*
X152469778Y-59336546D01*
X152303864Y-58935995D01*
X152057745Y-58861861D01*
X151229605Y-59690000D01*
X150870395Y-59690000D01*
X150042255Y-58861861D01*
X149796136Y-58935995D01*
X149603035Y-59473223D01*
X147485189Y-59473223D01*
X147485248Y-59405813D01*
X147267243Y-58878200D01*
X147071640Y-58682255D01*
X150221861Y-58682255D01*
X151050000Y-59510395D01*
X151878139Y-58682255D01*
X151804005Y-58436136D01*
X151266777Y-58243035D01*
X150696546Y-58270222D01*
X150295995Y-58436136D01*
X150221861Y-58682255D01*
X147071640Y-58682255D01*
X146863923Y-58474176D01*
X146336691Y-58255250D01*
X145765813Y-58254752D01*
X145238200Y-58472757D01*
X144834176Y-58876077D01*
X144615250Y-59403309D01*
X144614752Y-59974187D01*
X125170000Y-59974187D01*
X125170000Y-55320000D01*
X180900000Y-55320000D01*
X180900000Y-88190000D01*
X180900000Y-88190000D01*
G37*
X180900000Y-88190000D02*
X125170000Y-88190000D01*
X125170000Y-83267745D01*
X143241861Y-83267745D01*
X143315995Y-83513864D01*
X143853223Y-83706965D01*
X144423454Y-83679778D01*
X144824005Y-83513864D01*
X144898139Y-83267745D01*
X144070000Y-82439605D01*
X143241861Y-83267745D01*
X125170000Y-83267745D01*
X125170000Y-82043223D01*
X142623035Y-82043223D01*
X142650222Y-82613454D01*
X142816136Y-83014005D01*
X143062255Y-83088139D01*
X143890395Y-82260000D01*
X144249605Y-82260000D01*
X145077745Y-83088139D01*
X145323864Y-83014005D01*
X145492735Y-82544187D01*
X149134752Y-82544187D01*
X149352757Y-83071800D01*
X149756077Y-83475824D01*
X150283309Y-83694750D01*
X150854187Y-83695248D01*
X151381800Y-83477243D01*
X151785824Y-83073923D01*
X152004750Y-82546691D01*
X152005248Y-81975813D01*
X151787243Y-81448200D01*
X151383923Y-81044176D01*
X150856691Y-80825250D01*
X150285813Y-80824752D01*
X149758200Y-81042757D01*
X149354176Y-81446077D01*
X149135250Y-81973309D01*
X149134752Y-82544187D01*
X145492735Y-82544187D01*
X145516965Y-82476777D01*
X145489778Y-81906546D01*
X145323864Y-81505995D01*
X145077745Y-81431861D01*
X144249605Y-82260000D01*
X143890395Y-82260000D01*
X143062255Y-81431861D01*
X142816136Y-81505995D01*
X142623035Y-82043223D01*
X125170000Y-82043223D01*
X125170000Y-81252255D01*
X143241861Y-81252255D01*
X144070000Y-82080395D01*
X144898139Y-81252255D01*
X144824005Y-81006136D01*
X144286777Y-80813035D01*
X143716546Y-80840222D01*
X143315995Y-81006136D01*
X143241861Y-81252255D01*
X125170000Y-81252255D01*
X125170000Y-78044187D01*
X142634752Y-78044187D01*
X142852757Y-78571800D01*
X143256077Y-78975824D01*
X143783309Y-79194750D01*
X144354187Y-79195248D01*
X144881800Y-78977243D01*
X145285824Y-78573923D01*
X145504750Y-78046691D01*
X145504752Y-78044187D01*
X149134752Y-78044187D01*
X149352757Y-78571800D01*
X149756077Y-78975824D01*
X150283309Y-79194750D01*
X150854187Y-79195248D01*
X151381800Y-78977243D01*
X151785824Y-78573923D01*
X152004750Y-78046691D01*
X152005248Y-77475813D01*
X151787243Y-76948200D01*
X151383923Y-76544176D01*
X150856691Y-76325250D01*
X150285813Y-76324752D01*
X149758200Y-76542757D01*
X149354176Y-76946077D01*
X149135250Y-77473309D01*
X149134752Y-78044187D01*
X145504752Y-78044187D01*
X145505248Y-77475813D01*
X145287243Y-76948200D01*
X144883923Y-76544176D01*
X144356691Y-76325250D01*
X143785813Y-76324752D01*
X143258200Y-76542757D01*
X142854176Y-76946077D01*
X142635250Y-77473309D01*
X142634752Y-78044187D01*
X125170000Y-78044187D01*
X125170000Y-75215750D01*
X130545000Y-75215750D01*
X130545000Y-75956310D01*
X130641673Y-76189699D01*
X130820302Y-76368327D01*
X131053691Y-76465000D01*
X131794250Y-76465000D01*
X131953000Y-76306250D01*
X131953000Y-75057000D01*
X130703750Y-75057000D01*
X130545000Y-75215750D01*
X125170000Y-75215750D01*
X125170000Y-73903690D01*
X130545000Y-73903690D01*
X130545000Y-74644250D01*
X130703750Y-74803000D01*
X131953000Y-74803000D01*
X131953000Y-73553750D01*
X132207000Y-73553750D01*
X132207000Y-74803000D01*
X132227000Y-74803000D01*
X132227000Y-75057000D01*
X132207000Y-75057000D01*
X132207000Y-76306250D01*
X132365750Y-76465000D01*
X133106309Y-76465000D01*
X133339698Y-76368327D01*
X133518327Y-76189699D01*
X133571878Y-76060417D01*
X134002509Y-76348155D01*
X134589928Y-76465000D01*
X134650072Y-76465000D01*
X135237491Y-76348155D01*
X135735481Y-76015409D01*
X135890000Y-75784155D01*
X136044519Y-76015409D01*
X136542509Y-76348155D01*
X137129928Y-76465000D01*
X137190072Y-76465000D01*
X137777491Y-76348155D01*
X138275481Y-76015409D01*
X138608227Y-75517419D01*
X138725072Y-74930000D01*
X138608227Y-74342581D01*
X138275481Y-73844591D01*
X137777491Y-73511845D01*
X137190072Y-73395000D01*
X137129928Y-73395000D01*
X136542509Y-73511845D01*
X136044519Y-73844591D01*
X135890000Y-74075845D01*
X135735481Y-73844591D01*
X135600441Y-73754361D01*
X136204802Y-73150000D01*
X142271354Y-73150000D01*
X142292757Y-73201800D01*
X142696077Y-73605824D01*
X143223309Y-73824750D01*
X143794187Y-73825248D01*
X144321800Y-73607243D01*
X144725824Y-73203923D01*
X144944750Y-72676691D01*
X144945000Y-72390000D01*
X149666887Y-72390000D01*
X149776120Y-72939151D01*
X150087189Y-73404698D01*
X150552736Y-73715767D01*
X151101887Y-73825000D01*
X151158113Y-73825000D01*
X151707264Y-73715767D01*
X152172811Y-73404698D01*
X152483880Y-72939151D01*
X152593113Y-72390000D01*
X152483880Y-71840849D01*
X152172811Y-71375302D01*
X151707264Y-71064233D01*
X151158113Y-70955000D01*
X151101887Y-70955000D01*
X150552736Y-71064233D01*
X150087189Y-71375302D01*
X149776120Y-71840849D01*
X149666887Y-72390000D01*
X144945000Y-72390000D01*
X144945248Y-72105813D01*
X144727243Y-71578200D01*
X144323923Y-71174176D01*
X144270000Y-71151785D01*
X144270000Y-68894802D01*
X144887057Y-68277745D01*
X147761861Y-68277745D01*
X147835995Y-68523864D01*
X148373223Y-68716965D01*
X148943454Y-68689778D01*
X149344005Y-68523864D01*
X149418139Y-68277745D01*
X148590000Y-67449605D01*
X147761861Y-68277745D01*
X144887057Y-68277745D01*
X146111579Y-67053223D01*
X147143035Y-67053223D01*
X147170222Y-67623454D01*
X147336136Y-68024005D01*
X147582255Y-68098139D01*
X148410395Y-67270000D01*
X148769605Y-67270000D01*
X149597745Y-68098139D01*
X149843864Y-68024005D01*
X150036965Y-67486777D01*
X150009778Y-66916546D01*
X149843864Y-66515995D01*
X149597745Y-66441861D01*
X148769605Y-67270000D01*
X148410395Y-67270000D01*
X147582255Y-66441861D01*
X147336136Y-66515995D01*
X147143035Y-67053223D01*
X146111579Y-67053223D01*
X147254436Y-65910366D01*
X147325910Y-66021441D01*
X147538110Y-66166431D01*
X147776201Y-66214646D01*
X147761861Y-66262255D01*
X148590000Y-67090395D01*
X149418139Y-66262255D01*
X149403855Y-66214833D01*
X149625317Y-66173162D01*
X149841441Y-66034090D01*
X149986431Y-65821890D01*
X150037440Y-65570000D01*
X150037440Y-65530000D01*
X156210000Y-65530000D01*
X156500839Y-65472148D01*
X156747401Y-65307401D01*
X159260000Y-62794802D01*
X159260000Y-63272560D01*
X159170000Y-63272560D01*
X158934683Y-63316838D01*
X158718559Y-63455910D01*
X158573569Y-63668110D01*
X158522560Y-63920000D01*
X158522560Y-65620000D01*
X158566838Y-65855317D01*
X158705910Y-66071441D01*
X158918110Y-66216431D01*
X159170000Y-66267440D01*
X159260000Y-66267440D01*
X159260000Y-68265198D01*
X156548454Y-70976744D01*
X156496691Y-70955250D01*
X155925813Y-70954752D01*
X155398200Y-71172757D01*
X154994176Y-71576077D01*
X154775250Y-72103309D01*
X154774752Y-72674187D01*
X154992757Y-73201800D01*
X155292816Y-73502382D01*
X153132599Y-75662599D01*
X152967852Y-75909161D01*
X152910000Y-76200000D01*
X152910000Y-82550000D01*
X152967852Y-82840839D01*
X153132599Y-83087401D01*
X154402599Y-84357401D01*
X154649160Y-84522148D01*
X154940000Y-84580000D01*
X154946699Y-84580000D01*
X155159946Y-84899147D01*
X155450678Y-85093407D01*
X155507852Y-85380839D01*
X155672599Y-85627401D01*
X156942599Y-86897401D01*
X157189160Y-87062148D01*
X157480000Y-87120000D01*
X160020000Y-87120000D01*
X160310839Y-87062148D01*
X160557401Y-86897401D01*
X161827401Y-85627401D01*
X161992148Y-85380840D01*
X162049322Y-85093407D01*
X162340054Y-84899147D01*
X162560000Y-84569974D01*
X162779946Y-84899147D01*
X163261715Y-85221054D01*
X163830000Y-85334093D01*
X164398285Y-85221054D01*
X164880054Y-84899147D01*
X165201961Y-84417378D01*
X165315000Y-83849093D01*
X165315000Y-83790907D01*
X165210937Y-83267745D01*
X168641861Y-83267745D01*
X168715995Y-83513864D01*
X169253223Y-83706965D01*
X169823454Y-83679778D01*
X170224005Y-83513864D01*
X170298139Y-83267745D01*
X169470000Y-82439605D01*
X168641861Y-83267745D01*
X165210937Y-83267745D01*
X165201961Y-83222622D01*
X164880054Y-82740853D01*
X164596899Y-82551655D01*
X164596924Y-82551645D01*
X165025183Y-82161358D01*
X165080662Y-82043223D01*
X168023035Y-82043223D01*
X168050222Y-82613454D01*
X168216136Y-83014005D01*
X168462255Y-83088139D01*
X169290395Y-82260000D01*
X169649605Y-82260000D01*
X170477745Y-83088139D01*
X170723864Y-83014005D01*
X170892735Y-82544187D01*
X174534752Y-82544187D01*
X174752757Y-83071800D01*
X175156077Y-83475824D01*
X175683309Y-83694750D01*
X176254187Y-83695248D01*
X176781800Y-83477243D01*
X177185824Y-83073923D01*
X177404750Y-82546691D01*
X177405248Y-81975813D01*
X177187243Y-81448200D01*
X176783923Y-81044176D01*
X176256691Y-80825250D01*
X175685813Y-80824752D01*
X175158200Y-81042757D01*
X174754176Y-81446077D01*
X174535250Y-81973309D01*
X174534752Y-82544187D01*
X170892735Y-82544187D01*
X170916965Y-82476777D01*
X170889778Y-81906546D01*
X170723864Y-81505995D01*
X170477745Y-81431861D01*
X169649605Y-82260000D01*
X169290395Y-82260000D01*
X168462255Y-81431861D01*
X168216136Y-81505995D01*
X168023035Y-82043223D01*
X165080662Y-82043223D01*
X165271486Y-81636892D01*
X165150819Y-81407000D01*
X163957000Y-81407000D01*
X163957000Y-81427000D01*
X163703000Y-81427000D01*
X163703000Y-81407000D01*
X163683000Y-81407000D01*
X163683000Y-81252255D01*
X168641861Y-81252255D01*
X169470000Y-82080395D01*
X170298139Y-81252255D01*
X170224005Y-81006136D01*
X169686777Y-80813035D01*
X169116546Y-80840222D01*
X168715995Y-81006136D01*
X168641861Y-81252255D01*
X163683000Y-81252255D01*
X163683000Y-81153000D01*
X163703000Y-81153000D01*
X163703000Y-79959845D01*
X163957000Y-79959845D01*
X163957000Y-81153000D01*
X165150819Y-81153000D01*
X165271486Y-80923108D01*
X165025183Y-80398642D01*
X164596924Y-80008355D01*
X164186890Y-79838524D01*
X163957000Y-79959845D01*
X163703000Y-79959845D01*
X163473110Y-79838524D01*
X163063076Y-80008355D01*
X162634817Y-80398642D01*
X162567702Y-80541553D01*
X162340054Y-80200853D01*
X161858285Y-79878946D01*
X161290000Y-79765907D01*
X160721715Y-79878946D01*
X160239946Y-80200853D01*
X160020000Y-80530026D01*
X159800054Y-80200853D01*
X159318285Y-79878946D01*
X158750000Y-79765907D01*
X158181715Y-79878946D01*
X157699946Y-80200853D01*
X157672150Y-80242452D01*
X157663162Y-80194683D01*
X157524090Y-79978559D01*
X157311890Y-79833569D01*
X157060000Y-79782560D01*
X155360000Y-79782560D01*
X155124683Y-79826838D01*
X154908559Y-79965910D01*
X154763569Y-80178110D01*
X154712560Y-80430000D01*
X154712560Y-82130000D01*
X154756838Y-82365317D01*
X154895910Y-82581441D01*
X155108110Y-82726431D01*
X155164454Y-82737841D01*
X155159946Y-82740853D01*
X155070108Y-82875306D01*
X154430000Y-82235198D01*
X154430000Y-78044187D01*
X168034752Y-78044187D01*
X168252757Y-78571800D01*
X168656077Y-78975824D01*
X169183309Y-79194750D01*
X169754187Y-79195248D01*
X170281800Y-78977243D01*
X170685824Y-78573923D01*
X170904750Y-78046691D01*
X170904752Y-78044187D01*
X174534752Y-78044187D01*
X174752757Y-78571800D01*
X175156077Y-78975824D01*
X175683309Y-79194750D01*
X176254187Y-79195248D01*
X176781800Y-78977243D01*
X177185824Y-78573923D01*
X177404750Y-78046691D01*
X177405248Y-77475813D01*
X177187243Y-76948200D01*
X176783923Y-76544176D01*
X176256691Y-76325250D01*
X175685813Y-76324752D01*
X175158200Y-76542757D01*
X174754176Y-76946077D01*
X174535250Y-77473309D01*
X174534752Y-78044187D01*
X170904752Y-78044187D01*
X170905248Y-77475813D01*
X170687243Y-76948200D01*
X170283923Y-76544176D01*
X169756691Y-76325250D01*
X169185813Y-76324752D01*
X168658200Y-76542757D01*
X168254176Y-76946077D01*
X168035250Y-77473309D01*
X168034752Y-78044187D01*
X154430000Y-78044187D01*
X154430000Y-76514802D01*
X156747401Y-74197401D01*
X156912148Y-73950840D01*
X156937229Y-73824750D01*
X156970000Y-73660000D01*
X156970000Y-73628646D01*
X157021800Y-73607243D01*
X157425824Y-73203923D01*
X157644750Y-72676691D01*
X157645000Y-72390000D01*
X162366887Y-72390000D01*
X162476120Y-72939151D01*
X162787189Y-73404698D01*
X163252736Y-73715767D01*
X163801887Y-73825000D01*
X163858113Y-73825000D01*
X164407264Y-73715767D01*
X164872811Y-73404698D01*
X165183880Y-72939151D01*
X165293113Y-72390000D01*
X167446887Y-72390000D01*
X167556120Y-72939151D01*
X167867189Y-73404698D01*
X168332736Y-73715767D01*
X168881887Y-73825000D01*
X168938113Y-73825000D01*
X169487264Y-73715767D01*
X169952811Y-73404698D01*
X170263880Y-72939151D01*
X170373113Y-72390000D01*
X170263880Y-71840849D01*
X169952811Y-71375302D01*
X169487264Y-71064233D01*
X168938113Y-70955000D01*
X168881887Y-70955000D01*
X168332736Y-71064233D01*
X167867189Y-71375302D01*
X167556120Y-71840849D01*
X167446887Y-72390000D01*
X165293113Y-72390000D01*
X165183880Y-71840849D01*
X164872811Y-71375302D01*
X164407264Y-71064233D01*
X163858113Y-70955000D01*
X163801887Y-70955000D01*
X163252736Y-71064233D01*
X162787189Y-71375302D01*
X162476120Y-71840849D01*
X162366887Y-72390000D01*
X157645000Y-72390000D01*
X157645248Y-72105813D01*
X157622951Y-72051851D01*
X160557401Y-69117401D01*
X160635586Y-69000388D01*
X160752599Y-69117401D01*
X160999160Y-69282148D01*
X161290000Y-69340000D01*
X172405198Y-69340000D01*
X175116744Y-72051546D01*
X175095250Y-72103309D01*
X175094752Y-72674187D01*
X175312757Y-73201800D01*
X175716077Y-73605824D01*
X176243309Y-73824750D01*
X176814187Y-73825248D01*
X177341800Y-73607243D01*
X177745824Y-73203923D01*
X177964750Y-72676691D01*
X177965248Y-72105813D01*
X177747243Y-71578200D01*
X177343923Y-71174176D01*
X176816691Y-70955250D01*
X176245813Y-70954752D01*
X176191851Y-70977049D01*
X173257401Y-68042599D01*
X173010839Y-67877852D01*
X172720000Y-67820000D01*
X161604802Y-67820000D01*
X160780000Y-66995198D01*
X160780000Y-66267440D01*
X160870000Y-66267440D01*
X161105317Y-66223162D01*
X161321441Y-66084090D01*
X161466431Y-65871890D01*
X161480086Y-65804459D01*
X161509946Y-65849147D01*
X161991715Y-66171054D01*
X162560000Y-66284093D01*
X163128285Y-66171054D01*
X163610054Y-65849147D01*
X163830000Y-65519974D01*
X164049946Y-65849147D01*
X164531715Y-66171054D01*
X165100000Y-66284093D01*
X165668285Y-66171054D01*
X166150054Y-65849147D01*
X166370000Y-65519974D01*
X166589946Y-65849147D01*
X167071715Y-66171054D01*
X167640000Y-66284093D01*
X168208285Y-66171054D01*
X168690054Y-65849147D01*
X168910000Y-65519974D01*
X169129946Y-65849147D01*
X169611715Y-66171054D01*
X170180000Y-66284093D01*
X170748285Y-66171054D01*
X171230054Y-65849147D01*
X171457702Y-65508447D01*
X171524817Y-65651358D01*
X171953076Y-66041645D01*
X172363110Y-66211476D01*
X172593000Y-66090155D01*
X172593000Y-64897000D01*
X172847000Y-64897000D01*
X172847000Y-66090155D01*
X173076890Y-66211476D01*
X173486924Y-66041645D01*
X173915183Y-65651358D01*
X174161486Y-65126892D01*
X174040819Y-64897000D01*
X172847000Y-64897000D01*
X172593000Y-64897000D01*
X172573000Y-64897000D01*
X172573000Y-64643000D01*
X172593000Y-64643000D01*
X172593000Y-63449845D01*
X172847000Y-63449845D01*
X172847000Y-64643000D01*
X174040819Y-64643000D01*
X174161486Y-64413108D01*
X173915183Y-63888642D01*
X173486924Y-63498355D01*
X173076890Y-63328524D01*
X172847000Y-63449845D01*
X172593000Y-63449845D01*
X172363110Y-63328524D01*
X171953076Y-63498355D01*
X171524817Y-63888642D01*
X171457702Y-64031553D01*
X171230054Y-63690853D01*
X170748285Y-63368946D01*
X170180000Y-63255907D01*
X169611715Y-63368946D01*
X169129946Y-63690853D01*
X168910000Y-64020026D01*
X168690054Y-63690853D01*
X168208285Y-63368946D01*
X167640000Y-63255907D01*
X167071715Y-63368946D01*
X166589946Y-63690853D01*
X166370000Y-64020026D01*
X166150054Y-63690853D01*
X165668285Y-63368946D01*
X165100000Y-63255907D01*
X164531715Y-63368946D01*
X164049946Y-63690853D01*
X163830000Y-64020026D01*
X163610054Y-63690853D01*
X163128285Y-63368946D01*
X162560000Y-63255907D01*
X161991715Y-63368946D01*
X161509946Y-63690853D01*
X161482150Y-63732452D01*
X161473162Y-63684683D01*
X161334090Y-63468559D01*
X161121890Y-63323569D01*
X160870000Y-63272560D01*
X160780000Y-63272560D01*
X160780000Y-62457440D01*
X160870000Y-62457440D01*
X161105317Y-62413162D01*
X161321441Y-62274090D01*
X161466431Y-62061890D01*
X161480086Y-61994459D01*
X161509946Y-62039147D01*
X161991715Y-62361054D01*
X162560000Y-62474093D01*
X163128285Y-62361054D01*
X163610054Y-62039147D01*
X163830000Y-61709974D01*
X164049946Y-62039147D01*
X164531715Y-62361054D01*
X165100000Y-62474093D01*
X165668285Y-62361054D01*
X166150054Y-62039147D01*
X166370000Y-61709974D01*
X166589946Y-62039147D01*
X167071715Y-62361054D01*
X167640000Y-62474093D01*
X168208285Y-62361054D01*
X168690054Y-62039147D01*
X168910000Y-61709974D01*
X169129946Y-62039147D01*
X169611715Y-62361054D01*
X170180000Y-62474093D01*
X170748285Y-62361054D01*
X171230054Y-62039147D01*
X171457702Y-61698447D01*
X171524817Y-61841358D01*
X171953076Y-62231645D01*
X172363110Y-62401476D01*
X172593000Y-62280155D01*
X172593000Y-61087000D01*
X172847000Y-61087000D01*
X172847000Y-62280155D01*
X173076890Y-62401476D01*
X173486924Y-62231645D01*
X173915183Y-61841358D01*
X174161486Y-61316892D01*
X174040819Y-61087000D01*
X172847000Y-61087000D01*
X172593000Y-61087000D01*
X172573000Y-61087000D01*
X172573000Y-60833000D01*
X172593000Y-60833000D01*
X172593000Y-59639845D01*
X172847000Y-59639845D01*
X172847000Y-60833000D01*
X174040819Y-60833000D01*
X174161486Y-60603108D01*
X173915183Y-60078642D01*
X173486924Y-59688355D01*
X173076890Y-59518524D01*
X172847000Y-59639845D01*
X172593000Y-59639845D01*
X172363110Y-59518524D01*
X171953076Y-59688355D01*
X171524817Y-60078642D01*
X171457702Y-60221553D01*
X171230054Y-59880853D01*
X170748285Y-59558946D01*
X170180000Y-59445907D01*
X169611715Y-59558946D01*
X169129946Y-59880853D01*
X168910000Y-60210026D01*
X168690054Y-59880853D01*
X168208285Y-59558946D01*
X167640000Y-59445907D01*
X167071715Y-59558946D01*
X166589946Y-59880853D01*
X166370000Y-60210026D01*
X166150054Y-59880853D01*
X165668285Y-59558946D01*
X165100000Y-59445907D01*
X164531715Y-59558946D01*
X164049946Y-59880853D01*
X163830000Y-60210026D01*
X163610054Y-59880853D01*
X163128285Y-59558946D01*
X162560000Y-59445907D01*
X161991715Y-59558946D01*
X161509946Y-59880853D01*
X161482150Y-59922452D01*
X161473162Y-59874683D01*
X161334090Y-59658559D01*
X161121890Y-59513569D01*
X160870000Y-59462560D01*
X159170000Y-59462560D01*
X158934683Y-59506838D01*
X158718559Y-59645910D01*
X158573569Y-59858110D01*
X158522560Y-60110000D01*
X158522560Y-61382638D01*
X155895198Y-64010000D01*
X150037440Y-64010000D01*
X150037440Y-63970000D01*
X149993162Y-63734683D01*
X149854090Y-63518559D01*
X149641890Y-63373569D01*
X149390000Y-63322560D01*
X147790000Y-63322560D01*
X147554683Y-63366838D01*
X147338559Y-63505910D01*
X147193569Y-63718110D01*
X147142560Y-63970000D01*
X147142560Y-64045295D01*
X147029161Y-64067852D01*
X146782599Y-64232599D01*
X142972599Y-68042599D01*
X142807852Y-68289161D01*
X142750000Y-68580000D01*
X142750000Y-71151354D01*
X142698200Y-71172757D01*
X142294176Y-71576077D01*
X142271785Y-71630000D01*
X135890000Y-71630000D01*
X135599160Y-71687852D01*
X135352599Y-71852599D01*
X134082599Y-73122599D01*
X133917852Y-73369161D01*
X133872143Y-73598953D01*
X133571878Y-73799583D01*
X133518327Y-73670301D01*
X133339698Y-73491673D01*
X133106309Y-73395000D01*
X132365750Y-73395000D01*
X132207000Y-73553750D01*
X131953000Y-73553750D01*
X131794250Y-73395000D01*
X131053691Y-73395000D01*
X130820302Y-73491673D01*
X130641673Y-73670301D01*
X130545000Y-73903690D01*
X125170000Y-73903690D01*
X125170000Y-63785750D01*
X132585000Y-63785750D01*
X132585000Y-65376310D01*
X132681673Y-65609699D01*
X132860302Y-65788327D01*
X133093691Y-65885000D01*
X134684250Y-65885000D01*
X134843000Y-65726250D01*
X134843000Y-63627000D01*
X135097000Y-63627000D01*
X135097000Y-65726250D01*
X135255750Y-65885000D01*
X135925378Y-65885000D01*
X135768559Y-65985910D01*
X135623569Y-66198110D01*
X135572560Y-66450000D01*
X135572560Y-69950000D01*
X135616838Y-70185317D01*
X135755910Y-70401441D01*
X135968110Y-70546431D01*
X136220000Y-70597440D01*
X139720000Y-70597440D01*
X139955317Y-70553162D01*
X140171441Y-70414090D01*
X140316431Y-70201890D01*
X140367440Y-69950000D01*
X140367440Y-66450000D01*
X140323162Y-66214683D01*
X140184090Y-65998559D01*
X140036097Y-65897440D01*
X142720000Y-65897440D01*
X142955317Y-65853162D01*
X143171441Y-65714090D01*
X143316431Y-65501890D01*
X143367440Y-65250000D01*
X143367440Y-61750000D01*
X143323162Y-61514683D01*
X143184090Y-61298559D01*
X142971890Y-61153569D01*
X142720000Y-61102560D01*
X139220000Y-61102560D01*
X138984683Y-61146838D01*
X138768559Y-61285910D01*
X138623569Y-61498110D01*
X138572560Y-61750000D01*
X138572560Y-65250000D01*
X138616838Y-65485317D01*
X138755910Y-65701441D01*
X138903903Y-65802560D01*
X137045337Y-65802560D01*
X137079698Y-65788327D01*
X137258327Y-65609699D01*
X137355000Y-65376310D01*
X137355000Y-63785750D01*
X137196250Y-63627000D01*
X135097000Y-63627000D01*
X134843000Y-63627000D01*
X132743750Y-63627000D01*
X132585000Y-63785750D01*
X125170000Y-63785750D01*
X125170000Y-61623690D01*
X132585000Y-61623690D01*
X132585000Y-63214250D01*
X132743750Y-63373000D01*
X134843000Y-63373000D01*
X134843000Y-61273750D01*
X135097000Y-61273750D01*
X135097000Y-63373000D01*
X137196250Y-63373000D01*
X137355000Y-63214250D01*
X137355000Y-61623690D01*
X137258327Y-61390301D01*
X137079698Y-61211673D01*
X136846309Y-61115000D01*
X135255750Y-61115000D01*
X135097000Y-61273750D01*
X134843000Y-61273750D01*
X134684250Y-61115000D01*
X133093691Y-61115000D01*
X132860302Y-61211673D01*
X132681673Y-61390301D01*
X132585000Y-61623690D01*
X125170000Y-61623690D01*
X125170000Y-59974187D01*
X144614752Y-59974187D01*
X144832757Y-60501800D01*
X145236077Y-60905824D01*
X145763309Y-61124750D01*
X146334187Y-61125248D01*
X146861800Y-60907243D01*
X147071663Y-60697745D01*
X150221861Y-60697745D01*
X150295995Y-60943864D01*
X150833223Y-61136965D01*
X151403454Y-61109778D01*
X151804005Y-60943864D01*
X151878139Y-60697745D01*
X151050000Y-59869605D01*
X150221861Y-60697745D01*
X147071663Y-60697745D01*
X147265824Y-60503923D01*
X147484750Y-59976691D01*
X147485189Y-59473223D01*
X149603035Y-59473223D01*
X149630222Y-60043454D01*
X149796136Y-60444005D01*
X150042255Y-60518139D01*
X150870395Y-59690000D01*
X151229605Y-59690000D01*
X152057745Y-60518139D01*
X152303864Y-60444005D01*
X152496965Y-59906777D01*
X152469778Y-59336546D01*
X152303864Y-58935995D01*
X152057745Y-58861861D01*
X151229605Y-59690000D01*
X150870395Y-59690000D01*
X150042255Y-58861861D01*
X149796136Y-58935995D01*
X149603035Y-59473223D01*
X147485189Y-59473223D01*
X147485248Y-59405813D01*
X147267243Y-58878200D01*
X147071640Y-58682255D01*
X150221861Y-58682255D01*
X151050000Y-59510395D01*
X151878139Y-58682255D01*
X151804005Y-58436136D01*
X151266777Y-58243035D01*
X150696546Y-58270222D01*
X150295995Y-58436136D01*
X150221861Y-58682255D01*
X147071640Y-58682255D01*
X146863923Y-58474176D01*
X146336691Y-58255250D01*
X145765813Y-58254752D01*
X145238200Y-58472757D01*
X144834176Y-58876077D01*
X144615250Y-59403309D01*
X144614752Y-59974187D01*
X125170000Y-59974187D01*
X125170000Y-55320000D01*
X180900000Y-55320000D01*
X180900000Y-88190000D01*
M02*
