G04 #@! TF.FileFunction,Copper,L1,Top,Signal*
%FSLAX46Y46*%
G04 Gerber Fmt 4.6, Leading zero omitted, Abs format (unit mm)*
G04 Created by KiCad (PCBNEW 4.0.5+dfsg1-4~bpo8+1) date Tue Aug 29 22:55:19 2017*
%MOMM*%
%LPD*%
G01*
G04 APERTURE LIST*
%ADD10C,0.100000*%
%ADD11R,1.600000X1.600000*%
%ADD12C,1.600000*%
%ADD13R,3.500000X3.500000*%
%ADD14R,1.700000X1.700000*%
%ADD15O,1.700000X1.700000*%
%ADD16O,1.600000X1.600000*%
%ADD17R,1.800000X1.800000*%
%ADD18O,1.800000X1.800000*%
%ADD19C,0.250000*%
G04 APERTURE END LIST*
D10*
D11*
X149860000Y-81280000D03*
D12*
X149860000Y-83780000D03*
D13*
X142240000Y-76200000D03*
X136240000Y-76200000D03*
X139240000Y-80900000D03*
D14*
X137160000Y-93980000D03*
D15*
X139700000Y-93980000D03*
X137160000Y-96520000D03*
X139700000Y-96520000D03*
X137160000Y-99060000D03*
X139700000Y-99060000D03*
X137160000Y-101600000D03*
X139700000Y-101600000D03*
D12*
X153670000Y-88900000D03*
D16*
X146050000Y-88900000D03*
D12*
X165100000Y-93980000D03*
D16*
X157480000Y-93980000D03*
D12*
X153670000Y-93980000D03*
D16*
X146050000Y-93980000D03*
D12*
X153110000Y-102580000D03*
X153110000Y-98080000D03*
X146610000Y-102580000D03*
X146610000Y-98080000D03*
X164540000Y-102580000D03*
X164540000Y-98080000D03*
X158040000Y-102580000D03*
X158040000Y-98080000D03*
D17*
X135890000Y-87630000D03*
D18*
X138430000Y-87630000D03*
X140970000Y-87630000D03*
D12*
X147320000Y-76200000D03*
X152320000Y-76200000D03*
D14*
X158750000Y-76200000D03*
D15*
X158750000Y-78740000D03*
X158750000Y-81280000D03*
X158750000Y-83820000D03*
X158750000Y-86360000D03*
X158750000Y-88900000D03*
D14*
X162560000Y-76200000D03*
D15*
X162560000Y-78740000D03*
X162560000Y-81280000D03*
X162560000Y-83820000D03*
X162560000Y-86360000D03*
X162560000Y-88900000D03*
D19*
X142240000Y-86360000D02*
X140970000Y-87630000D01*
X142240000Y-76200000D02*
X142240000Y-86360000D01*
X142240000Y-76200000D02*
X147320000Y-76200000D01*
X158750000Y-76200000D02*
X156210000Y-76200000D01*
X151130000Y-81280000D02*
X149860000Y-81280000D01*
X156210000Y-76200000D02*
X151130000Y-81280000D01*
X162560000Y-76200000D02*
X158750000Y-76200000D01*
X165100000Y-93980000D02*
X166370000Y-92710000D01*
X166370000Y-92710000D02*
X166370000Y-78740000D01*
X166370000Y-78740000D02*
X163830000Y-76200000D01*
X163830000Y-76200000D02*
X162560000Y-76200000D01*
X158750000Y-83820000D02*
X162560000Y-83820000D01*
X137160000Y-93980000D02*
X137160000Y-92710000D01*
X154940000Y-83820000D02*
X158750000Y-83820000D01*
X147320000Y-91440000D02*
X154940000Y-83820000D01*
X138430000Y-91440000D02*
X147320000Y-91440000D01*
X137160000Y-92710000D02*
X138430000Y-91440000D01*
X162560000Y-86360000D02*
X158750000Y-86360000D01*
X139700000Y-101600000D02*
X140970000Y-101600000D01*
X165100000Y-88900000D02*
X162560000Y-86360000D01*
X165100000Y-90170000D02*
X165100000Y-88900000D01*
X161290000Y-93980000D02*
X165100000Y-90170000D01*
X161290000Y-102870000D02*
X161290000Y-93980000D01*
X158750000Y-105410000D02*
X161290000Y-102870000D01*
X144780000Y-105410000D02*
X158750000Y-105410000D01*
X140970000Y-101600000D02*
X144780000Y-105410000D01*
X146050000Y-88900000D02*
X147320000Y-88900000D01*
X156210000Y-81280000D02*
X158750000Y-81280000D01*
X148590000Y-88900000D02*
X156210000Y-81280000D01*
X147320000Y-88900000D02*
X148590000Y-88900000D01*
X158750000Y-81280000D02*
X162560000Y-81280000D01*
X137160000Y-99060000D02*
X135890000Y-99060000D01*
X144780000Y-90170000D02*
X146050000Y-88900000D01*
X137160000Y-90170000D02*
X144780000Y-90170000D01*
X134620000Y-92710000D02*
X137160000Y-90170000D01*
X134620000Y-97790000D02*
X134620000Y-92710000D01*
X135890000Y-99060000D02*
X134620000Y-97790000D01*
X158040000Y-98080000D02*
X158040000Y-94540000D01*
X158040000Y-94540000D02*
X157480000Y-93980000D01*
X139700000Y-96520000D02*
X140970000Y-96520000D01*
X157190000Y-98080000D02*
X158040000Y-98080000D01*
X154940000Y-100330000D02*
X157190000Y-98080000D01*
X144780000Y-100330000D02*
X154940000Y-100330000D01*
X140970000Y-96520000D02*
X144780000Y-100330000D01*
M02*
