G04 #@! TF.FileFunction,Legend,Top*
%FSLAX46Y46*%
G04 Gerber Fmt 4.6, Leading zero omitted, Abs format (unit mm)*
G04 Created by KiCad (PCBNEW 4.0.5+dfsg1-4~bpo8+1) date Mon Aug 28 11:49:41 2017*
%MOMM*%
%LPD*%
G01*
G04 APERTURE LIST*
%ADD10C,0.100000*%
%ADD11C,0.300000*%
%ADD12C,0.120000*%
%ADD13C,0.152400*%
%ADD14C,0.050800*%
%ADD15C,0.150000*%
G04 APERTURE END LIST*
D10*
X172470000Y-58039048D02*
X172446190Y-58086667D01*
X172446190Y-58158095D01*
X172470000Y-58229524D01*
X172517619Y-58277143D01*
X172565238Y-58300952D01*
X172660476Y-58324762D01*
X172731905Y-58324762D01*
X172827143Y-58300952D01*
X172874762Y-58277143D01*
X172922381Y-58229524D01*
X172946190Y-58158095D01*
X172946190Y-58110476D01*
X172922381Y-58039048D01*
X172898571Y-58015238D01*
X172731905Y-58015238D01*
X172731905Y-58110476D01*
X172946190Y-57800952D02*
X172446190Y-57800952D01*
X172946190Y-57515238D01*
X172446190Y-57515238D01*
X172946190Y-57277142D02*
X172446190Y-57277142D01*
X172446190Y-57158095D01*
X172470000Y-57086666D01*
X172517619Y-57039047D01*
X172565238Y-57015238D01*
X172660476Y-56991428D01*
X172731905Y-56991428D01*
X172827143Y-57015238D01*
X172874762Y-57039047D01*
X172922381Y-57086666D01*
X172946190Y-57158095D01*
X172946190Y-57277142D01*
X169906190Y-58372381D02*
X169906190Y-58086667D01*
X170406190Y-58229524D02*
X169906190Y-58229524D01*
X169906190Y-57967619D02*
X170406190Y-57634286D01*
X169906190Y-57634286D02*
X170406190Y-57967619D01*
X167866190Y-58015238D02*
X167628095Y-58181905D01*
X167866190Y-58300952D02*
X167366190Y-58300952D01*
X167366190Y-58110476D01*
X167390000Y-58062857D01*
X167413810Y-58039048D01*
X167461429Y-58015238D01*
X167532857Y-58015238D01*
X167580476Y-58039048D01*
X167604286Y-58062857D01*
X167628095Y-58110476D01*
X167628095Y-58300952D01*
X167366190Y-57848571D02*
X167866190Y-57515238D01*
X167366190Y-57515238D02*
X167866190Y-57848571D01*
X164850000Y-58039048D02*
X164826190Y-58086667D01*
X164826190Y-58158095D01*
X164850000Y-58229524D01*
X164897619Y-58277143D01*
X164945238Y-58300952D01*
X165040476Y-58324762D01*
X165111905Y-58324762D01*
X165207143Y-58300952D01*
X165254762Y-58277143D01*
X165302381Y-58229524D01*
X165326190Y-58158095D01*
X165326190Y-58110476D01*
X165302381Y-58039048D01*
X165278571Y-58015238D01*
X165111905Y-58015238D01*
X165111905Y-58110476D01*
X165326190Y-57800952D02*
X164826190Y-57800952D01*
X164826190Y-57610476D01*
X164850000Y-57562857D01*
X164873810Y-57539048D01*
X164921429Y-57515238D01*
X164992857Y-57515238D01*
X165040476Y-57539048D01*
X165064286Y-57562857D01*
X165088095Y-57610476D01*
X165088095Y-57800952D01*
X165326190Y-57300952D02*
X164826190Y-57300952D01*
X164826190Y-56967619D02*
X164826190Y-56872381D01*
X164850000Y-56824762D01*
X164897619Y-56777143D01*
X164992857Y-56753334D01*
X165159524Y-56753334D01*
X165254762Y-56777143D01*
X165302381Y-56824762D01*
X165326190Y-56872381D01*
X165326190Y-56967619D01*
X165302381Y-57015238D01*
X165254762Y-57062857D01*
X165159524Y-57086667D01*
X164992857Y-57086667D01*
X164897619Y-57062857D01*
X164850000Y-57015238D01*
X164826190Y-56967619D01*
X164873810Y-56562857D02*
X164850000Y-56539047D01*
X164826190Y-56491428D01*
X164826190Y-56372381D01*
X164850000Y-56324762D01*
X164873810Y-56300952D01*
X164921429Y-56277143D01*
X164969048Y-56277143D01*
X165040476Y-56300952D01*
X165326190Y-56586666D01*
X165326190Y-56277143D01*
X162310000Y-58039048D02*
X162286190Y-58086667D01*
X162286190Y-58158095D01*
X162310000Y-58229524D01*
X162357619Y-58277143D01*
X162405238Y-58300952D01*
X162500476Y-58324762D01*
X162571905Y-58324762D01*
X162667143Y-58300952D01*
X162714762Y-58277143D01*
X162762381Y-58229524D01*
X162786190Y-58158095D01*
X162786190Y-58110476D01*
X162762381Y-58039048D01*
X162738571Y-58015238D01*
X162571905Y-58015238D01*
X162571905Y-58110476D01*
X162786190Y-57800952D02*
X162286190Y-57800952D01*
X162286190Y-57610476D01*
X162310000Y-57562857D01*
X162333810Y-57539048D01*
X162381429Y-57515238D01*
X162452857Y-57515238D01*
X162500476Y-57539048D01*
X162524286Y-57562857D01*
X162548095Y-57610476D01*
X162548095Y-57800952D01*
X162786190Y-57300952D02*
X162286190Y-57300952D01*
X162286190Y-56967619D02*
X162286190Y-56872381D01*
X162310000Y-56824762D01*
X162357619Y-56777143D01*
X162452857Y-56753334D01*
X162619524Y-56753334D01*
X162714762Y-56777143D01*
X162762381Y-56824762D01*
X162786190Y-56872381D01*
X162786190Y-56967619D01*
X162762381Y-57015238D01*
X162714762Y-57062857D01*
X162619524Y-57086667D01*
X162452857Y-57086667D01*
X162357619Y-57062857D01*
X162310000Y-57015238D01*
X162286190Y-56967619D01*
X162286190Y-56443809D02*
X162286190Y-56396190D01*
X162310000Y-56348571D01*
X162333810Y-56324762D01*
X162381429Y-56300952D01*
X162476667Y-56277143D01*
X162595714Y-56277143D01*
X162690952Y-56300952D01*
X162738571Y-56324762D01*
X162762381Y-56348571D01*
X162786190Y-56396190D01*
X162786190Y-56443809D01*
X162762381Y-56491428D01*
X162738571Y-56515238D01*
X162690952Y-56539047D01*
X162595714Y-56562857D01*
X162476667Y-56562857D01*
X162381429Y-56539047D01*
X162333810Y-56515238D01*
X162310000Y-56491428D01*
X162286190Y-56443809D01*
X159746190Y-58348571D02*
X159746190Y-58039048D01*
X159936667Y-58205714D01*
X159936667Y-58134286D01*
X159960476Y-58086667D01*
X159984286Y-58062857D01*
X160031905Y-58039048D01*
X160150952Y-58039048D01*
X160198571Y-58062857D01*
X160222381Y-58086667D01*
X160246190Y-58134286D01*
X160246190Y-58277143D01*
X160222381Y-58324762D01*
X160198571Y-58348571D01*
X159746190Y-57896191D02*
X160246190Y-57729524D01*
X159746190Y-57562858D01*
X159746190Y-57443810D02*
X159746190Y-57134287D01*
X159936667Y-57300953D01*
X159936667Y-57229525D01*
X159960476Y-57181906D01*
X159984286Y-57158096D01*
X160031905Y-57134287D01*
X160150952Y-57134287D01*
X160198571Y-57158096D01*
X160222381Y-57181906D01*
X160246190Y-57229525D01*
X160246190Y-57372382D01*
X160222381Y-57420001D01*
X160198571Y-57443810D01*
X169453810Y-84891190D02*
X169287143Y-84653095D01*
X169168096Y-84891190D02*
X169168096Y-84391190D01*
X169358572Y-84391190D01*
X169406191Y-84415000D01*
X169430000Y-84438810D01*
X169453810Y-84486429D01*
X169453810Y-84557857D01*
X169430000Y-84605476D01*
X169406191Y-84629286D01*
X169358572Y-84653095D01*
X169168096Y-84653095D01*
X169668096Y-84629286D02*
X169834762Y-84629286D01*
X169906191Y-84891190D02*
X169668096Y-84891190D01*
X169668096Y-84391190D01*
X169906191Y-84391190D01*
X170096667Y-84867381D02*
X170168096Y-84891190D01*
X170287143Y-84891190D01*
X170334762Y-84867381D01*
X170358572Y-84843571D01*
X170382381Y-84795952D01*
X170382381Y-84748333D01*
X170358572Y-84700714D01*
X170334762Y-84676905D01*
X170287143Y-84653095D01*
X170191905Y-84629286D01*
X170144286Y-84605476D01*
X170120477Y-84581667D01*
X170096667Y-84534048D01*
X170096667Y-84486429D01*
X170120477Y-84438810D01*
X170144286Y-84415000D01*
X170191905Y-84391190D01*
X170310953Y-84391190D01*
X170382381Y-84415000D01*
X170596667Y-84629286D02*
X170763333Y-84629286D01*
X170834762Y-84891190D02*
X170596667Y-84891190D01*
X170596667Y-84391190D01*
X170834762Y-84391190D01*
X170977619Y-84391190D02*
X171263333Y-84391190D01*
X171120476Y-84891190D02*
X171120476Y-84391190D01*
X144041905Y-84415000D02*
X143994286Y-84391190D01*
X143922858Y-84391190D01*
X143851429Y-84415000D01*
X143803810Y-84462619D01*
X143780001Y-84510238D01*
X143756191Y-84605476D01*
X143756191Y-84676905D01*
X143780001Y-84772143D01*
X143803810Y-84819762D01*
X143851429Y-84867381D01*
X143922858Y-84891190D01*
X143970477Y-84891190D01*
X144041905Y-84867381D01*
X144065715Y-84843571D01*
X144065715Y-84676905D01*
X143970477Y-84676905D01*
X144280001Y-84891190D02*
X144280001Y-84391190D01*
X144470477Y-84391190D01*
X144518096Y-84415000D01*
X144541905Y-84438810D01*
X144565715Y-84486429D01*
X144565715Y-84557857D01*
X144541905Y-84605476D01*
X144518096Y-84629286D01*
X144470477Y-84653095D01*
X144280001Y-84653095D01*
X144780001Y-84891190D02*
X144780001Y-84391190D01*
X145113334Y-84391190D02*
X145208572Y-84391190D01*
X145256191Y-84415000D01*
X145303810Y-84462619D01*
X145327619Y-84557857D01*
X145327619Y-84724524D01*
X145303810Y-84819762D01*
X145256191Y-84867381D01*
X145208572Y-84891190D01*
X145113334Y-84891190D01*
X145065715Y-84867381D01*
X145018096Y-84819762D01*
X144994286Y-84724524D01*
X144994286Y-84557857D01*
X145018096Y-84462619D01*
X145065715Y-84415000D01*
X145113334Y-84391190D01*
X145637144Y-84391190D02*
X145684763Y-84391190D01*
X145732382Y-84415000D01*
X145756191Y-84438810D01*
X145780001Y-84486429D01*
X145803810Y-84581667D01*
X145803810Y-84700714D01*
X145780001Y-84795952D01*
X145756191Y-84843571D01*
X145732382Y-84867381D01*
X145684763Y-84891190D01*
X145637144Y-84891190D01*
X145589525Y-84867381D01*
X145565715Y-84843571D01*
X145541906Y-84795952D01*
X145518096Y-84700714D01*
X145518096Y-84581667D01*
X145541906Y-84486429D01*
X145565715Y-84438810D01*
X145589525Y-84415000D01*
X145637144Y-84391190D01*
X163556190Y-87169523D02*
X163556190Y-86883809D01*
X164056190Y-87026666D02*
X163556190Y-87026666D01*
X163556190Y-86764761D02*
X164056190Y-86431428D01*
X163556190Y-86431428D02*
X164056190Y-86764761D01*
X161468571Y-88360000D02*
X161492381Y-88383810D01*
X161516190Y-88455238D01*
X161516190Y-88502857D01*
X161492381Y-88574286D01*
X161444762Y-88621905D01*
X161397143Y-88645714D01*
X161301905Y-88669524D01*
X161230476Y-88669524D01*
X161135238Y-88645714D01*
X161087619Y-88621905D01*
X161040000Y-88574286D01*
X161016190Y-88502857D01*
X161016190Y-88455238D01*
X161040000Y-88383810D01*
X161063810Y-88360000D01*
X161516190Y-88145714D02*
X161016190Y-88145714D01*
X161254286Y-88145714D02*
X161254286Y-87860000D01*
X161516190Y-87860000D02*
X161016190Y-87860000D01*
X161563810Y-87740952D02*
X161563810Y-87360000D01*
X161516190Y-87240952D02*
X161016190Y-87240952D01*
X161016190Y-87050476D01*
X161040000Y-87002857D01*
X161063810Y-86979048D01*
X161111429Y-86955238D01*
X161182857Y-86955238D01*
X161230476Y-86979048D01*
X161254286Y-87002857D01*
X161278095Y-87050476D01*
X161278095Y-87240952D01*
X161516190Y-86740952D02*
X161016190Y-86740952D01*
X161016190Y-86621905D01*
X161040000Y-86550476D01*
X161087619Y-86502857D01*
X161135238Y-86479048D01*
X161230476Y-86455238D01*
X161301905Y-86455238D01*
X161397143Y-86479048D01*
X161444762Y-86502857D01*
X161492381Y-86550476D01*
X161516190Y-86621905D01*
X161516190Y-86740952D01*
X158976190Y-88217142D02*
X158738095Y-88383809D01*
X158976190Y-88502856D02*
X158476190Y-88502856D01*
X158476190Y-88312380D01*
X158500000Y-88264761D01*
X158523810Y-88240952D01*
X158571429Y-88217142D01*
X158642857Y-88217142D01*
X158690476Y-88240952D01*
X158714286Y-88264761D01*
X158738095Y-88312380D01*
X158738095Y-88502856D01*
X158714286Y-88002856D02*
X158714286Y-87836190D01*
X158976190Y-87764761D02*
X158976190Y-88002856D01*
X158476190Y-88002856D01*
X158476190Y-87764761D01*
X158952381Y-87574285D02*
X158976190Y-87502856D01*
X158976190Y-87383809D01*
X158952381Y-87336190D01*
X158928571Y-87312380D01*
X158880952Y-87288571D01*
X158833333Y-87288571D01*
X158785714Y-87312380D01*
X158761905Y-87336190D01*
X158738095Y-87383809D01*
X158714286Y-87479047D01*
X158690476Y-87526666D01*
X158666667Y-87550475D01*
X158619048Y-87574285D01*
X158571429Y-87574285D01*
X158523810Y-87550475D01*
X158500000Y-87526666D01*
X158476190Y-87479047D01*
X158476190Y-87359999D01*
X158500000Y-87288571D01*
X158714286Y-87074285D02*
X158714286Y-86907619D01*
X158976190Y-86836190D02*
X158976190Y-87074285D01*
X158476190Y-87074285D01*
X158476190Y-86836190D01*
X158476190Y-86693333D02*
X158476190Y-86407619D01*
X158976190Y-86550476D02*
X158476190Y-86550476D01*
X155936190Y-87669522D02*
X155936190Y-87359999D01*
X156126667Y-87526665D01*
X156126667Y-87455237D01*
X156150476Y-87407618D01*
X156174286Y-87383808D01*
X156221905Y-87359999D01*
X156340952Y-87359999D01*
X156388571Y-87383808D01*
X156412381Y-87407618D01*
X156436190Y-87455237D01*
X156436190Y-87598094D01*
X156412381Y-87645713D01*
X156388571Y-87669522D01*
X155936190Y-87217142D02*
X156436190Y-87050475D01*
X155936190Y-86883809D01*
X155936190Y-86764761D02*
X155936190Y-86455238D01*
X156126667Y-86621904D01*
X156126667Y-86550476D01*
X156150476Y-86502857D01*
X156174286Y-86479047D01*
X156221905Y-86455238D01*
X156340952Y-86455238D01*
X156388571Y-86479047D01*
X156412381Y-86502857D01*
X156436190Y-86550476D01*
X156436190Y-86693333D01*
X156412381Y-86740952D01*
X156388571Y-86764761D01*
X163580000Y-78359048D02*
X163556190Y-78406667D01*
X163556190Y-78478095D01*
X163580000Y-78549524D01*
X163627619Y-78597143D01*
X163675238Y-78620952D01*
X163770476Y-78644762D01*
X163841905Y-78644762D01*
X163937143Y-78620952D01*
X163984762Y-78597143D01*
X164032381Y-78549524D01*
X164056190Y-78478095D01*
X164056190Y-78430476D01*
X164032381Y-78359048D01*
X164008571Y-78335238D01*
X163841905Y-78335238D01*
X163841905Y-78430476D01*
X164056190Y-78120952D02*
X163556190Y-78120952D01*
X164056190Y-77835238D01*
X163556190Y-77835238D01*
X164056190Y-77597142D02*
X163556190Y-77597142D01*
X163556190Y-77478095D01*
X163580000Y-77406666D01*
X163627619Y-77359047D01*
X163675238Y-77335238D01*
X163770476Y-77311428D01*
X163841905Y-77311428D01*
X163937143Y-77335238D01*
X163984762Y-77359047D01*
X164032381Y-77406666D01*
X164056190Y-77478095D01*
X164056190Y-77597142D01*
X161040000Y-78359048D02*
X161016190Y-78406667D01*
X161016190Y-78478095D01*
X161040000Y-78549524D01*
X161087619Y-78597143D01*
X161135238Y-78620952D01*
X161230476Y-78644762D01*
X161301905Y-78644762D01*
X161397143Y-78620952D01*
X161444762Y-78597143D01*
X161492381Y-78549524D01*
X161516190Y-78478095D01*
X161516190Y-78430476D01*
X161492381Y-78359048D01*
X161468571Y-78335238D01*
X161301905Y-78335238D01*
X161301905Y-78430476D01*
X161516190Y-78120952D02*
X161016190Y-78120952D01*
X161016190Y-77930476D01*
X161040000Y-77882857D01*
X161063810Y-77859048D01*
X161111429Y-77835238D01*
X161182857Y-77835238D01*
X161230476Y-77859048D01*
X161254286Y-77882857D01*
X161278095Y-77930476D01*
X161278095Y-78120952D01*
X161516190Y-77620952D02*
X161016190Y-77620952D01*
X161016190Y-77287619D02*
X161016190Y-77192381D01*
X161040000Y-77144762D01*
X161087619Y-77097143D01*
X161182857Y-77073334D01*
X161349524Y-77073334D01*
X161444762Y-77097143D01*
X161492381Y-77144762D01*
X161516190Y-77192381D01*
X161516190Y-77287619D01*
X161492381Y-77335238D01*
X161444762Y-77382857D01*
X161349524Y-77406667D01*
X161182857Y-77406667D01*
X161087619Y-77382857D01*
X161040000Y-77335238D01*
X161016190Y-77287619D01*
X161063810Y-76882857D02*
X161040000Y-76859047D01*
X161016190Y-76811428D01*
X161016190Y-76692381D01*
X161040000Y-76644762D01*
X161063810Y-76620952D01*
X161111429Y-76597143D01*
X161159048Y-76597143D01*
X161230476Y-76620952D01*
X161516190Y-76906666D01*
X161516190Y-76597143D01*
X158500000Y-78359048D02*
X158476190Y-78406667D01*
X158476190Y-78478095D01*
X158500000Y-78549524D01*
X158547619Y-78597143D01*
X158595238Y-78620952D01*
X158690476Y-78644762D01*
X158761905Y-78644762D01*
X158857143Y-78620952D01*
X158904762Y-78597143D01*
X158952381Y-78549524D01*
X158976190Y-78478095D01*
X158976190Y-78430476D01*
X158952381Y-78359048D01*
X158928571Y-78335238D01*
X158761905Y-78335238D01*
X158761905Y-78430476D01*
X158976190Y-78120952D02*
X158476190Y-78120952D01*
X158476190Y-77930476D01*
X158500000Y-77882857D01*
X158523810Y-77859048D01*
X158571429Y-77835238D01*
X158642857Y-77835238D01*
X158690476Y-77859048D01*
X158714286Y-77882857D01*
X158738095Y-77930476D01*
X158738095Y-78120952D01*
X158976190Y-77620952D02*
X158476190Y-77620952D01*
X158476190Y-77287619D02*
X158476190Y-77192381D01*
X158500000Y-77144762D01*
X158547619Y-77097143D01*
X158642857Y-77073334D01*
X158809524Y-77073334D01*
X158904762Y-77097143D01*
X158952381Y-77144762D01*
X158976190Y-77192381D01*
X158976190Y-77287619D01*
X158952381Y-77335238D01*
X158904762Y-77382857D01*
X158809524Y-77406667D01*
X158642857Y-77406667D01*
X158547619Y-77382857D01*
X158500000Y-77335238D01*
X158476190Y-77287619D01*
X158476190Y-76763809D02*
X158476190Y-76716190D01*
X158500000Y-76668571D01*
X158523810Y-76644762D01*
X158571429Y-76620952D01*
X158666667Y-76597143D01*
X158785714Y-76597143D01*
X158880952Y-76620952D01*
X158928571Y-76644762D01*
X158952381Y-76668571D01*
X158976190Y-76716190D01*
X158976190Y-76763809D01*
X158952381Y-76811428D01*
X158928571Y-76835238D01*
X158880952Y-76859047D01*
X158785714Y-76882857D01*
X158666667Y-76882857D01*
X158571429Y-76859047D01*
X158523810Y-76835238D01*
X158500000Y-76811428D01*
X158476190Y-76763809D01*
X156436190Y-78335238D02*
X156198095Y-78501905D01*
X156436190Y-78620952D02*
X155936190Y-78620952D01*
X155936190Y-78430476D01*
X155960000Y-78382857D01*
X155983810Y-78359048D01*
X156031429Y-78335238D01*
X156102857Y-78335238D01*
X156150476Y-78359048D01*
X156174286Y-78382857D01*
X156198095Y-78430476D01*
X156198095Y-78620952D01*
X155936190Y-78168571D02*
X156436190Y-77835238D01*
X155936190Y-77835238D02*
X156436190Y-78168571D01*
D11*
X126182858Y-85538571D02*
X126682858Y-87038571D01*
X127182858Y-85538571D01*
X128468572Y-87038571D02*
X127611429Y-87038571D01*
X128040001Y-87038571D02*
X128040001Y-85538571D01*
X127897144Y-85752857D01*
X127754286Y-85895714D01*
X127611429Y-85967143D01*
X129111429Y-86895714D02*
X129182857Y-86967143D01*
X129111429Y-87038571D01*
X129040000Y-86967143D01*
X129111429Y-86895714D01*
X129111429Y-87038571D01*
X130111429Y-85538571D02*
X130254286Y-85538571D01*
X130397143Y-85610000D01*
X130468572Y-85681429D01*
X130540001Y-85824286D01*
X130611429Y-86110000D01*
X130611429Y-86467143D01*
X130540001Y-86752857D01*
X130468572Y-86895714D01*
X130397143Y-86967143D01*
X130254286Y-87038571D01*
X130111429Y-87038571D01*
X129968572Y-86967143D01*
X129897143Y-86895714D01*
X129825715Y-86752857D01*
X129754286Y-86467143D01*
X129754286Y-86110000D01*
X129825715Y-85824286D01*
X129897143Y-85681429D01*
X129968572Y-85610000D01*
X130111429Y-85538571D01*
X131254286Y-86895714D02*
X131325714Y-86967143D01*
X131254286Y-87038571D01*
X131182857Y-86967143D01*
X131254286Y-86895714D01*
X131254286Y-87038571D01*
X132254286Y-85538571D02*
X132397143Y-85538571D01*
X132540000Y-85610000D01*
X132611429Y-85681429D01*
X132682858Y-85824286D01*
X132754286Y-86110000D01*
X132754286Y-86467143D01*
X132682858Y-86752857D01*
X132611429Y-86895714D01*
X132540000Y-86967143D01*
X132397143Y-87038571D01*
X132254286Y-87038571D01*
X132111429Y-86967143D01*
X132040000Y-86895714D01*
X131968572Y-86752857D01*
X131897143Y-86467143D01*
X131897143Y-86110000D01*
X131968572Y-85824286D01*
X132040000Y-85681429D01*
X132111429Y-85610000D01*
X132254286Y-85538571D01*
D12*
X149769723Y-68325722D02*
G75*
G03X149770000Y-63714420I-1179723J2305722D01*
G01*
X147410277Y-68325722D02*
G75*
G02X147410000Y-63714420I1179723J2305722D01*
G01*
X147410277Y-68325722D02*
G75*
G03X149770000Y-68325580I1179723J2305722D01*
G01*
X151140000Y-66020000D02*
X146040000Y-66020000D01*
X151140000Y-66060000D02*
X146040000Y-66060000D01*
X151139000Y-66100000D02*
X146041000Y-66100000D01*
X151138000Y-66140000D02*
X146042000Y-66140000D01*
X151136000Y-66180000D02*
X146044000Y-66180000D01*
X151133000Y-66220000D02*
X146047000Y-66220000D01*
X151129000Y-66260000D02*
X146051000Y-66260000D01*
X151125000Y-66300000D02*
X149570000Y-66300000D01*
X147610000Y-66300000D02*
X146055000Y-66300000D01*
X151121000Y-66340000D02*
X149570000Y-66340000D01*
X147610000Y-66340000D02*
X146059000Y-66340000D01*
X151115000Y-66380000D02*
X149570000Y-66380000D01*
X147610000Y-66380000D02*
X146065000Y-66380000D01*
X151109000Y-66420000D02*
X149570000Y-66420000D01*
X147610000Y-66420000D02*
X146071000Y-66420000D01*
X151103000Y-66460000D02*
X149570000Y-66460000D01*
X147610000Y-66460000D02*
X146077000Y-66460000D01*
X151096000Y-66500000D02*
X149570000Y-66500000D01*
X147610000Y-66500000D02*
X146084000Y-66500000D01*
X151088000Y-66540000D02*
X149570000Y-66540000D01*
X147610000Y-66540000D02*
X146092000Y-66540000D01*
X151079000Y-66580000D02*
X149570000Y-66580000D01*
X147610000Y-66580000D02*
X146101000Y-66580000D01*
X151070000Y-66620000D02*
X149570000Y-66620000D01*
X147610000Y-66620000D02*
X146110000Y-66620000D01*
X151060000Y-66660000D02*
X149570000Y-66660000D01*
X147610000Y-66660000D02*
X146120000Y-66660000D01*
X151050000Y-66700000D02*
X149570000Y-66700000D01*
X147610000Y-66700000D02*
X146130000Y-66700000D01*
X151038000Y-66741000D02*
X149570000Y-66741000D01*
X147610000Y-66741000D02*
X146142000Y-66741000D01*
X151026000Y-66781000D02*
X149570000Y-66781000D01*
X147610000Y-66781000D02*
X146154000Y-66781000D01*
X151014000Y-66821000D02*
X149570000Y-66821000D01*
X147610000Y-66821000D02*
X146166000Y-66821000D01*
X151000000Y-66861000D02*
X149570000Y-66861000D01*
X147610000Y-66861000D02*
X146180000Y-66861000D01*
X150986000Y-66901000D02*
X149570000Y-66901000D01*
X147610000Y-66901000D02*
X146194000Y-66901000D01*
X150972000Y-66941000D02*
X149570000Y-66941000D01*
X147610000Y-66941000D02*
X146208000Y-66941000D01*
X150956000Y-66981000D02*
X149570000Y-66981000D01*
X147610000Y-66981000D02*
X146224000Y-66981000D01*
X150940000Y-67021000D02*
X149570000Y-67021000D01*
X147610000Y-67021000D02*
X146240000Y-67021000D01*
X150923000Y-67061000D02*
X149570000Y-67061000D01*
X147610000Y-67061000D02*
X146257000Y-67061000D01*
X150905000Y-67101000D02*
X149570000Y-67101000D01*
X147610000Y-67101000D02*
X146275000Y-67101000D01*
X150886000Y-67141000D02*
X149570000Y-67141000D01*
X147610000Y-67141000D02*
X146294000Y-67141000D01*
X150866000Y-67181000D02*
X149570000Y-67181000D01*
X147610000Y-67181000D02*
X146314000Y-67181000D01*
X150846000Y-67221000D02*
X149570000Y-67221000D01*
X147610000Y-67221000D02*
X146334000Y-67221000D01*
X150824000Y-67261000D02*
X149570000Y-67261000D01*
X147610000Y-67261000D02*
X146356000Y-67261000D01*
X150802000Y-67301000D02*
X149570000Y-67301000D01*
X147610000Y-67301000D02*
X146378000Y-67301000D01*
X150779000Y-67341000D02*
X149570000Y-67341000D01*
X147610000Y-67341000D02*
X146401000Y-67341000D01*
X150755000Y-67381000D02*
X149570000Y-67381000D01*
X147610000Y-67381000D02*
X146425000Y-67381000D01*
X150730000Y-67421000D02*
X149570000Y-67421000D01*
X147610000Y-67421000D02*
X146450000Y-67421000D01*
X150703000Y-67461000D02*
X149570000Y-67461000D01*
X147610000Y-67461000D02*
X146477000Y-67461000D01*
X150676000Y-67501000D02*
X149570000Y-67501000D01*
X147610000Y-67501000D02*
X146504000Y-67501000D01*
X150648000Y-67541000D02*
X149570000Y-67541000D01*
X147610000Y-67541000D02*
X146532000Y-67541000D01*
X150618000Y-67581000D02*
X149570000Y-67581000D01*
X147610000Y-67581000D02*
X146562000Y-67581000D01*
X150587000Y-67621000D02*
X149570000Y-67621000D01*
X147610000Y-67621000D02*
X146593000Y-67621000D01*
X150555000Y-67661000D02*
X149570000Y-67661000D01*
X147610000Y-67661000D02*
X146625000Y-67661000D01*
X150522000Y-67701000D02*
X149570000Y-67701000D01*
X147610000Y-67701000D02*
X146658000Y-67701000D01*
X150487000Y-67741000D02*
X149570000Y-67741000D01*
X147610000Y-67741000D02*
X146693000Y-67741000D01*
X150451000Y-67781000D02*
X149570000Y-67781000D01*
X147610000Y-67781000D02*
X146729000Y-67781000D01*
X150413000Y-67821000D02*
X149570000Y-67821000D01*
X147610000Y-67821000D02*
X146767000Y-67821000D01*
X150373000Y-67861000D02*
X149570000Y-67861000D01*
X147610000Y-67861000D02*
X146807000Y-67861000D01*
X150332000Y-67901000D02*
X149570000Y-67901000D01*
X147610000Y-67901000D02*
X146848000Y-67901000D01*
X150289000Y-67941000D02*
X149570000Y-67941000D01*
X147610000Y-67941000D02*
X146891000Y-67941000D01*
X150244000Y-67981000D02*
X149570000Y-67981000D01*
X147610000Y-67981000D02*
X146936000Y-67981000D01*
X150196000Y-68021000D02*
X149570000Y-68021000D01*
X147610000Y-68021000D02*
X146984000Y-68021000D01*
X150146000Y-68061000D02*
X149570000Y-68061000D01*
X147610000Y-68061000D02*
X147034000Y-68061000D01*
X150094000Y-68101000D02*
X149570000Y-68101000D01*
X147610000Y-68101000D02*
X147086000Y-68101000D01*
X150038000Y-68141000D02*
X149570000Y-68141000D01*
X147610000Y-68141000D02*
X147142000Y-68141000D01*
X149980000Y-68181000D02*
X149570000Y-68181000D01*
X147610000Y-68181000D02*
X147200000Y-68181000D01*
X149917000Y-68221000D02*
X149570000Y-68221000D01*
X147610000Y-68221000D02*
X147263000Y-68221000D01*
X149851000Y-68261000D02*
X147329000Y-68261000D01*
X149779000Y-68301000D02*
X147401000Y-68301000D01*
X149702000Y-68341000D02*
X147478000Y-68341000D01*
X149618000Y-68381000D02*
X147562000Y-68381000D01*
X149524000Y-68421000D02*
X147656000Y-68421000D01*
X149419000Y-68461000D02*
X147761000Y-68461000D01*
X149297000Y-68501000D02*
X147883000Y-68501000D01*
X149149000Y-68541000D02*
X148031000Y-68541000D01*
X148944000Y-68581000D02*
X148236000Y-68581000D01*
X148590000Y-62570000D02*
X148590000Y-63770000D01*
X149240000Y-63170000D02*
X147940000Y-63170000D01*
X135970000Y-68100000D02*
X127170000Y-68100000D01*
X127170000Y-68100000D02*
X127170000Y-58900000D01*
X141870000Y-65400000D02*
X141870000Y-68100000D01*
X141870000Y-68100000D02*
X139970000Y-68100000D01*
X127170000Y-58900000D02*
X141870000Y-58900000D01*
X141870000Y-58900000D02*
X141870000Y-61500000D01*
X156810000Y-71410000D02*
X156810000Y-71080000D01*
X156810000Y-71080000D02*
X163230000Y-71080000D01*
X163230000Y-71080000D02*
X163230000Y-71410000D01*
X156810000Y-73370000D02*
X156810000Y-73700000D01*
X156810000Y-73700000D02*
X163230000Y-73700000D01*
X163230000Y-73700000D02*
X163230000Y-73370000D01*
X175930000Y-73370000D02*
X175930000Y-73700000D01*
X175930000Y-73700000D02*
X169510000Y-73700000D01*
X169510000Y-73700000D02*
X169510000Y-73370000D01*
X175930000Y-71410000D02*
X175930000Y-71080000D01*
X175930000Y-71080000D02*
X169510000Y-71080000D01*
X169510000Y-71080000D02*
X169510000Y-71410000D01*
X144110000Y-71410000D02*
X144110000Y-71080000D01*
X144110000Y-71080000D02*
X150530000Y-71080000D01*
X150530000Y-71080000D02*
X150530000Y-71410000D01*
X144110000Y-73370000D02*
X144110000Y-73700000D01*
X144110000Y-73700000D02*
X150530000Y-73700000D01*
X150530000Y-73700000D02*
X150530000Y-73370000D01*
D13*
X144018000Y-79248000D02*
X144272000Y-79248000D01*
X144018000Y-79248000D02*
X144018000Y-80772000D01*
X144272000Y-80772000D02*
X144018000Y-80772000D01*
X150622000Y-80772000D02*
X150368000Y-80772000D01*
X150622000Y-80772000D02*
X150622000Y-79248000D01*
X150368000Y-79248000D02*
X150622000Y-79248000D01*
D14*
X148590000Y-83058000D02*
X148590000Y-82804000D01*
X146050000Y-82804000D02*
X148590000Y-82804000D01*
X146050000Y-82804000D02*
X146050000Y-83058000D01*
X146177000Y-77216000D02*
X148590000Y-77216000D01*
X146177000Y-77216000D02*
X146177000Y-76962000D01*
X148590000Y-77216000D02*
X148590000Y-76962000D01*
D13*
X149479000Y-76962000D02*
X148590000Y-76962000D01*
X145161000Y-83058000D02*
X146050000Y-83058000D01*
X146050000Y-83058000D02*
X148590000Y-83058000D01*
X148590000Y-83058000D02*
X149479000Y-83058000D01*
X148590000Y-76962000D02*
X146177000Y-76962000D01*
X146177000Y-76962000D02*
X145161000Y-76962000D01*
X144272000Y-79248000D02*
X144272000Y-78994000D01*
X144272000Y-80772000D02*
X144272000Y-81026000D01*
X150368000Y-79248000D02*
X150368000Y-78994000D01*
X150368000Y-80772000D02*
X150368000Y-81026000D01*
X149070000Y-80010000D02*
G75*
G03X149070000Y-80010000I-1750000J0D01*
G01*
D10*
X151420000Y-83610000D02*
G75*
G03X151420000Y-83610000I-250000J0D01*
G01*
D13*
X169418000Y-79248000D02*
X169672000Y-79248000D01*
X169418000Y-79248000D02*
X169418000Y-80772000D01*
X169672000Y-80772000D02*
X169418000Y-80772000D01*
X176022000Y-80772000D02*
X175768000Y-80772000D01*
X176022000Y-80772000D02*
X176022000Y-79248000D01*
X175768000Y-79248000D02*
X176022000Y-79248000D01*
D14*
X173990000Y-83058000D02*
X173990000Y-82804000D01*
X171450000Y-82804000D02*
X173990000Y-82804000D01*
X171450000Y-82804000D02*
X171450000Y-83058000D01*
X171577000Y-77216000D02*
X173990000Y-77216000D01*
X171577000Y-77216000D02*
X171577000Y-76962000D01*
X173990000Y-77216000D02*
X173990000Y-76962000D01*
D13*
X174879000Y-76962000D02*
X173990000Y-76962000D01*
X170561000Y-83058000D02*
X171450000Y-83058000D01*
X171450000Y-83058000D02*
X173990000Y-83058000D01*
X173990000Y-83058000D02*
X174879000Y-83058000D01*
X173990000Y-76962000D02*
X171577000Y-76962000D01*
X171577000Y-76962000D02*
X170561000Y-76962000D01*
X169672000Y-79248000D02*
X169672000Y-78994000D01*
X169672000Y-80772000D02*
X169672000Y-81026000D01*
X175768000Y-79248000D02*
X175768000Y-78994000D01*
X175768000Y-80772000D02*
X175768000Y-81026000D01*
X174470000Y-80010000D02*
G75*
G03X174470000Y-80010000I-1750000J0D01*
G01*
D10*
X176820000Y-83610000D02*
G75*
G03X176820000Y-83610000I-250000J0D01*
G01*
D12*
X129500000Y-72310000D02*
X139740000Y-72310000D01*
X129500000Y-76951000D02*
X139740000Y-76951000D01*
X129500000Y-72310000D02*
X129500000Y-76951000D01*
X139740000Y-72310000D02*
X139740000Y-76951000D01*
X129500000Y-73820000D02*
X139740000Y-73820000D01*
X132770000Y-72310000D02*
X132770000Y-73820000D01*
X136471000Y-72310000D02*
X136471000Y-73820000D01*
X146340000Y-58680000D02*
X150760000Y-58680000D01*
X146340000Y-60700000D02*
X150760000Y-60700000D01*
X146340000Y-58680000D02*
X146340000Y-58694000D01*
X146340000Y-60686000D02*
X146340000Y-60700000D01*
X150760000Y-58680000D02*
X150760000Y-58694000D01*
X150760000Y-60686000D02*
X150760000Y-60700000D01*
X174050000Y-62290000D02*
X174050000Y-59630000D01*
X161290000Y-62290000D02*
X174050000Y-62290000D01*
X161290000Y-59630000D02*
X174050000Y-59630000D01*
X161290000Y-62290000D02*
X161290000Y-59630000D01*
X160020000Y-62290000D02*
X158690000Y-62290000D01*
X158690000Y-62290000D02*
X158690000Y-60960000D01*
X174050000Y-66100000D02*
X174050000Y-63440000D01*
X161290000Y-66100000D02*
X174050000Y-66100000D01*
X161290000Y-63440000D02*
X174050000Y-63440000D01*
X161290000Y-66100000D02*
X161290000Y-63440000D01*
X160020000Y-66100000D02*
X158690000Y-66100000D01*
X158690000Y-66100000D02*
X158690000Y-64770000D01*
D15*
X152757143Y-66186666D02*
X152804762Y-66234285D01*
X152852381Y-66377142D01*
X152852381Y-66472380D01*
X152804762Y-66615238D01*
X152709524Y-66710476D01*
X152614286Y-66758095D01*
X152423810Y-66805714D01*
X152280952Y-66805714D01*
X152090476Y-66758095D01*
X151995238Y-66710476D01*
X151900000Y-66615238D01*
X151852381Y-66472380D01*
X151852381Y-66377142D01*
X151900000Y-66234285D01*
X151947619Y-66186666D01*
X151947619Y-65805714D02*
X151900000Y-65758095D01*
X151852381Y-65662857D01*
X151852381Y-65424761D01*
X151900000Y-65329523D01*
X151947619Y-65281904D01*
X152042857Y-65234285D01*
X152138095Y-65234285D01*
X152280952Y-65281904D01*
X152852381Y-65853333D01*
X152852381Y-65234285D01*
X131305715Y-69607143D02*
X131258096Y-69654762D01*
X131115239Y-69702381D01*
X131020001Y-69702381D01*
X130877143Y-69654762D01*
X130781905Y-69559524D01*
X130734286Y-69464286D01*
X130686667Y-69273810D01*
X130686667Y-69130952D01*
X130734286Y-68940476D01*
X130781905Y-68845238D01*
X130877143Y-68750000D01*
X131020001Y-68702381D01*
X131115239Y-68702381D01*
X131258096Y-68750000D01*
X131305715Y-68797619D01*
X131924762Y-68702381D02*
X132115239Y-68702381D01*
X132210477Y-68750000D01*
X132305715Y-68845238D01*
X132353334Y-69035714D01*
X132353334Y-69369048D01*
X132305715Y-69559524D01*
X132210477Y-69654762D01*
X132115239Y-69702381D01*
X131924762Y-69702381D01*
X131829524Y-69654762D01*
X131734286Y-69559524D01*
X131686667Y-69369048D01*
X131686667Y-69035714D01*
X131734286Y-68845238D01*
X131829524Y-68750000D01*
X131924762Y-68702381D01*
X132781905Y-69702381D02*
X132781905Y-68702381D01*
X133353334Y-69702381D01*
X133353334Y-68702381D01*
X134353334Y-69702381D02*
X133781905Y-69702381D01*
X134067619Y-69702381D02*
X134067619Y-68702381D01*
X133972381Y-68845238D01*
X133877143Y-68940476D01*
X133781905Y-68988095D01*
X159853334Y-70532381D02*
X159520000Y-70056190D01*
X159281905Y-70532381D02*
X159281905Y-69532381D01*
X159662858Y-69532381D01*
X159758096Y-69580000D01*
X159805715Y-69627619D01*
X159853334Y-69722857D01*
X159853334Y-69865714D01*
X159805715Y-69960952D01*
X159758096Y-70008571D01*
X159662858Y-70056190D01*
X159281905Y-70056190D01*
X160805715Y-70532381D02*
X160234286Y-70532381D01*
X160520000Y-70532381D02*
X160520000Y-69532381D01*
X160424762Y-69675238D01*
X160329524Y-69770476D01*
X160234286Y-69818095D01*
X172553334Y-75152381D02*
X172220000Y-74676190D01*
X171981905Y-75152381D02*
X171981905Y-74152381D01*
X172362858Y-74152381D01*
X172458096Y-74200000D01*
X172505715Y-74247619D01*
X172553334Y-74342857D01*
X172553334Y-74485714D01*
X172505715Y-74580952D01*
X172458096Y-74628571D01*
X172362858Y-74676190D01*
X171981905Y-74676190D01*
X172934286Y-74247619D02*
X172981905Y-74200000D01*
X173077143Y-74152381D01*
X173315239Y-74152381D01*
X173410477Y-74200000D01*
X173458096Y-74247619D01*
X173505715Y-74342857D01*
X173505715Y-74438095D01*
X173458096Y-74580952D01*
X172886667Y-75152381D01*
X173505715Y-75152381D01*
X147153334Y-70532381D02*
X146820000Y-70056190D01*
X146581905Y-70532381D02*
X146581905Y-69532381D01*
X146962858Y-69532381D01*
X147058096Y-69580000D01*
X147105715Y-69627619D01*
X147153334Y-69722857D01*
X147153334Y-69865714D01*
X147105715Y-69960952D01*
X147058096Y-70008571D01*
X146962858Y-70056190D01*
X146581905Y-70056190D01*
X147486667Y-69532381D02*
X148105715Y-69532381D01*
X147772381Y-69913333D01*
X147915239Y-69913333D01*
X148010477Y-69960952D01*
X148058096Y-70008571D01*
X148105715Y-70103810D01*
X148105715Y-70341905D01*
X148058096Y-70437143D01*
X148010477Y-70484762D01*
X147915239Y-70532381D01*
X147629524Y-70532381D01*
X147534286Y-70484762D01*
X147486667Y-70437143D01*
X148716879Y-85235699D02*
X148859816Y-85283344D01*
X149098045Y-85283344D01*
X149193336Y-85235699D01*
X149240982Y-85188053D01*
X149288627Y-85092761D01*
X149288627Y-84997470D01*
X149240982Y-84902179D01*
X149193336Y-84854533D01*
X149098045Y-84806887D01*
X148907462Y-84759241D01*
X148812170Y-84711596D01*
X148764525Y-84663950D01*
X148716879Y-84568659D01*
X148716879Y-84473367D01*
X148764525Y-84378076D01*
X148812170Y-84330430D01*
X148907462Y-84282784D01*
X149145690Y-84282784D01*
X149288627Y-84330430D01*
X150241541Y-85283344D02*
X149669793Y-85283344D01*
X149955667Y-85283344D02*
X149955667Y-84282784D01*
X149860376Y-84425721D01*
X149765084Y-84521013D01*
X149669793Y-84568659D01*
X174116879Y-85235699D02*
X174259816Y-85283344D01*
X174498045Y-85283344D01*
X174593336Y-85235699D01*
X174640982Y-85188053D01*
X174688627Y-85092761D01*
X174688627Y-84997470D01*
X174640982Y-84902179D01*
X174593336Y-84854533D01*
X174498045Y-84806887D01*
X174307462Y-84759241D01*
X174212170Y-84711596D01*
X174164525Y-84663950D01*
X174116879Y-84568659D01*
X174116879Y-84473367D01*
X174164525Y-84378076D01*
X174212170Y-84330430D01*
X174307462Y-84282784D01*
X174545690Y-84282784D01*
X174688627Y-84330430D01*
X175069793Y-84378076D02*
X175117439Y-84330430D01*
X175212730Y-84282784D01*
X175450959Y-84282784D01*
X175546250Y-84330430D01*
X175593896Y-84378076D01*
X175641541Y-84473367D01*
X175641541Y-84568659D01*
X175593896Y-84711596D01*
X175022147Y-85283344D01*
X175641541Y-85283344D01*
X133858095Y-70762381D02*
X133858095Y-71571905D01*
X133905714Y-71667143D01*
X133953333Y-71714762D01*
X134048571Y-71762381D01*
X134239048Y-71762381D01*
X134334286Y-71714762D01*
X134381905Y-71667143D01*
X134429524Y-71571905D01*
X134429524Y-70762381D01*
X135429524Y-71762381D02*
X134858095Y-71762381D01*
X135143809Y-71762381D02*
X135143809Y-70762381D01*
X135048571Y-70905238D01*
X134953333Y-71000476D01*
X134858095Y-71048095D01*
X148383334Y-57787143D02*
X148335715Y-57834762D01*
X148192858Y-57882381D01*
X148097620Y-57882381D01*
X147954762Y-57834762D01*
X147859524Y-57739524D01*
X147811905Y-57644286D01*
X147764286Y-57453810D01*
X147764286Y-57310952D01*
X147811905Y-57120476D01*
X147859524Y-57025238D01*
X147954762Y-56930000D01*
X148097620Y-56882381D01*
X148192858Y-56882381D01*
X148335715Y-56930000D01*
X148383334Y-56977619D01*
X149335715Y-57882381D02*
X148764286Y-57882381D01*
X149050000Y-57882381D02*
X149050000Y-56882381D01*
X148954762Y-57025238D01*
X148859524Y-57120476D01*
X148764286Y-57168095D01*
X158142381Y-61698095D02*
X157142381Y-61698095D01*
X157142381Y-61317142D01*
X157190000Y-61221904D01*
X157237619Y-61174285D01*
X157332857Y-61126666D01*
X157475714Y-61126666D01*
X157570952Y-61174285D01*
X157618571Y-61221904D01*
X157666190Y-61317142D01*
X157666190Y-61698095D01*
X158142381Y-60174285D02*
X158142381Y-60745714D01*
X158142381Y-60460000D02*
X157142381Y-60460000D01*
X157285238Y-60555238D01*
X157380476Y-60650476D01*
X157428095Y-60745714D01*
X158142381Y-65508095D02*
X157142381Y-65508095D01*
X157142381Y-65127142D01*
X157190000Y-65031904D01*
X157237619Y-64984285D01*
X157332857Y-64936666D01*
X157475714Y-64936666D01*
X157570952Y-64984285D01*
X157618571Y-65031904D01*
X157666190Y-65127142D01*
X157666190Y-65508095D01*
X157237619Y-64555714D02*
X157190000Y-64508095D01*
X157142381Y-64412857D01*
X157142381Y-64174761D01*
X157190000Y-64079523D01*
X157237619Y-64031904D01*
X157332857Y-63984285D01*
X157428095Y-63984285D01*
X157570952Y-64031904D01*
X158142381Y-64603333D01*
X158142381Y-63984285D01*
M02*
