G04 #@! TF.FileFunction,Copper,L2,Bot,Signal*
%FSLAX46Y46*%
G04 Gerber Fmt 4.6, Leading zero omitted, Abs format (unit mm)*
G04 Created by KiCad (PCBNEW 4.0.5+dfsg1-4~bpo8+1) date Tue Aug 29 22:55:19 2017*
%MOMM*%
%LPD*%
G01*
G04 APERTURE LIST*
%ADD10C,0.100000*%
%ADD11R,1.600000X1.600000*%
%ADD12C,1.600000*%
%ADD13R,3.500000X3.500000*%
%ADD14R,1.700000X1.700000*%
%ADD15O,1.700000X1.700000*%
%ADD16O,1.600000X1.600000*%
%ADD17R,1.800000X1.800000*%
%ADD18O,1.800000X1.800000*%
%ADD19C,0.250000*%
%ADD20C,0.254000*%
G04 APERTURE END LIST*
D10*
D11*
X149860000Y-81280000D03*
D12*
X149860000Y-83780000D03*
D13*
X142240000Y-76200000D03*
X136240000Y-76200000D03*
X139240000Y-80900000D03*
D14*
X137160000Y-93980000D03*
D15*
X139700000Y-93980000D03*
X137160000Y-96520000D03*
X139700000Y-96520000D03*
X137160000Y-99060000D03*
X139700000Y-99060000D03*
X137160000Y-101600000D03*
X139700000Y-101600000D03*
D12*
X153670000Y-88900000D03*
D16*
X146050000Y-88900000D03*
D12*
X165100000Y-93980000D03*
D16*
X157480000Y-93980000D03*
D12*
X153670000Y-93980000D03*
D16*
X146050000Y-93980000D03*
D12*
X153110000Y-102580000D03*
X153110000Y-98080000D03*
X146610000Y-102580000D03*
X146610000Y-98080000D03*
X164540000Y-102580000D03*
X164540000Y-98080000D03*
X158040000Y-102580000D03*
X158040000Y-98080000D03*
D17*
X135890000Y-87630000D03*
D18*
X138430000Y-87630000D03*
X140970000Y-87630000D03*
D12*
X147320000Y-76200000D03*
X152320000Y-76200000D03*
D14*
X158750000Y-76200000D03*
D15*
X158750000Y-78740000D03*
X158750000Y-81280000D03*
X158750000Y-83820000D03*
X158750000Y-86360000D03*
X158750000Y-88900000D03*
D14*
X162560000Y-76200000D03*
D15*
X162560000Y-78740000D03*
X162560000Y-81280000D03*
X162560000Y-83820000D03*
X162560000Y-86360000D03*
X162560000Y-88900000D03*
D19*
X149860000Y-81280000D02*
X148590000Y-81280000D01*
X143510000Y-90170000D02*
X139700000Y-93980000D01*
X143510000Y-86360000D02*
X143510000Y-90170000D01*
X148590000Y-81280000D02*
X143510000Y-86360000D01*
X153670000Y-93980000D02*
X156210000Y-91440000D01*
X162560000Y-91440000D02*
X165100000Y-93980000D01*
X156210000Y-91440000D02*
X162560000Y-91440000D01*
X153670000Y-93980000D02*
X153670000Y-88900000D01*
X139700000Y-93980000D02*
X140970000Y-93980000D01*
X142240000Y-96520000D02*
X139700000Y-99060000D01*
X142240000Y-95250000D02*
X142240000Y-96520000D01*
X140970000Y-93980000D02*
X142240000Y-95250000D01*
X138430000Y-87630000D02*
X138430000Y-90170000D01*
X139700000Y-91440000D02*
X139700000Y-93980000D01*
X138430000Y-90170000D02*
X139700000Y-91440000D01*
X158750000Y-78740000D02*
X162560000Y-78740000D01*
X146050000Y-93980000D02*
X146050000Y-92710000D01*
X157480000Y-78740000D02*
X158750000Y-78740000D01*
X154940000Y-81280000D02*
X157480000Y-78740000D01*
X154940000Y-83820000D02*
X154940000Y-81280000D01*
X146050000Y-92710000D02*
X154940000Y-83820000D01*
X146610000Y-98080000D02*
X146610000Y-94540000D01*
X146610000Y-94540000D02*
X146050000Y-93980000D01*
X137160000Y-96520000D02*
X135890000Y-96520000D01*
X140970000Y-104140000D02*
X146610000Y-98500000D01*
X135890000Y-104140000D02*
X140970000Y-104140000D01*
X134620000Y-102870000D02*
X135890000Y-104140000D01*
X134620000Y-97790000D02*
X134620000Y-102870000D01*
X135890000Y-96520000D02*
X134620000Y-97790000D01*
X146610000Y-98500000D02*
X146610000Y-98080000D01*
D20*
G36*
X166930000Y-105970000D02*
X132790000Y-105970000D01*
X132790000Y-97790000D01*
X133860000Y-97790000D01*
X133860000Y-102870000D01*
X133917852Y-103160839D01*
X134082599Y-103407401D01*
X135352599Y-104677401D01*
X135599160Y-104842148D01*
X135890000Y-104900000D01*
X140970000Y-104900000D01*
X141260839Y-104842148D01*
X141507401Y-104677401D01*
X142597057Y-103587745D01*
X145781861Y-103587745D01*
X145855995Y-103833864D01*
X146393223Y-104026965D01*
X146963454Y-103999778D01*
X147364005Y-103833864D01*
X147438139Y-103587745D01*
X146610000Y-102759605D01*
X145781861Y-103587745D01*
X142597057Y-103587745D01*
X143821579Y-102363223D01*
X145163035Y-102363223D01*
X145190222Y-102933454D01*
X145356136Y-103334005D01*
X145602255Y-103408139D01*
X146430395Y-102580000D01*
X146789605Y-102580000D01*
X147617745Y-103408139D01*
X147863864Y-103334005D01*
X148032735Y-102864187D01*
X151674752Y-102864187D01*
X151892757Y-103391800D01*
X152296077Y-103795824D01*
X152823309Y-104014750D01*
X153394187Y-104015248D01*
X153921800Y-103797243D01*
X154131663Y-103587745D01*
X157211861Y-103587745D01*
X157285995Y-103833864D01*
X157823223Y-104026965D01*
X158393454Y-103999778D01*
X158794005Y-103833864D01*
X158868139Y-103587745D01*
X158040000Y-102759605D01*
X157211861Y-103587745D01*
X154131663Y-103587745D01*
X154325824Y-103393923D01*
X154544750Y-102866691D01*
X154545189Y-102363223D01*
X156593035Y-102363223D01*
X156620222Y-102933454D01*
X156786136Y-103334005D01*
X157032255Y-103408139D01*
X157860395Y-102580000D01*
X158219605Y-102580000D01*
X159047745Y-103408139D01*
X159293864Y-103334005D01*
X159462735Y-102864187D01*
X163104752Y-102864187D01*
X163322757Y-103391800D01*
X163726077Y-103795824D01*
X164253309Y-104014750D01*
X164824187Y-104015248D01*
X165351800Y-103797243D01*
X165755824Y-103393923D01*
X165974750Y-102866691D01*
X165975248Y-102295813D01*
X165757243Y-101768200D01*
X165353923Y-101364176D01*
X164826691Y-101145250D01*
X164255813Y-101144752D01*
X163728200Y-101362757D01*
X163324176Y-101766077D01*
X163105250Y-102293309D01*
X163104752Y-102864187D01*
X159462735Y-102864187D01*
X159486965Y-102796777D01*
X159459778Y-102226546D01*
X159293864Y-101825995D01*
X159047745Y-101751861D01*
X158219605Y-102580000D01*
X157860395Y-102580000D01*
X157032255Y-101751861D01*
X156786136Y-101825995D01*
X156593035Y-102363223D01*
X154545189Y-102363223D01*
X154545248Y-102295813D01*
X154327243Y-101768200D01*
X154131640Y-101572255D01*
X157211861Y-101572255D01*
X158040000Y-102400395D01*
X158868139Y-101572255D01*
X158794005Y-101326136D01*
X158256777Y-101133035D01*
X157686546Y-101160222D01*
X157285995Y-101326136D01*
X157211861Y-101572255D01*
X154131640Y-101572255D01*
X153923923Y-101364176D01*
X153396691Y-101145250D01*
X152825813Y-101144752D01*
X152298200Y-101362757D01*
X151894176Y-101766077D01*
X151675250Y-102293309D01*
X151674752Y-102864187D01*
X148032735Y-102864187D01*
X148056965Y-102796777D01*
X148029778Y-102226546D01*
X147863864Y-101825995D01*
X147617745Y-101751861D01*
X146789605Y-102580000D01*
X146430395Y-102580000D01*
X145602255Y-101751861D01*
X145356136Y-101825995D01*
X145163035Y-102363223D01*
X143821579Y-102363223D01*
X144612547Y-101572255D01*
X145781861Y-101572255D01*
X146610000Y-102400395D01*
X147438139Y-101572255D01*
X147364005Y-101326136D01*
X146826777Y-101133035D01*
X146256546Y-101160222D01*
X145855995Y-101326136D01*
X145781861Y-101572255D01*
X144612547Y-101572255D01*
X146669751Y-99515052D01*
X146894187Y-99515248D01*
X147421800Y-99297243D01*
X147825824Y-98893923D01*
X148044750Y-98366691D01*
X148044752Y-98364187D01*
X151674752Y-98364187D01*
X151892757Y-98891800D01*
X152296077Y-99295824D01*
X152823309Y-99514750D01*
X153394187Y-99515248D01*
X153921800Y-99297243D01*
X154325824Y-98893923D01*
X154544750Y-98366691D01*
X154544752Y-98364187D01*
X156604752Y-98364187D01*
X156822757Y-98891800D01*
X157226077Y-99295824D01*
X157753309Y-99514750D01*
X158324187Y-99515248D01*
X158851800Y-99297243D01*
X159255824Y-98893923D01*
X159474750Y-98366691D01*
X159474752Y-98364187D01*
X163104752Y-98364187D01*
X163322757Y-98891800D01*
X163726077Y-99295824D01*
X164253309Y-99514750D01*
X164824187Y-99515248D01*
X165351800Y-99297243D01*
X165755824Y-98893923D01*
X165974750Y-98366691D01*
X165975248Y-97795813D01*
X165757243Y-97268200D01*
X165353923Y-96864176D01*
X164826691Y-96645250D01*
X164255813Y-96644752D01*
X163728200Y-96862757D01*
X163324176Y-97266077D01*
X163105250Y-97793309D01*
X163104752Y-98364187D01*
X159474752Y-98364187D01*
X159475248Y-97795813D01*
X159257243Y-97268200D01*
X158853923Y-96864176D01*
X158326691Y-96645250D01*
X157755813Y-96644752D01*
X157228200Y-96862757D01*
X156824176Y-97266077D01*
X156605250Y-97793309D01*
X156604752Y-98364187D01*
X154544752Y-98364187D01*
X154545248Y-97795813D01*
X154327243Y-97268200D01*
X153923923Y-96864176D01*
X153396691Y-96645250D01*
X152825813Y-96644752D01*
X152298200Y-96862757D01*
X151894176Y-97266077D01*
X151675250Y-97793309D01*
X151674752Y-98364187D01*
X148044752Y-98364187D01*
X148045248Y-97795813D01*
X147827243Y-97268200D01*
X147423923Y-96864176D01*
X147370000Y-96841785D01*
X147370000Y-94579856D01*
X147403880Y-94529151D01*
X147513113Y-93980000D01*
X147403880Y-93430849D01*
X147092811Y-92965302D01*
X146958946Y-92875856D01*
X150650615Y-89184187D01*
X152234752Y-89184187D01*
X152452757Y-89711800D01*
X152856077Y-90115824D01*
X152910000Y-90138215D01*
X152910000Y-92741354D01*
X152858200Y-92762757D01*
X152454176Y-93166077D01*
X152235250Y-93693309D01*
X152234752Y-94264187D01*
X152452757Y-94791800D01*
X152856077Y-95195824D01*
X153383309Y-95414750D01*
X153954187Y-95415248D01*
X154481800Y-95197243D01*
X154885824Y-94793923D01*
X155104750Y-94266691D01*
X155105000Y-93980000D01*
X156016887Y-93980000D01*
X156126120Y-94529151D01*
X156437189Y-94994698D01*
X156902736Y-95305767D01*
X157451887Y-95415000D01*
X157508113Y-95415000D01*
X158057264Y-95305767D01*
X158522811Y-94994698D01*
X158833880Y-94529151D01*
X158943113Y-93980000D01*
X158833880Y-93430849D01*
X158522811Y-92965302D01*
X158057264Y-92654233D01*
X157508113Y-92545000D01*
X157451887Y-92545000D01*
X156902736Y-92654233D01*
X156437189Y-92965302D01*
X156126120Y-93430849D01*
X156016887Y-93980000D01*
X155105000Y-93980000D01*
X155105248Y-93695813D01*
X155082951Y-93641851D01*
X156524802Y-92200000D01*
X162245198Y-92200000D01*
X163686744Y-93641546D01*
X163665250Y-93693309D01*
X163664752Y-94264187D01*
X163882757Y-94791800D01*
X164286077Y-95195824D01*
X164813309Y-95414750D01*
X165384187Y-95415248D01*
X165911800Y-95197243D01*
X166315824Y-94793923D01*
X166534750Y-94266691D01*
X166535248Y-93695813D01*
X166317243Y-93168200D01*
X165913923Y-92764176D01*
X165386691Y-92545250D01*
X164815813Y-92544752D01*
X164761851Y-92567049D01*
X163097401Y-90902599D01*
X162850839Y-90737852D01*
X162560000Y-90680000D01*
X156210000Y-90680000D01*
X155967414Y-90728254D01*
X155919160Y-90737852D01*
X155672599Y-90902599D01*
X154430000Y-92145198D01*
X154430000Y-90138646D01*
X154481800Y-90117243D01*
X154885824Y-89713923D01*
X155075600Y-89256890D01*
X157308524Y-89256890D01*
X157478355Y-89666924D01*
X157868642Y-90095183D01*
X158393108Y-90341486D01*
X158623000Y-90220819D01*
X158623000Y-89027000D01*
X158877000Y-89027000D01*
X158877000Y-90220819D01*
X159106892Y-90341486D01*
X159631358Y-90095183D01*
X160021645Y-89666924D01*
X160191476Y-89256890D01*
X161118524Y-89256890D01*
X161288355Y-89666924D01*
X161678642Y-90095183D01*
X162203108Y-90341486D01*
X162433000Y-90220819D01*
X162433000Y-89027000D01*
X162687000Y-89027000D01*
X162687000Y-90220819D01*
X162916892Y-90341486D01*
X163441358Y-90095183D01*
X163831645Y-89666924D01*
X164001476Y-89256890D01*
X163880155Y-89027000D01*
X162687000Y-89027000D01*
X162433000Y-89027000D01*
X161239845Y-89027000D01*
X161118524Y-89256890D01*
X160191476Y-89256890D01*
X160070155Y-89027000D01*
X158877000Y-89027000D01*
X158623000Y-89027000D01*
X157429845Y-89027000D01*
X157308524Y-89256890D01*
X155075600Y-89256890D01*
X155104750Y-89186691D01*
X155105248Y-88615813D01*
X154887243Y-88088200D01*
X154483923Y-87684176D01*
X153956691Y-87465250D01*
X153385813Y-87464752D01*
X152858200Y-87682757D01*
X152454176Y-88086077D01*
X152235250Y-88613309D01*
X152234752Y-89184187D01*
X150650615Y-89184187D01*
X155477401Y-84357401D01*
X155642148Y-84110839D01*
X155700000Y-83820000D01*
X155700000Y-81594802D01*
X157604321Y-79690481D01*
X157670853Y-79790054D01*
X158000026Y-80010000D01*
X157670853Y-80229946D01*
X157348946Y-80711715D01*
X157235907Y-81280000D01*
X157348946Y-81848285D01*
X157670853Y-82330054D01*
X158000026Y-82550000D01*
X157670853Y-82769946D01*
X157348946Y-83251715D01*
X157235907Y-83820000D01*
X157348946Y-84388285D01*
X157670853Y-84870054D01*
X158000026Y-85090000D01*
X157670853Y-85309946D01*
X157348946Y-85791715D01*
X157235907Y-86360000D01*
X157348946Y-86928285D01*
X157670853Y-87410054D01*
X158011553Y-87637702D01*
X157868642Y-87704817D01*
X157478355Y-88133076D01*
X157308524Y-88543110D01*
X157429845Y-88773000D01*
X158623000Y-88773000D01*
X158623000Y-88753000D01*
X158877000Y-88753000D01*
X158877000Y-88773000D01*
X160070155Y-88773000D01*
X160191476Y-88543110D01*
X160021645Y-88133076D01*
X159631358Y-87704817D01*
X159488447Y-87637702D01*
X159829147Y-87410054D01*
X160151054Y-86928285D01*
X160264093Y-86360000D01*
X160151054Y-85791715D01*
X159829147Y-85309946D01*
X159499974Y-85090000D01*
X159829147Y-84870054D01*
X160151054Y-84388285D01*
X160264093Y-83820000D01*
X160151054Y-83251715D01*
X159829147Y-82769946D01*
X159499974Y-82550000D01*
X159829147Y-82330054D01*
X160151054Y-81848285D01*
X160264093Y-81280000D01*
X160151054Y-80711715D01*
X159829147Y-80229946D01*
X159499974Y-80010000D01*
X159829147Y-79790054D01*
X160022954Y-79500000D01*
X161287046Y-79500000D01*
X161480853Y-79790054D01*
X161810026Y-80010000D01*
X161480853Y-80229946D01*
X161158946Y-80711715D01*
X161045907Y-81280000D01*
X161158946Y-81848285D01*
X161480853Y-82330054D01*
X161810026Y-82550000D01*
X161480853Y-82769946D01*
X161158946Y-83251715D01*
X161045907Y-83820000D01*
X161158946Y-84388285D01*
X161480853Y-84870054D01*
X161810026Y-85090000D01*
X161480853Y-85309946D01*
X161158946Y-85791715D01*
X161045907Y-86360000D01*
X161158946Y-86928285D01*
X161480853Y-87410054D01*
X161821553Y-87637702D01*
X161678642Y-87704817D01*
X161288355Y-88133076D01*
X161118524Y-88543110D01*
X161239845Y-88773000D01*
X162433000Y-88773000D01*
X162433000Y-88753000D01*
X162687000Y-88753000D01*
X162687000Y-88773000D01*
X163880155Y-88773000D01*
X164001476Y-88543110D01*
X163831645Y-88133076D01*
X163441358Y-87704817D01*
X163298447Y-87637702D01*
X163639147Y-87410054D01*
X163961054Y-86928285D01*
X164074093Y-86360000D01*
X163961054Y-85791715D01*
X163639147Y-85309946D01*
X163309974Y-85090000D01*
X163639147Y-84870054D01*
X163961054Y-84388285D01*
X164074093Y-83820000D01*
X163961054Y-83251715D01*
X163639147Y-82769946D01*
X163309974Y-82550000D01*
X163639147Y-82330054D01*
X163961054Y-81848285D01*
X164074093Y-81280000D01*
X163961054Y-80711715D01*
X163639147Y-80229946D01*
X163309974Y-80010000D01*
X163639147Y-79790054D01*
X163961054Y-79308285D01*
X164074093Y-78740000D01*
X163961054Y-78171715D01*
X163639147Y-77689946D01*
X163597548Y-77662150D01*
X163645317Y-77653162D01*
X163861441Y-77514090D01*
X164006431Y-77301890D01*
X164057440Y-77050000D01*
X164057440Y-75350000D01*
X164013162Y-75114683D01*
X163874090Y-74898559D01*
X163661890Y-74753569D01*
X163410000Y-74702560D01*
X161710000Y-74702560D01*
X161474683Y-74746838D01*
X161258559Y-74885910D01*
X161113569Y-75098110D01*
X161062560Y-75350000D01*
X161062560Y-77050000D01*
X161106838Y-77285317D01*
X161245910Y-77501441D01*
X161458110Y-77646431D01*
X161525541Y-77660086D01*
X161480853Y-77689946D01*
X161287046Y-77980000D01*
X160022954Y-77980000D01*
X159829147Y-77689946D01*
X159787548Y-77662150D01*
X159835317Y-77653162D01*
X160051441Y-77514090D01*
X160196431Y-77301890D01*
X160247440Y-77050000D01*
X160247440Y-75350000D01*
X160203162Y-75114683D01*
X160064090Y-74898559D01*
X159851890Y-74753569D01*
X159600000Y-74702560D01*
X157900000Y-74702560D01*
X157664683Y-74746838D01*
X157448559Y-74885910D01*
X157303569Y-75098110D01*
X157252560Y-75350000D01*
X157252560Y-77050000D01*
X157296838Y-77285317D01*
X157435910Y-77501441D01*
X157648110Y-77646431D01*
X157715541Y-77660086D01*
X157670853Y-77689946D01*
X157476593Y-77980678D01*
X157237414Y-78028254D01*
X157189160Y-78037852D01*
X156942599Y-78202599D01*
X154402599Y-80742599D01*
X154237852Y-80989161D01*
X154180000Y-81280000D01*
X154180000Y-83505198D01*
X145512599Y-92172599D01*
X145347852Y-92419161D01*
X145290000Y-92710000D01*
X145290000Y-92776333D01*
X145007189Y-92965302D01*
X144696120Y-93430849D01*
X144586887Y-93980000D01*
X144696120Y-94529151D01*
X145007189Y-94994698D01*
X145472736Y-95305767D01*
X145850000Y-95380810D01*
X145850000Y-96841354D01*
X145798200Y-96862757D01*
X145394176Y-97266077D01*
X145175250Y-97793309D01*
X145174752Y-98364187D01*
X145319849Y-98715348D01*
X140655198Y-103380000D01*
X136204802Y-103380000D01*
X135380000Y-102555198D01*
X135380000Y-101956890D01*
X135718524Y-101956890D01*
X135888355Y-102366924D01*
X136278642Y-102795183D01*
X136803108Y-103041486D01*
X137033000Y-102920819D01*
X137033000Y-101727000D01*
X135839845Y-101727000D01*
X135718524Y-101956890D01*
X135380000Y-101956890D01*
X135380000Y-98104802D01*
X136014321Y-97470481D01*
X136080853Y-97570054D01*
X136410026Y-97790000D01*
X136080853Y-98009946D01*
X135758946Y-98491715D01*
X135645907Y-99060000D01*
X135758946Y-99628285D01*
X136080853Y-100110054D01*
X136421553Y-100337702D01*
X136278642Y-100404817D01*
X135888355Y-100833076D01*
X135718524Y-101243110D01*
X135839845Y-101473000D01*
X137033000Y-101473000D01*
X137033000Y-101453000D01*
X137287000Y-101453000D01*
X137287000Y-101473000D01*
X137307000Y-101473000D01*
X137307000Y-101727000D01*
X137287000Y-101727000D01*
X137287000Y-102920819D01*
X137516892Y-103041486D01*
X138041358Y-102795183D01*
X138431645Y-102366924D01*
X138431655Y-102366899D01*
X138620853Y-102650054D01*
X139102622Y-102971961D01*
X139670907Y-103085000D01*
X139729093Y-103085000D01*
X140297378Y-102971961D01*
X140779147Y-102650054D01*
X141101054Y-102168285D01*
X141214093Y-101600000D01*
X141101054Y-101031715D01*
X140779147Y-100549946D01*
X140449974Y-100330000D01*
X140779147Y-100110054D01*
X141101054Y-99628285D01*
X141214093Y-99060000D01*
X141141210Y-98693592D01*
X142777401Y-97057401D01*
X142942148Y-96810840D01*
X142975185Y-96644752D01*
X143000000Y-96520000D01*
X143000000Y-95250000D01*
X142963264Y-95065317D01*
X142942148Y-94959160D01*
X142777401Y-94712599D01*
X141507401Y-93442599D01*
X141390388Y-93364414D01*
X144047401Y-90707401D01*
X144212148Y-90460839D01*
X144270000Y-90170000D01*
X144270000Y-88900000D01*
X144586887Y-88900000D01*
X144696120Y-89449151D01*
X145007189Y-89914698D01*
X145472736Y-90225767D01*
X146021887Y-90335000D01*
X146078113Y-90335000D01*
X146627264Y-90225767D01*
X147092811Y-89914698D01*
X147403880Y-89449151D01*
X147513113Y-88900000D01*
X147403880Y-88350849D01*
X147092811Y-87885302D01*
X146627264Y-87574233D01*
X146078113Y-87465000D01*
X146021887Y-87465000D01*
X145472736Y-87574233D01*
X145007189Y-87885302D01*
X144696120Y-88350849D01*
X144586887Y-88900000D01*
X144270000Y-88900000D01*
X144270000Y-86674802D01*
X146157057Y-84787745D01*
X149031861Y-84787745D01*
X149105995Y-85033864D01*
X149643223Y-85226965D01*
X150213454Y-85199778D01*
X150614005Y-85033864D01*
X150688139Y-84787745D01*
X149860000Y-83959605D01*
X149031861Y-84787745D01*
X146157057Y-84787745D01*
X147381579Y-83563223D01*
X148413035Y-83563223D01*
X148440222Y-84133454D01*
X148606136Y-84534005D01*
X148852255Y-84608139D01*
X149680395Y-83780000D01*
X150039605Y-83780000D01*
X150867745Y-84608139D01*
X151113864Y-84534005D01*
X151306965Y-83996777D01*
X151279778Y-83426546D01*
X151113864Y-83025995D01*
X150867745Y-82951861D01*
X150039605Y-83780000D01*
X149680395Y-83780000D01*
X148852255Y-82951861D01*
X148606136Y-83025995D01*
X148413035Y-83563223D01*
X147381579Y-83563223D01*
X148524436Y-82420366D01*
X148595910Y-82531441D01*
X148808110Y-82676431D01*
X149046201Y-82724646D01*
X149031861Y-82772255D01*
X149860000Y-83600395D01*
X150688139Y-82772255D01*
X150673855Y-82724833D01*
X150895317Y-82683162D01*
X151111441Y-82544090D01*
X151256431Y-82331890D01*
X151307440Y-82080000D01*
X151307440Y-80480000D01*
X151263162Y-80244683D01*
X151124090Y-80028559D01*
X150911890Y-79883569D01*
X150660000Y-79832560D01*
X149060000Y-79832560D01*
X148824683Y-79876838D01*
X148608559Y-80015910D01*
X148463569Y-80228110D01*
X148412560Y-80480000D01*
X148412560Y-80555295D01*
X148299161Y-80577852D01*
X148052599Y-80742599D01*
X142972599Y-85822599D01*
X142807852Y-86069161D01*
X142750000Y-86360000D01*
X142750000Y-89855198D01*
X140460000Y-92145198D01*
X140460000Y-91440000D01*
X140402148Y-91149161D01*
X140402148Y-91149160D01*
X140237401Y-90902599D01*
X139190000Y-89855198D01*
X139190000Y-88952934D01*
X139545481Y-88715409D01*
X139700000Y-88484155D01*
X139854519Y-88715409D01*
X140352509Y-89048155D01*
X140939928Y-89165000D01*
X141000072Y-89165000D01*
X141587491Y-89048155D01*
X142085481Y-88715409D01*
X142418227Y-88217419D01*
X142535072Y-87630000D01*
X142418227Y-87042581D01*
X142085481Y-86544591D01*
X141587491Y-86211845D01*
X141000072Y-86095000D01*
X140939928Y-86095000D01*
X140352509Y-86211845D01*
X139854519Y-86544591D01*
X139700000Y-86775845D01*
X139545481Y-86544591D01*
X139047491Y-86211845D01*
X138460072Y-86095000D01*
X138399928Y-86095000D01*
X137812509Y-86211845D01*
X137381878Y-86499583D01*
X137328327Y-86370301D01*
X137149698Y-86191673D01*
X136916309Y-86095000D01*
X136175750Y-86095000D01*
X136017000Y-86253750D01*
X136017000Y-87503000D01*
X136037000Y-87503000D01*
X136037000Y-87757000D01*
X136017000Y-87757000D01*
X136017000Y-89006250D01*
X136175750Y-89165000D01*
X136916309Y-89165000D01*
X137149698Y-89068327D01*
X137328327Y-88889699D01*
X137381878Y-88760417D01*
X137670000Y-88952934D01*
X137670000Y-90170000D01*
X137727852Y-90460839D01*
X137892599Y-90707401D01*
X138940000Y-91754802D01*
X138940000Y-92716699D01*
X138620853Y-92929946D01*
X138620029Y-92931179D01*
X138613162Y-92894683D01*
X138474090Y-92678559D01*
X138261890Y-92533569D01*
X138010000Y-92482560D01*
X136310000Y-92482560D01*
X136074683Y-92526838D01*
X135858559Y-92665910D01*
X135713569Y-92878110D01*
X135662560Y-93130000D01*
X135662560Y-94830000D01*
X135706838Y-95065317D01*
X135845910Y-95281441D01*
X136058110Y-95426431D01*
X136125541Y-95440086D01*
X136080853Y-95469946D01*
X135886593Y-95760678D01*
X135599160Y-95817852D01*
X135352599Y-95982599D01*
X134082599Y-97252599D01*
X133917852Y-97499161D01*
X133860000Y-97790000D01*
X132790000Y-97790000D01*
X132790000Y-87915750D01*
X134355000Y-87915750D01*
X134355000Y-88656310D01*
X134451673Y-88889699D01*
X134630302Y-89068327D01*
X134863691Y-89165000D01*
X135604250Y-89165000D01*
X135763000Y-89006250D01*
X135763000Y-87757000D01*
X134513750Y-87757000D01*
X134355000Y-87915750D01*
X132790000Y-87915750D01*
X132790000Y-86603690D01*
X134355000Y-86603690D01*
X134355000Y-87344250D01*
X134513750Y-87503000D01*
X135763000Y-87503000D01*
X135763000Y-86253750D01*
X135604250Y-86095000D01*
X134863691Y-86095000D01*
X134630302Y-86191673D01*
X134451673Y-86370301D01*
X134355000Y-86603690D01*
X132790000Y-86603690D01*
X132790000Y-76485750D01*
X133855000Y-76485750D01*
X133855000Y-78076310D01*
X133951673Y-78309699D01*
X134130302Y-78488327D01*
X134363691Y-78585000D01*
X135954250Y-78585000D01*
X136113000Y-78426250D01*
X136113000Y-76327000D01*
X136367000Y-76327000D01*
X136367000Y-78426250D01*
X136525750Y-78585000D01*
X137195378Y-78585000D01*
X137038559Y-78685910D01*
X136893569Y-78898110D01*
X136842560Y-79150000D01*
X136842560Y-82650000D01*
X136886838Y-82885317D01*
X137025910Y-83101441D01*
X137238110Y-83246431D01*
X137490000Y-83297440D01*
X140990000Y-83297440D01*
X141225317Y-83253162D01*
X141441441Y-83114090D01*
X141586431Y-82901890D01*
X141637440Y-82650000D01*
X141637440Y-79150000D01*
X141593162Y-78914683D01*
X141454090Y-78698559D01*
X141306097Y-78597440D01*
X143990000Y-78597440D01*
X144225317Y-78553162D01*
X144441441Y-78414090D01*
X144586431Y-78201890D01*
X144637440Y-77950000D01*
X144637440Y-76484187D01*
X145884752Y-76484187D01*
X146102757Y-77011800D01*
X146506077Y-77415824D01*
X147033309Y-77634750D01*
X147604187Y-77635248D01*
X148131800Y-77417243D01*
X148341663Y-77207745D01*
X151491861Y-77207745D01*
X151565995Y-77453864D01*
X152103223Y-77646965D01*
X152673454Y-77619778D01*
X153074005Y-77453864D01*
X153148139Y-77207745D01*
X152320000Y-76379605D01*
X151491861Y-77207745D01*
X148341663Y-77207745D01*
X148535824Y-77013923D01*
X148754750Y-76486691D01*
X148755189Y-75983223D01*
X150873035Y-75983223D01*
X150900222Y-76553454D01*
X151066136Y-76954005D01*
X151312255Y-77028139D01*
X152140395Y-76200000D01*
X152499605Y-76200000D01*
X153327745Y-77028139D01*
X153573864Y-76954005D01*
X153766965Y-76416777D01*
X153739778Y-75846546D01*
X153573864Y-75445995D01*
X153327745Y-75371861D01*
X152499605Y-76200000D01*
X152140395Y-76200000D01*
X151312255Y-75371861D01*
X151066136Y-75445995D01*
X150873035Y-75983223D01*
X148755189Y-75983223D01*
X148755248Y-75915813D01*
X148537243Y-75388200D01*
X148341640Y-75192255D01*
X151491861Y-75192255D01*
X152320000Y-76020395D01*
X153148139Y-75192255D01*
X153074005Y-74946136D01*
X152536777Y-74753035D01*
X151966546Y-74780222D01*
X151565995Y-74946136D01*
X151491861Y-75192255D01*
X148341640Y-75192255D01*
X148133923Y-74984176D01*
X147606691Y-74765250D01*
X147035813Y-74764752D01*
X146508200Y-74982757D01*
X146104176Y-75386077D01*
X145885250Y-75913309D01*
X145884752Y-76484187D01*
X144637440Y-76484187D01*
X144637440Y-74450000D01*
X144593162Y-74214683D01*
X144454090Y-73998559D01*
X144241890Y-73853569D01*
X143990000Y-73802560D01*
X140490000Y-73802560D01*
X140254683Y-73846838D01*
X140038559Y-73985910D01*
X139893569Y-74198110D01*
X139842560Y-74450000D01*
X139842560Y-77950000D01*
X139886838Y-78185317D01*
X140025910Y-78401441D01*
X140173903Y-78502560D01*
X138315337Y-78502560D01*
X138349698Y-78488327D01*
X138528327Y-78309699D01*
X138625000Y-78076310D01*
X138625000Y-76485750D01*
X138466250Y-76327000D01*
X136367000Y-76327000D01*
X136113000Y-76327000D01*
X134013750Y-76327000D01*
X133855000Y-76485750D01*
X132790000Y-76485750D01*
X132790000Y-74323690D01*
X133855000Y-74323690D01*
X133855000Y-75914250D01*
X134013750Y-76073000D01*
X136113000Y-76073000D01*
X136113000Y-73973750D01*
X136367000Y-73973750D01*
X136367000Y-76073000D01*
X138466250Y-76073000D01*
X138625000Y-75914250D01*
X138625000Y-74323690D01*
X138528327Y-74090301D01*
X138349698Y-73911673D01*
X138116309Y-73815000D01*
X136525750Y-73815000D01*
X136367000Y-73973750D01*
X136113000Y-73973750D01*
X135954250Y-73815000D01*
X134363691Y-73815000D01*
X134130302Y-73911673D01*
X133951673Y-74090301D01*
X133855000Y-74323690D01*
X132790000Y-74323690D01*
X132790000Y-73100000D01*
X166930000Y-73100000D01*
X166930000Y-105970000D01*
X166930000Y-105970000D01*
G37*
X166930000Y-105970000D02*
X132790000Y-105970000D01*
X132790000Y-97790000D01*
X133860000Y-97790000D01*
X133860000Y-102870000D01*
X133917852Y-103160839D01*
X134082599Y-103407401D01*
X135352599Y-104677401D01*
X135599160Y-104842148D01*
X135890000Y-104900000D01*
X140970000Y-104900000D01*
X141260839Y-104842148D01*
X141507401Y-104677401D01*
X142597057Y-103587745D01*
X145781861Y-103587745D01*
X145855995Y-103833864D01*
X146393223Y-104026965D01*
X146963454Y-103999778D01*
X147364005Y-103833864D01*
X147438139Y-103587745D01*
X146610000Y-102759605D01*
X145781861Y-103587745D01*
X142597057Y-103587745D01*
X143821579Y-102363223D01*
X145163035Y-102363223D01*
X145190222Y-102933454D01*
X145356136Y-103334005D01*
X145602255Y-103408139D01*
X146430395Y-102580000D01*
X146789605Y-102580000D01*
X147617745Y-103408139D01*
X147863864Y-103334005D01*
X148032735Y-102864187D01*
X151674752Y-102864187D01*
X151892757Y-103391800D01*
X152296077Y-103795824D01*
X152823309Y-104014750D01*
X153394187Y-104015248D01*
X153921800Y-103797243D01*
X154131663Y-103587745D01*
X157211861Y-103587745D01*
X157285995Y-103833864D01*
X157823223Y-104026965D01*
X158393454Y-103999778D01*
X158794005Y-103833864D01*
X158868139Y-103587745D01*
X158040000Y-102759605D01*
X157211861Y-103587745D01*
X154131663Y-103587745D01*
X154325824Y-103393923D01*
X154544750Y-102866691D01*
X154545189Y-102363223D01*
X156593035Y-102363223D01*
X156620222Y-102933454D01*
X156786136Y-103334005D01*
X157032255Y-103408139D01*
X157860395Y-102580000D01*
X158219605Y-102580000D01*
X159047745Y-103408139D01*
X159293864Y-103334005D01*
X159462735Y-102864187D01*
X163104752Y-102864187D01*
X163322757Y-103391800D01*
X163726077Y-103795824D01*
X164253309Y-104014750D01*
X164824187Y-104015248D01*
X165351800Y-103797243D01*
X165755824Y-103393923D01*
X165974750Y-102866691D01*
X165975248Y-102295813D01*
X165757243Y-101768200D01*
X165353923Y-101364176D01*
X164826691Y-101145250D01*
X164255813Y-101144752D01*
X163728200Y-101362757D01*
X163324176Y-101766077D01*
X163105250Y-102293309D01*
X163104752Y-102864187D01*
X159462735Y-102864187D01*
X159486965Y-102796777D01*
X159459778Y-102226546D01*
X159293864Y-101825995D01*
X159047745Y-101751861D01*
X158219605Y-102580000D01*
X157860395Y-102580000D01*
X157032255Y-101751861D01*
X156786136Y-101825995D01*
X156593035Y-102363223D01*
X154545189Y-102363223D01*
X154545248Y-102295813D01*
X154327243Y-101768200D01*
X154131640Y-101572255D01*
X157211861Y-101572255D01*
X158040000Y-102400395D01*
X158868139Y-101572255D01*
X158794005Y-101326136D01*
X158256777Y-101133035D01*
X157686546Y-101160222D01*
X157285995Y-101326136D01*
X157211861Y-101572255D01*
X154131640Y-101572255D01*
X153923923Y-101364176D01*
X153396691Y-101145250D01*
X152825813Y-101144752D01*
X152298200Y-101362757D01*
X151894176Y-101766077D01*
X151675250Y-102293309D01*
X151674752Y-102864187D01*
X148032735Y-102864187D01*
X148056965Y-102796777D01*
X148029778Y-102226546D01*
X147863864Y-101825995D01*
X147617745Y-101751861D01*
X146789605Y-102580000D01*
X146430395Y-102580000D01*
X145602255Y-101751861D01*
X145356136Y-101825995D01*
X145163035Y-102363223D01*
X143821579Y-102363223D01*
X144612547Y-101572255D01*
X145781861Y-101572255D01*
X146610000Y-102400395D01*
X147438139Y-101572255D01*
X147364005Y-101326136D01*
X146826777Y-101133035D01*
X146256546Y-101160222D01*
X145855995Y-101326136D01*
X145781861Y-101572255D01*
X144612547Y-101572255D01*
X146669751Y-99515052D01*
X146894187Y-99515248D01*
X147421800Y-99297243D01*
X147825824Y-98893923D01*
X148044750Y-98366691D01*
X148044752Y-98364187D01*
X151674752Y-98364187D01*
X151892757Y-98891800D01*
X152296077Y-99295824D01*
X152823309Y-99514750D01*
X153394187Y-99515248D01*
X153921800Y-99297243D01*
X154325824Y-98893923D01*
X154544750Y-98366691D01*
X154544752Y-98364187D01*
X156604752Y-98364187D01*
X156822757Y-98891800D01*
X157226077Y-99295824D01*
X157753309Y-99514750D01*
X158324187Y-99515248D01*
X158851800Y-99297243D01*
X159255824Y-98893923D01*
X159474750Y-98366691D01*
X159474752Y-98364187D01*
X163104752Y-98364187D01*
X163322757Y-98891800D01*
X163726077Y-99295824D01*
X164253309Y-99514750D01*
X164824187Y-99515248D01*
X165351800Y-99297243D01*
X165755824Y-98893923D01*
X165974750Y-98366691D01*
X165975248Y-97795813D01*
X165757243Y-97268200D01*
X165353923Y-96864176D01*
X164826691Y-96645250D01*
X164255813Y-96644752D01*
X163728200Y-96862757D01*
X163324176Y-97266077D01*
X163105250Y-97793309D01*
X163104752Y-98364187D01*
X159474752Y-98364187D01*
X159475248Y-97795813D01*
X159257243Y-97268200D01*
X158853923Y-96864176D01*
X158326691Y-96645250D01*
X157755813Y-96644752D01*
X157228200Y-96862757D01*
X156824176Y-97266077D01*
X156605250Y-97793309D01*
X156604752Y-98364187D01*
X154544752Y-98364187D01*
X154545248Y-97795813D01*
X154327243Y-97268200D01*
X153923923Y-96864176D01*
X153396691Y-96645250D01*
X152825813Y-96644752D01*
X152298200Y-96862757D01*
X151894176Y-97266077D01*
X151675250Y-97793309D01*
X151674752Y-98364187D01*
X148044752Y-98364187D01*
X148045248Y-97795813D01*
X147827243Y-97268200D01*
X147423923Y-96864176D01*
X147370000Y-96841785D01*
X147370000Y-94579856D01*
X147403880Y-94529151D01*
X147513113Y-93980000D01*
X147403880Y-93430849D01*
X147092811Y-92965302D01*
X146958946Y-92875856D01*
X150650615Y-89184187D01*
X152234752Y-89184187D01*
X152452757Y-89711800D01*
X152856077Y-90115824D01*
X152910000Y-90138215D01*
X152910000Y-92741354D01*
X152858200Y-92762757D01*
X152454176Y-93166077D01*
X152235250Y-93693309D01*
X152234752Y-94264187D01*
X152452757Y-94791800D01*
X152856077Y-95195824D01*
X153383309Y-95414750D01*
X153954187Y-95415248D01*
X154481800Y-95197243D01*
X154885824Y-94793923D01*
X155104750Y-94266691D01*
X155105000Y-93980000D01*
X156016887Y-93980000D01*
X156126120Y-94529151D01*
X156437189Y-94994698D01*
X156902736Y-95305767D01*
X157451887Y-95415000D01*
X157508113Y-95415000D01*
X158057264Y-95305767D01*
X158522811Y-94994698D01*
X158833880Y-94529151D01*
X158943113Y-93980000D01*
X158833880Y-93430849D01*
X158522811Y-92965302D01*
X158057264Y-92654233D01*
X157508113Y-92545000D01*
X157451887Y-92545000D01*
X156902736Y-92654233D01*
X156437189Y-92965302D01*
X156126120Y-93430849D01*
X156016887Y-93980000D01*
X155105000Y-93980000D01*
X155105248Y-93695813D01*
X155082951Y-93641851D01*
X156524802Y-92200000D01*
X162245198Y-92200000D01*
X163686744Y-93641546D01*
X163665250Y-93693309D01*
X163664752Y-94264187D01*
X163882757Y-94791800D01*
X164286077Y-95195824D01*
X164813309Y-95414750D01*
X165384187Y-95415248D01*
X165911800Y-95197243D01*
X166315824Y-94793923D01*
X166534750Y-94266691D01*
X166535248Y-93695813D01*
X166317243Y-93168200D01*
X165913923Y-92764176D01*
X165386691Y-92545250D01*
X164815813Y-92544752D01*
X164761851Y-92567049D01*
X163097401Y-90902599D01*
X162850839Y-90737852D01*
X162560000Y-90680000D01*
X156210000Y-90680000D01*
X155967414Y-90728254D01*
X155919160Y-90737852D01*
X155672599Y-90902599D01*
X154430000Y-92145198D01*
X154430000Y-90138646D01*
X154481800Y-90117243D01*
X154885824Y-89713923D01*
X155075600Y-89256890D01*
X157308524Y-89256890D01*
X157478355Y-89666924D01*
X157868642Y-90095183D01*
X158393108Y-90341486D01*
X158623000Y-90220819D01*
X158623000Y-89027000D01*
X158877000Y-89027000D01*
X158877000Y-90220819D01*
X159106892Y-90341486D01*
X159631358Y-90095183D01*
X160021645Y-89666924D01*
X160191476Y-89256890D01*
X161118524Y-89256890D01*
X161288355Y-89666924D01*
X161678642Y-90095183D01*
X162203108Y-90341486D01*
X162433000Y-90220819D01*
X162433000Y-89027000D01*
X162687000Y-89027000D01*
X162687000Y-90220819D01*
X162916892Y-90341486D01*
X163441358Y-90095183D01*
X163831645Y-89666924D01*
X164001476Y-89256890D01*
X163880155Y-89027000D01*
X162687000Y-89027000D01*
X162433000Y-89027000D01*
X161239845Y-89027000D01*
X161118524Y-89256890D01*
X160191476Y-89256890D01*
X160070155Y-89027000D01*
X158877000Y-89027000D01*
X158623000Y-89027000D01*
X157429845Y-89027000D01*
X157308524Y-89256890D01*
X155075600Y-89256890D01*
X155104750Y-89186691D01*
X155105248Y-88615813D01*
X154887243Y-88088200D01*
X154483923Y-87684176D01*
X153956691Y-87465250D01*
X153385813Y-87464752D01*
X152858200Y-87682757D01*
X152454176Y-88086077D01*
X152235250Y-88613309D01*
X152234752Y-89184187D01*
X150650615Y-89184187D01*
X155477401Y-84357401D01*
X155642148Y-84110839D01*
X155700000Y-83820000D01*
X155700000Y-81594802D01*
X157604321Y-79690481D01*
X157670853Y-79790054D01*
X158000026Y-80010000D01*
X157670853Y-80229946D01*
X157348946Y-80711715D01*
X157235907Y-81280000D01*
X157348946Y-81848285D01*
X157670853Y-82330054D01*
X158000026Y-82550000D01*
X157670853Y-82769946D01*
X157348946Y-83251715D01*
X157235907Y-83820000D01*
X157348946Y-84388285D01*
X157670853Y-84870054D01*
X158000026Y-85090000D01*
X157670853Y-85309946D01*
X157348946Y-85791715D01*
X157235907Y-86360000D01*
X157348946Y-86928285D01*
X157670853Y-87410054D01*
X158011553Y-87637702D01*
X157868642Y-87704817D01*
X157478355Y-88133076D01*
X157308524Y-88543110D01*
X157429845Y-88773000D01*
X158623000Y-88773000D01*
X158623000Y-88753000D01*
X158877000Y-88753000D01*
X158877000Y-88773000D01*
X160070155Y-88773000D01*
X160191476Y-88543110D01*
X160021645Y-88133076D01*
X159631358Y-87704817D01*
X159488447Y-87637702D01*
X159829147Y-87410054D01*
X160151054Y-86928285D01*
X160264093Y-86360000D01*
X160151054Y-85791715D01*
X159829147Y-85309946D01*
X159499974Y-85090000D01*
X159829147Y-84870054D01*
X160151054Y-84388285D01*
X160264093Y-83820000D01*
X160151054Y-83251715D01*
X159829147Y-82769946D01*
X159499974Y-82550000D01*
X159829147Y-82330054D01*
X160151054Y-81848285D01*
X160264093Y-81280000D01*
X160151054Y-80711715D01*
X159829147Y-80229946D01*
X159499974Y-80010000D01*
X159829147Y-79790054D01*
X160022954Y-79500000D01*
X161287046Y-79500000D01*
X161480853Y-79790054D01*
X161810026Y-80010000D01*
X161480853Y-80229946D01*
X161158946Y-80711715D01*
X161045907Y-81280000D01*
X161158946Y-81848285D01*
X161480853Y-82330054D01*
X161810026Y-82550000D01*
X161480853Y-82769946D01*
X161158946Y-83251715D01*
X161045907Y-83820000D01*
X161158946Y-84388285D01*
X161480853Y-84870054D01*
X161810026Y-85090000D01*
X161480853Y-85309946D01*
X161158946Y-85791715D01*
X161045907Y-86360000D01*
X161158946Y-86928285D01*
X161480853Y-87410054D01*
X161821553Y-87637702D01*
X161678642Y-87704817D01*
X161288355Y-88133076D01*
X161118524Y-88543110D01*
X161239845Y-88773000D01*
X162433000Y-88773000D01*
X162433000Y-88753000D01*
X162687000Y-88753000D01*
X162687000Y-88773000D01*
X163880155Y-88773000D01*
X164001476Y-88543110D01*
X163831645Y-88133076D01*
X163441358Y-87704817D01*
X163298447Y-87637702D01*
X163639147Y-87410054D01*
X163961054Y-86928285D01*
X164074093Y-86360000D01*
X163961054Y-85791715D01*
X163639147Y-85309946D01*
X163309974Y-85090000D01*
X163639147Y-84870054D01*
X163961054Y-84388285D01*
X164074093Y-83820000D01*
X163961054Y-83251715D01*
X163639147Y-82769946D01*
X163309974Y-82550000D01*
X163639147Y-82330054D01*
X163961054Y-81848285D01*
X164074093Y-81280000D01*
X163961054Y-80711715D01*
X163639147Y-80229946D01*
X163309974Y-80010000D01*
X163639147Y-79790054D01*
X163961054Y-79308285D01*
X164074093Y-78740000D01*
X163961054Y-78171715D01*
X163639147Y-77689946D01*
X163597548Y-77662150D01*
X163645317Y-77653162D01*
X163861441Y-77514090D01*
X164006431Y-77301890D01*
X164057440Y-77050000D01*
X164057440Y-75350000D01*
X164013162Y-75114683D01*
X163874090Y-74898559D01*
X163661890Y-74753569D01*
X163410000Y-74702560D01*
X161710000Y-74702560D01*
X161474683Y-74746838D01*
X161258559Y-74885910D01*
X161113569Y-75098110D01*
X161062560Y-75350000D01*
X161062560Y-77050000D01*
X161106838Y-77285317D01*
X161245910Y-77501441D01*
X161458110Y-77646431D01*
X161525541Y-77660086D01*
X161480853Y-77689946D01*
X161287046Y-77980000D01*
X160022954Y-77980000D01*
X159829147Y-77689946D01*
X159787548Y-77662150D01*
X159835317Y-77653162D01*
X160051441Y-77514090D01*
X160196431Y-77301890D01*
X160247440Y-77050000D01*
X160247440Y-75350000D01*
X160203162Y-75114683D01*
X160064090Y-74898559D01*
X159851890Y-74753569D01*
X159600000Y-74702560D01*
X157900000Y-74702560D01*
X157664683Y-74746838D01*
X157448559Y-74885910D01*
X157303569Y-75098110D01*
X157252560Y-75350000D01*
X157252560Y-77050000D01*
X157296838Y-77285317D01*
X157435910Y-77501441D01*
X157648110Y-77646431D01*
X157715541Y-77660086D01*
X157670853Y-77689946D01*
X157476593Y-77980678D01*
X157237414Y-78028254D01*
X157189160Y-78037852D01*
X156942599Y-78202599D01*
X154402599Y-80742599D01*
X154237852Y-80989161D01*
X154180000Y-81280000D01*
X154180000Y-83505198D01*
X145512599Y-92172599D01*
X145347852Y-92419161D01*
X145290000Y-92710000D01*
X145290000Y-92776333D01*
X145007189Y-92965302D01*
X144696120Y-93430849D01*
X144586887Y-93980000D01*
X144696120Y-94529151D01*
X145007189Y-94994698D01*
X145472736Y-95305767D01*
X145850000Y-95380810D01*
X145850000Y-96841354D01*
X145798200Y-96862757D01*
X145394176Y-97266077D01*
X145175250Y-97793309D01*
X145174752Y-98364187D01*
X145319849Y-98715348D01*
X140655198Y-103380000D01*
X136204802Y-103380000D01*
X135380000Y-102555198D01*
X135380000Y-101956890D01*
X135718524Y-101956890D01*
X135888355Y-102366924D01*
X136278642Y-102795183D01*
X136803108Y-103041486D01*
X137033000Y-102920819D01*
X137033000Y-101727000D01*
X135839845Y-101727000D01*
X135718524Y-101956890D01*
X135380000Y-101956890D01*
X135380000Y-98104802D01*
X136014321Y-97470481D01*
X136080853Y-97570054D01*
X136410026Y-97790000D01*
X136080853Y-98009946D01*
X135758946Y-98491715D01*
X135645907Y-99060000D01*
X135758946Y-99628285D01*
X136080853Y-100110054D01*
X136421553Y-100337702D01*
X136278642Y-100404817D01*
X135888355Y-100833076D01*
X135718524Y-101243110D01*
X135839845Y-101473000D01*
X137033000Y-101473000D01*
X137033000Y-101453000D01*
X137287000Y-101453000D01*
X137287000Y-101473000D01*
X137307000Y-101473000D01*
X137307000Y-101727000D01*
X137287000Y-101727000D01*
X137287000Y-102920819D01*
X137516892Y-103041486D01*
X138041358Y-102795183D01*
X138431645Y-102366924D01*
X138431655Y-102366899D01*
X138620853Y-102650054D01*
X139102622Y-102971961D01*
X139670907Y-103085000D01*
X139729093Y-103085000D01*
X140297378Y-102971961D01*
X140779147Y-102650054D01*
X141101054Y-102168285D01*
X141214093Y-101600000D01*
X141101054Y-101031715D01*
X140779147Y-100549946D01*
X140449974Y-100330000D01*
X140779147Y-100110054D01*
X141101054Y-99628285D01*
X141214093Y-99060000D01*
X141141210Y-98693592D01*
X142777401Y-97057401D01*
X142942148Y-96810840D01*
X142975185Y-96644752D01*
X143000000Y-96520000D01*
X143000000Y-95250000D01*
X142963264Y-95065317D01*
X142942148Y-94959160D01*
X142777401Y-94712599D01*
X141507401Y-93442599D01*
X141390388Y-93364414D01*
X144047401Y-90707401D01*
X144212148Y-90460839D01*
X144270000Y-90170000D01*
X144270000Y-88900000D01*
X144586887Y-88900000D01*
X144696120Y-89449151D01*
X145007189Y-89914698D01*
X145472736Y-90225767D01*
X146021887Y-90335000D01*
X146078113Y-90335000D01*
X146627264Y-90225767D01*
X147092811Y-89914698D01*
X147403880Y-89449151D01*
X147513113Y-88900000D01*
X147403880Y-88350849D01*
X147092811Y-87885302D01*
X146627264Y-87574233D01*
X146078113Y-87465000D01*
X146021887Y-87465000D01*
X145472736Y-87574233D01*
X145007189Y-87885302D01*
X144696120Y-88350849D01*
X144586887Y-88900000D01*
X144270000Y-88900000D01*
X144270000Y-86674802D01*
X146157057Y-84787745D01*
X149031861Y-84787745D01*
X149105995Y-85033864D01*
X149643223Y-85226965D01*
X150213454Y-85199778D01*
X150614005Y-85033864D01*
X150688139Y-84787745D01*
X149860000Y-83959605D01*
X149031861Y-84787745D01*
X146157057Y-84787745D01*
X147381579Y-83563223D01*
X148413035Y-83563223D01*
X148440222Y-84133454D01*
X148606136Y-84534005D01*
X148852255Y-84608139D01*
X149680395Y-83780000D01*
X150039605Y-83780000D01*
X150867745Y-84608139D01*
X151113864Y-84534005D01*
X151306965Y-83996777D01*
X151279778Y-83426546D01*
X151113864Y-83025995D01*
X150867745Y-82951861D01*
X150039605Y-83780000D01*
X149680395Y-83780000D01*
X148852255Y-82951861D01*
X148606136Y-83025995D01*
X148413035Y-83563223D01*
X147381579Y-83563223D01*
X148524436Y-82420366D01*
X148595910Y-82531441D01*
X148808110Y-82676431D01*
X149046201Y-82724646D01*
X149031861Y-82772255D01*
X149860000Y-83600395D01*
X150688139Y-82772255D01*
X150673855Y-82724833D01*
X150895317Y-82683162D01*
X151111441Y-82544090D01*
X151256431Y-82331890D01*
X151307440Y-82080000D01*
X151307440Y-80480000D01*
X151263162Y-80244683D01*
X151124090Y-80028559D01*
X150911890Y-79883569D01*
X150660000Y-79832560D01*
X149060000Y-79832560D01*
X148824683Y-79876838D01*
X148608559Y-80015910D01*
X148463569Y-80228110D01*
X148412560Y-80480000D01*
X148412560Y-80555295D01*
X148299161Y-80577852D01*
X148052599Y-80742599D01*
X142972599Y-85822599D01*
X142807852Y-86069161D01*
X142750000Y-86360000D01*
X142750000Y-89855198D01*
X140460000Y-92145198D01*
X140460000Y-91440000D01*
X140402148Y-91149161D01*
X140402148Y-91149160D01*
X140237401Y-90902599D01*
X139190000Y-89855198D01*
X139190000Y-88952934D01*
X139545481Y-88715409D01*
X139700000Y-88484155D01*
X139854519Y-88715409D01*
X140352509Y-89048155D01*
X140939928Y-89165000D01*
X141000072Y-89165000D01*
X141587491Y-89048155D01*
X142085481Y-88715409D01*
X142418227Y-88217419D01*
X142535072Y-87630000D01*
X142418227Y-87042581D01*
X142085481Y-86544591D01*
X141587491Y-86211845D01*
X141000072Y-86095000D01*
X140939928Y-86095000D01*
X140352509Y-86211845D01*
X139854519Y-86544591D01*
X139700000Y-86775845D01*
X139545481Y-86544591D01*
X139047491Y-86211845D01*
X138460072Y-86095000D01*
X138399928Y-86095000D01*
X137812509Y-86211845D01*
X137381878Y-86499583D01*
X137328327Y-86370301D01*
X137149698Y-86191673D01*
X136916309Y-86095000D01*
X136175750Y-86095000D01*
X136017000Y-86253750D01*
X136017000Y-87503000D01*
X136037000Y-87503000D01*
X136037000Y-87757000D01*
X136017000Y-87757000D01*
X136017000Y-89006250D01*
X136175750Y-89165000D01*
X136916309Y-89165000D01*
X137149698Y-89068327D01*
X137328327Y-88889699D01*
X137381878Y-88760417D01*
X137670000Y-88952934D01*
X137670000Y-90170000D01*
X137727852Y-90460839D01*
X137892599Y-90707401D01*
X138940000Y-91754802D01*
X138940000Y-92716699D01*
X138620853Y-92929946D01*
X138620029Y-92931179D01*
X138613162Y-92894683D01*
X138474090Y-92678559D01*
X138261890Y-92533569D01*
X138010000Y-92482560D01*
X136310000Y-92482560D01*
X136074683Y-92526838D01*
X135858559Y-92665910D01*
X135713569Y-92878110D01*
X135662560Y-93130000D01*
X135662560Y-94830000D01*
X135706838Y-95065317D01*
X135845910Y-95281441D01*
X136058110Y-95426431D01*
X136125541Y-95440086D01*
X136080853Y-95469946D01*
X135886593Y-95760678D01*
X135599160Y-95817852D01*
X135352599Y-95982599D01*
X134082599Y-97252599D01*
X133917852Y-97499161D01*
X133860000Y-97790000D01*
X132790000Y-97790000D01*
X132790000Y-87915750D01*
X134355000Y-87915750D01*
X134355000Y-88656310D01*
X134451673Y-88889699D01*
X134630302Y-89068327D01*
X134863691Y-89165000D01*
X135604250Y-89165000D01*
X135763000Y-89006250D01*
X135763000Y-87757000D01*
X134513750Y-87757000D01*
X134355000Y-87915750D01*
X132790000Y-87915750D01*
X132790000Y-86603690D01*
X134355000Y-86603690D01*
X134355000Y-87344250D01*
X134513750Y-87503000D01*
X135763000Y-87503000D01*
X135763000Y-86253750D01*
X135604250Y-86095000D01*
X134863691Y-86095000D01*
X134630302Y-86191673D01*
X134451673Y-86370301D01*
X134355000Y-86603690D01*
X132790000Y-86603690D01*
X132790000Y-76485750D01*
X133855000Y-76485750D01*
X133855000Y-78076310D01*
X133951673Y-78309699D01*
X134130302Y-78488327D01*
X134363691Y-78585000D01*
X135954250Y-78585000D01*
X136113000Y-78426250D01*
X136113000Y-76327000D01*
X136367000Y-76327000D01*
X136367000Y-78426250D01*
X136525750Y-78585000D01*
X137195378Y-78585000D01*
X137038559Y-78685910D01*
X136893569Y-78898110D01*
X136842560Y-79150000D01*
X136842560Y-82650000D01*
X136886838Y-82885317D01*
X137025910Y-83101441D01*
X137238110Y-83246431D01*
X137490000Y-83297440D01*
X140990000Y-83297440D01*
X141225317Y-83253162D01*
X141441441Y-83114090D01*
X141586431Y-82901890D01*
X141637440Y-82650000D01*
X141637440Y-79150000D01*
X141593162Y-78914683D01*
X141454090Y-78698559D01*
X141306097Y-78597440D01*
X143990000Y-78597440D01*
X144225317Y-78553162D01*
X144441441Y-78414090D01*
X144586431Y-78201890D01*
X144637440Y-77950000D01*
X144637440Y-76484187D01*
X145884752Y-76484187D01*
X146102757Y-77011800D01*
X146506077Y-77415824D01*
X147033309Y-77634750D01*
X147604187Y-77635248D01*
X148131800Y-77417243D01*
X148341663Y-77207745D01*
X151491861Y-77207745D01*
X151565995Y-77453864D01*
X152103223Y-77646965D01*
X152673454Y-77619778D01*
X153074005Y-77453864D01*
X153148139Y-77207745D01*
X152320000Y-76379605D01*
X151491861Y-77207745D01*
X148341663Y-77207745D01*
X148535824Y-77013923D01*
X148754750Y-76486691D01*
X148755189Y-75983223D01*
X150873035Y-75983223D01*
X150900222Y-76553454D01*
X151066136Y-76954005D01*
X151312255Y-77028139D01*
X152140395Y-76200000D01*
X152499605Y-76200000D01*
X153327745Y-77028139D01*
X153573864Y-76954005D01*
X153766965Y-76416777D01*
X153739778Y-75846546D01*
X153573864Y-75445995D01*
X153327745Y-75371861D01*
X152499605Y-76200000D01*
X152140395Y-76200000D01*
X151312255Y-75371861D01*
X151066136Y-75445995D01*
X150873035Y-75983223D01*
X148755189Y-75983223D01*
X148755248Y-75915813D01*
X148537243Y-75388200D01*
X148341640Y-75192255D01*
X151491861Y-75192255D01*
X152320000Y-76020395D01*
X153148139Y-75192255D01*
X153074005Y-74946136D01*
X152536777Y-74753035D01*
X151966546Y-74780222D01*
X151565995Y-74946136D01*
X151491861Y-75192255D01*
X148341640Y-75192255D01*
X148133923Y-74984176D01*
X147606691Y-74765250D01*
X147035813Y-74764752D01*
X146508200Y-74982757D01*
X146104176Y-75386077D01*
X145885250Y-75913309D01*
X145884752Y-76484187D01*
X144637440Y-76484187D01*
X144637440Y-74450000D01*
X144593162Y-74214683D01*
X144454090Y-73998559D01*
X144241890Y-73853569D01*
X143990000Y-73802560D01*
X140490000Y-73802560D01*
X140254683Y-73846838D01*
X140038559Y-73985910D01*
X139893569Y-74198110D01*
X139842560Y-74450000D01*
X139842560Y-77950000D01*
X139886838Y-78185317D01*
X140025910Y-78401441D01*
X140173903Y-78502560D01*
X138315337Y-78502560D01*
X138349698Y-78488327D01*
X138528327Y-78309699D01*
X138625000Y-78076310D01*
X138625000Y-76485750D01*
X138466250Y-76327000D01*
X136367000Y-76327000D01*
X136113000Y-76327000D01*
X134013750Y-76327000D01*
X133855000Y-76485750D01*
X132790000Y-76485750D01*
X132790000Y-74323690D01*
X133855000Y-74323690D01*
X133855000Y-75914250D01*
X134013750Y-76073000D01*
X136113000Y-76073000D01*
X136113000Y-73973750D01*
X136367000Y-73973750D01*
X136367000Y-76073000D01*
X138466250Y-76073000D01*
X138625000Y-75914250D01*
X138625000Y-74323690D01*
X138528327Y-74090301D01*
X138349698Y-73911673D01*
X138116309Y-73815000D01*
X136525750Y-73815000D01*
X136367000Y-73973750D01*
X136113000Y-73973750D01*
X135954250Y-73815000D01*
X134363691Y-73815000D01*
X134130302Y-73911673D01*
X133951673Y-74090301D01*
X133855000Y-74323690D01*
X132790000Y-74323690D01*
X132790000Y-73100000D01*
X166930000Y-73100000D01*
X166930000Y-105970000D01*
M02*
